<svg width="381" height="475" viewBox="0 0 381 475" fill="none" xmlns="http://www.w3.org/2000/svg">
<g filter="url(#filter0_d_29_945)">
<path d="M24 21C24 18.2386 26.2386 16 29 16H360C362.761 16 365 18.2386 365 21V436C365 438.761 362.761 441 360 441H29C26.2386 441 24 438.761 24 436V21Z" fill="#EEEEEE"/>
</g>
<path d="M84.5865 127.84C84.5865 126.213 84.1065 124.84 83.1465 123.72C82.1998 122.6 80.9665 122.04 79.4465 122.04C77.9132 122.04 76.6665 122.6 75.7065 123.72C74.7598 124.84 74.2865 126.213 74.2865 127.84C74.2865 129.467 74.7598 130.84 75.7065 131.96C76.6665 133.08 77.9132 133.64 79.4465 133.64C80.9665 133.64 82.1998 133.08 83.1465 131.96C84.1065 130.84 84.5865 129.467 84.5865 127.84ZM86.4465 127.88C86.4465 129.973 85.7865 131.733 84.4665 133.16C83.1465 134.587 81.4732 135.3 79.4465 135.3C77.4065 135.3 75.7265 134.587 74.4065 133.16C73.0865 131.733 72.4265 129.973 72.4265 127.88C72.4265 125.707 73.0798 123.92 74.3865 122.52C75.7065 121.107 77.3932 120.4 79.4465 120.4C81.4998 120.4 83.1798 121.107 84.4865 122.52C85.7932 123.92 86.4465 125.707 86.4465 127.88ZM93.2124 135.24C90.2258 135.08 88.7324 133.247 88.7324 129.74V119.84H90.6324V129.32C90.6324 130.733 90.8258 131.773 91.2124 132.44C91.6124 133.093 92.3524 133.453 93.4324 133.52L93.2124 135.24ZM94.5987 128.32C94.5987 127.24 94.9587 126.347 95.6787 125.64C96.412 124.92 97.3187 124.56 98.3987 124.56H102.719V125.86H101.219C101.539 125.993 101.805 126.287 102.019 126.74C102.245 127.18 102.359 127.64 102.359 128.12C102.359 129.32 102.025 130.26 101.359 130.94C100.692 131.62 99.7653 131.96 98.5787 131.96C98.112 131.96 97.6787 131.893 97.2787 131.76C97.172 131.867 97.1187 131.993 97.1187 132.14C97.1187 132.447 97.8453 132.8 99.2987 133.2C101.379 133.787 102.419 134.84 102.419 136.36C102.419 137.387 102.052 138.167 101.319 138.7C100.585 139.247 99.6187 139.52 98.4187 139.52C97.3253 139.52 96.212 139.173 95.0787 138.48L95.7387 136.98C96.8053 137.607 97.7387 137.92 98.5387 137.92C99.0987 137.92 99.5987 137.78 100.039 137.5C100.479 137.233 100.699 136.88 100.699 136.44C100.699 135.827 100.139 135.293 99.0187 134.84C98.2053 134.507 97.3987 134.127 96.5987 133.7C95.812 133.273 95.4187 132.727 95.4187 132.06C95.4187 131.713 95.5053 131.3 95.6787 130.82C94.9587 130.047 94.5987 129.213 94.5987 128.32ZM98.5787 130.4C99.2453 130.4 99.772 130.207 100.159 129.82C100.559 129.42 100.759 128.9 100.759 128.26C100.759 127.66 100.545 127.153 100.119 126.74C99.692 126.313 99.1787 126.1 98.5787 126.1C97.9787 126.1 97.4587 126.313 97.0187 126.74C96.592 127.153 96.3787 127.66 96.3787 128.26C96.3787 128.86 96.592 129.367 97.0187 129.78C97.4587 130.193 97.9787 130.4 98.5787 130.4ZM108.019 135.28C106.992 135.28 106.132 135 105.439 134.44C104.746 133.88 104.399 133.133 104.399 132.2C104.399 129.667 106.679 128.367 111.239 128.3C111.039 126.793 110.212 126.04 108.759 126.04C107.652 126.04 106.459 126.287 105.179 126.78L104.979 125.08C106.339 124.68 107.632 124.48 108.859 124.48C111.699 124.48 113.119 125.94 113.119 128.86V132.26C113.119 133.02 113.259 133.9 113.539 134.9L111.779 135.28L111.479 133.94C110.439 134.833 109.286 135.28 108.019 135.28ZM111.239 131.76V129.94C107.959 130.007 106.319 130.7 106.319 132.02C106.319 133.087 106.912 133.62 108.099 133.62C108.792 133.62 109.486 133.44 110.179 133.08C110.886 132.707 111.239 132.267 111.239 131.76ZM131.832 135H122.932V120.68H124.832V133.38H131.832V135ZM143.932 134.88L142.092 135.24C141.892 134.76 141.712 134.18 141.552 133.5C140.339 134.687 139.146 135.28 137.972 135.28C135.146 135.28 133.732 133.64 133.732 130.36V124.78H135.632V130.18C135.632 132.447 136.492 133.58 138.212 133.58C138.959 133.58 139.679 133.3 140.372 132.74C141.066 132.167 141.412 131.527 141.412 130.82V124.78H143.312V132.26C143.312 132.967 143.519 133.84 143.932 134.88ZM147.491 129.82C147.491 130.94 147.798 131.867 148.411 132.6C149.024 133.32 149.851 133.68 150.891 133.68C151.891 133.68 152.864 133.387 153.811 132.8L154.471 134.36C153.484 134.973 152.311 135.28 150.951 135.28C149.351 135.28 148.051 134.773 147.051 133.76C146.064 132.747 145.571 131.433 145.571 129.82C145.571 128.207 146.064 126.9 147.051 125.9C148.051 124.887 149.351 124.38 150.951 124.38C152.311 124.38 153.484 124.68 154.471 125.28L153.811 126.84C152.878 126.267 151.904 125.98 150.891 125.98C149.851 125.98 149.024 126.347 148.411 127.08C147.798 127.8 147.491 128.713 147.491 129.82ZM158.621 135H156.721V124.78H158.621V135ZM157.621 120.32C158.021 120.32 158.361 120.46 158.641 120.74C158.934 121.02 159.081 121.36 159.081 121.76C159.081 122.16 158.934 122.5 158.641 122.78C158.361 123.06 158.021 123.2 157.621 123.2C157.221 123.2 156.881 123.06 156.601 122.78C156.321 122.5 156.181 122.16 156.181 121.76C156.181 121.36 156.321 121.02 156.601 120.74C156.881 120.46 157.221 120.32 157.621 120.32ZM164.523 135.28C163.496 135.28 162.636 135 161.943 134.44C161.25 133.88 160.903 133.133 160.903 132.2C160.903 129.667 163.183 128.367 167.743 128.3C167.543 126.793 166.716 126.04 165.263 126.04C164.156 126.04 162.963 126.287 161.683 126.78L161.483 125.08C162.843 124.68 164.136 124.48 165.363 124.48C168.203 124.48 169.623 125.94 169.623 128.86V132.26C169.623 133.02 169.763 133.9 170.043 134.9L168.283 135.28L167.983 133.94C166.943 134.833 165.79 135.28 164.523 135.28ZM167.743 131.76V129.94C164.463 130.007 162.823 130.7 162.823 132.02C162.823 133.087 163.416 133.62 164.603 133.62C165.296 133.62 165.99 133.44 166.683 133.08C167.39 132.707 167.743 132.267 167.743 131.76ZM182.776 125.98C182.282 125.98 181.849 126.113 181.476 126.38C181.116 126.633 180.936 126.98 180.936 127.42C180.936 127.94 181.669 128.453 183.136 128.96C185.109 129.64 186.096 130.68 186.096 132.08C186.096 133.093 185.709 133.88 184.936 134.44C184.162 135 183.196 135.28 182.036 135.28C181.009 135.28 179.902 134.947 178.716 134.28L179.476 132.78C180.289 133.34 181.169 133.62 182.116 133.62C183.516 133.62 184.216 133.14 184.216 132.18C184.216 131.42 183.536 130.833 182.176 130.42C180.176 129.793 179.176 128.84 179.176 127.56C179.176 126.627 179.529 125.887 180.236 125.34C180.956 124.78 181.842 124.5 182.896 124.5C184.042 124.5 185.029 124.793 185.856 125.38L185.156 126.76C184.449 126.24 183.656 125.98 182.776 125.98ZM189.482 130.18C189.562 131.233 189.942 132.067 190.622 132.68C191.315 133.28 192.222 133.58 193.342 133.58C194.462 133.58 195.742 133.32 197.182 132.8L197.402 134.46C195.922 135.007 194.528 135.28 193.222 135.28C191.622 135.28 190.288 134.793 189.222 133.82C188.155 132.847 187.622 131.587 187.622 130.04C187.622 128.373 188.122 127.013 189.122 125.96C190.135 124.907 191.462 124.38 193.102 124.38C196.182 124.38 197.755 126.313 197.822 130.18H189.482ZM195.962 128.6C195.855 127.813 195.528 127.173 194.982 126.68C194.448 126.187 193.762 125.94 192.922 125.94C192.095 125.94 191.368 126.2 190.742 126.72C190.128 127.227 189.748 127.853 189.602 128.6H195.962ZM208.017 130.18C208.097 131.233 208.477 132.067 209.157 132.68C209.85 133.28 210.757 133.58 211.877 133.58C212.997 133.58 214.277 133.32 215.717 132.8L215.937 134.46C214.457 135.007 213.064 135.28 211.757 135.28C210.157 135.28 208.824 134.793 207.757 133.82C206.69 132.847 206.157 131.587 206.157 130.04C206.157 128.373 206.657 127.013 207.657 125.96C208.67 124.907 209.997 124.38 211.637 124.38C214.717 124.38 216.29 126.313 216.357 130.18H208.017ZM214.497 128.6C214.39 127.813 214.064 127.173 213.517 126.68C212.984 126.187 212.297 125.94 211.457 125.94C210.63 125.94 209.904 126.2 209.277 126.72C208.664 127.227 208.284 127.853 208.137 128.6H214.497ZM223.875 124.48C225.261 124.48 226.355 124.907 227.155 125.76C227.955 126.613 228.355 127.76 228.355 129.2V135H226.455V129.2C226.455 127.107 225.501 126.06 223.595 126.06C222.915 126.06 222.235 126.373 221.555 127C220.875 127.627 220.535 128.26 220.535 128.9V135H218.635V127.48C218.635 126.227 218.555 125.313 218.395 124.74H220.175C220.308 125.06 220.375 125.473 220.375 125.98C221.335 124.98 222.501 124.48 223.875 124.48ZM232.55 129.82C232.55 130.94 232.856 131.867 233.47 132.6C234.083 133.32 234.91 133.68 235.95 133.68C236.95 133.68 237.923 133.387 238.87 132.8L239.53 134.36C238.543 134.973 237.37 135.28 236.01 135.28C234.41 135.28 233.11 134.773 232.11 133.76C231.123 132.747 230.63 131.433 230.63 129.82C230.63 128.207 231.123 126.9 232.11 125.9C233.11 124.887 234.41 124.38 236.01 124.38C237.37 124.38 238.543 124.68 239.53 125.28L238.87 126.84C237.936 126.267 236.963 125.98 235.95 125.98C234.91 125.98 234.083 126.347 233.47 127.08C232.856 127.8 232.55 128.713 232.55 129.82ZM244.679 135.28C243.653 135.28 242.793 135 242.099 134.44C241.406 133.88 241.059 133.133 241.059 132.2C241.059 129.667 243.339 128.367 247.899 128.3C247.699 126.793 246.873 126.04 245.419 126.04C244.313 126.04 243.119 126.287 241.839 126.78L241.639 125.08C242.999 124.68 244.293 124.48 245.519 124.48C248.359 124.48 249.779 125.94 249.779 128.86V132.26C249.779 133.02 249.919 133.9 250.199 134.9L248.439 135.28L248.139 133.94C247.099 134.833 245.946 135.28 244.679 135.28ZM247.899 131.76V129.94C244.619 130.007 242.979 130.7 242.979 132.02C242.979 133.087 243.573 133.62 244.759 133.62C245.453 133.62 246.146 133.44 246.839 133.08C247.546 132.707 247.899 132.267 247.899 131.76ZM254.474 126.06C254.661 125.673 255.041 125.313 255.614 124.98C256.201 124.647 256.761 124.48 257.294 124.48C257.721 124.48 258.041 124.507 258.254 124.56V126.18C258.094 126.14 257.868 126.12 257.574 126.12C255.668 126.12 254.714 127.267 254.714 129.56V135H252.814V128.24C252.814 126.64 252.694 125.433 252.454 124.62H254.134C254.361 124.993 254.474 125.473 254.474 126.06ZM259.677 128.32C259.677 127.24 260.037 126.347 260.757 125.64C261.49 124.92 262.397 124.56 263.477 124.56H267.797V125.86H266.297C266.617 125.993 266.883 126.287 267.097 126.74C267.323 127.18 267.437 127.64 267.437 128.12C267.437 129.32 267.103 130.26 266.437 130.94C265.77 131.62 264.843 131.96 263.657 131.96C263.19 131.96 262.757 131.893 262.357 131.76C262.25 131.867 262.197 131.993 262.197 132.14C262.197 132.447 262.923 132.8 264.377 133.2C266.457 133.787 267.497 134.84 267.497 136.36C267.497 137.387 267.13 138.167 266.397 138.7C265.663 139.247 264.697 139.52 263.497 139.52C262.403 139.52 261.29 139.173 260.157 138.48L260.817 136.98C261.883 137.607 262.817 137.92 263.617 137.92C264.177 137.92 264.677 137.78 265.117 137.5C265.557 137.233 265.777 136.88 265.777 136.44C265.777 135.827 265.217 135.293 264.097 134.84C263.283 134.507 262.477 134.127 261.677 133.7C260.89 133.273 260.497 132.727 260.497 132.06C260.497 131.713 260.583 131.3 260.757 130.82C260.037 130.047 259.677 129.213 259.677 128.32ZM263.657 130.4C264.323 130.4 264.85 130.207 265.237 129.82C265.637 129.42 265.837 128.9 265.837 128.26C265.837 127.66 265.623 127.153 265.197 126.74C264.77 126.313 264.257 126.1 263.657 126.1C263.057 126.1 262.537 126.313 262.097 126.74C261.67 127.153 261.457 127.66 261.457 128.26C261.457 128.86 261.67 129.367 262.097 129.78C262.537 130.193 263.057 130.4 263.657 130.4ZM273.097 135.28C272.071 135.28 271.211 135 270.517 134.44C269.824 133.88 269.477 133.133 269.477 132.2C269.477 129.667 271.757 128.367 276.317 128.3C276.117 126.793 275.291 126.04 273.837 126.04C272.731 126.04 271.537 126.287 270.257 126.78L270.057 125.08C271.417 124.68 272.711 124.48 273.937 124.48C276.777 124.48 278.197 125.94 278.197 128.86V132.26C278.197 133.02 278.337 133.9 278.617 134.9L276.857 135.28L276.557 133.94C275.517 134.833 274.364 135.28 273.097 135.28ZM276.317 131.76V129.94C273.037 130.007 271.397 130.7 271.397 132.02C271.397 133.087 271.991 133.62 273.177 133.62C273.871 133.62 274.564 133.44 275.257 133.08C275.964 132.707 276.317 132.267 276.317 131.76ZM298.09 135H296.29C296.223 134.76 296.19 134.387 296.19 133.88C295.23 134.813 294.016 135.28 292.55 135.28C291.03 135.28 289.77 134.76 288.77 133.72C287.783 132.667 287.29 131.32 287.29 129.68C287.29 128.133 287.77 126.867 288.73 125.88C289.703 124.88 290.93 124.38 292.41 124.38C293.903 124.38 295.123 124.853 296.07 125.8V119.84H297.97V132.26C297.97 133.1 298.01 134.013 298.09 135ZM292.71 133.62C293.656 133.62 294.45 133.407 295.09 132.98C295.743 132.54 296.07 131.92 296.07 131.12V128.78C296.07 128.033 295.69 127.373 294.93 126.8C294.183 126.227 293.403 125.94 292.59 125.94C291.563 125.94 290.73 126.293 290.09 127C289.463 127.707 289.15 128.6 289.15 129.68C289.15 130.88 289.456 131.84 290.07 132.56C290.696 133.267 291.576 133.62 292.71 133.62ZM302.236 130.18C302.316 131.233 302.696 132.067 303.376 132.68C304.069 133.28 304.976 133.58 306.096 133.58C307.216 133.58 308.496 133.32 309.936 132.8L310.156 134.46C308.676 135.007 307.282 135.28 305.976 135.28C304.376 135.28 303.042 134.793 301.976 133.82C300.909 132.847 300.376 131.587 300.376 130.04C300.376 128.373 300.876 127.013 301.876 125.96C302.889 124.907 304.216 124.38 305.856 124.38C308.936 124.38 310.509 126.313 310.576 130.18H302.236ZM308.716 128.6C308.609 127.813 308.282 127.173 307.736 126.68C307.202 126.187 306.516 125.94 305.676 125.94C304.849 125.94 304.122 126.2 303.496 126.72C302.882 127.227 302.502 127.853 302.356 128.6H308.716ZM92.5984 169.82C92.5984 170.94 92.9051 171.867 93.5184 172.6C94.1318 173.32 94.9584 173.68 95.9984 173.68C96.9984 173.68 97.9718 173.387 98.9184 172.8L99.5784 174.36C98.5918 174.973 97.4184 175.28 96.0584 175.28C94.4584 175.28 93.1584 174.773 92.1584 173.76C91.1718 172.747 90.6784 171.433 90.6784 169.82C90.6784 168.207 91.1718 166.9 92.1584 165.9C93.1584 164.887 94.4584 164.38 96.0584 164.38C97.4184 164.38 98.5918 164.68 99.5784 165.28L98.9184 166.84C97.9851 166.267 97.0118 165.98 95.9984 165.98C94.9584 165.98 94.1318 166.347 93.5184 167.08C92.9051 167.8 92.5984 168.713 92.5984 169.82ZM111.948 169.82C111.948 171.353 111.428 172.64 110.388 173.68C109.348 174.72 108.061 175.24 106.528 175.24C104.995 175.24 103.708 174.72 102.668 173.68C101.628 172.64 101.108 171.353 101.108 169.82C101.108 168.3 101.628 167.013 102.668 165.96C103.708 164.907 104.995 164.38 106.528 164.38C108.061 164.38 109.348 164.907 110.388 165.96C111.428 167.013 111.948 168.3 111.948 169.82ZM106.528 173.64C107.568 173.64 108.415 173.273 109.068 172.54C109.735 171.807 110.068 170.9 110.068 169.82C110.068 168.74 109.735 167.833 109.068 167.1C108.415 166.367 107.568 166 106.528 166C105.488 166 104.635 166.367 103.968 167.1C103.301 167.833 102.968 168.74 102.968 169.82C102.968 170.9 103.301 171.807 103.968 172.54C104.635 173.273 105.488 173.64 106.528 173.64ZM119.451 164.48C120.838 164.48 121.931 164.907 122.731 165.76C123.531 166.613 123.931 167.76 123.931 169.2V175H122.031V169.2C122.031 167.107 121.078 166.06 119.171 166.06C118.491 166.06 117.811 166.373 117.131 167C116.451 167.627 116.111 168.26 116.111 168.9V175H114.211V167.48C114.211 166.227 114.131 165.313 113.971 164.74H115.751C115.884 165.06 115.951 165.473 115.951 165.98C116.911 164.98 118.078 164.48 119.451 164.48ZM130.726 175.28C129.779 175.28 129.046 174.96 128.526 174.32C128.006 173.667 127.746 172.82 127.746 171.78V166.34H125.706V164.78H127.746V161.98L129.646 161.16V164.78H132.926V166.34H129.646V171.76C129.646 172.973 130.032 173.58 130.806 173.58C131.326 173.58 131.886 173.473 132.486 173.26L132.706 174.84C132.012 175.133 131.352 175.28 130.726 175.28ZM136.34 166.06C136.526 165.673 136.906 165.313 137.48 164.98C138.066 164.647 138.626 164.48 139.16 164.48C139.586 164.48 139.906 164.507 140.12 164.56V166.18C139.96 166.14 139.733 166.12 139.44 166.12C137.533 166.12 136.58 167.267 136.58 169.56V175H134.68V168.24C134.68 166.64 134.56 165.433 134.32 164.62H136C136.226 164.993 136.34 165.473 136.34 166.06ZM144.982 175.28C143.955 175.28 143.095 175 142.402 174.44C141.709 173.88 141.362 173.133 141.362 172.2C141.362 169.667 143.642 168.367 148.202 168.3C148.002 166.793 147.175 166.04 145.722 166.04C144.615 166.04 143.422 166.287 142.142 166.78L141.942 165.08C143.302 164.68 144.595 164.48 145.822 164.48C148.662 164.48 150.082 165.94 150.082 168.86V172.26C150.082 173.02 150.222 173.9 150.502 174.9L148.742 175.28L148.442 173.94C147.402 174.833 146.249 175.28 144.982 175.28ZM148.202 171.76V169.94C144.922 170.007 143.282 170.7 143.282 172.02C143.282 173.087 143.875 173.62 145.062 173.62C145.755 173.62 146.449 173.44 147.142 173.08C147.849 172.707 148.202 172.267 148.202 171.76ZM156.917 175.28C155.971 175.28 155.237 174.96 154.717 174.32C154.197 173.667 153.937 172.82 153.937 171.78V166.34H151.897V164.78H153.937V161.98L155.837 161.16V164.78H159.117V166.34H155.837V171.76C155.837 172.973 156.224 173.58 156.997 173.58C157.517 173.58 158.077 173.473 158.677 173.26L158.897 174.84C158.204 175.133 157.544 175.28 156.917 175.28ZM163.771 175.28C162.744 175.28 161.884 175 161.191 174.44C160.498 173.88 160.151 173.133 160.151 172.2C160.151 169.667 162.431 168.367 166.991 168.3C166.791 166.793 165.964 166.04 164.511 166.04C163.404 166.04 162.211 166.287 160.931 166.78L160.731 165.08C162.091 164.68 163.384 164.48 164.611 164.48C167.451 164.48 168.871 165.94 168.871 168.86V172.26C168.871 173.02 169.011 173.9 169.291 174.9L167.531 175.28L167.231 173.94C166.191 174.833 165.038 175.28 163.771 175.28ZM166.991 171.76V169.94C163.711 170.007 162.071 170.7 162.071 172.02C162.071 173.087 162.664 173.62 163.851 173.62C164.544 173.62 165.238 173.44 165.931 173.08C166.638 172.707 166.991 172.267 166.991 171.76ZM173.566 166.06C173.753 165.673 174.133 165.313 174.706 164.98C175.293 164.647 175.853 164.48 176.386 164.48C176.813 164.48 177.133 164.507 177.346 164.56V166.18C177.186 166.14 176.96 166.12 176.666 166.12C174.76 166.12 173.806 167.267 173.806 169.56V175H171.906V168.24C171.906 166.64 171.786 165.433 171.546 164.62H173.226C173.453 164.993 173.566 165.473 173.566 166.06ZM187.226 170.18C187.306 171.233 187.686 172.067 188.366 172.68C189.059 173.28 189.966 173.58 191.086 173.58C192.206 173.58 193.486 173.32 194.926 172.8L195.146 174.46C193.666 175.007 192.273 175.28 190.966 175.28C189.366 175.28 188.033 174.793 186.966 173.82C185.899 172.847 185.366 171.587 185.366 170.04C185.366 168.373 185.866 167.013 186.866 165.96C187.879 164.907 189.206 164.38 190.846 164.38C193.926 164.38 195.499 166.313 195.566 170.18H187.226ZM193.706 168.6C193.599 167.813 193.273 167.173 192.726 166.68C192.193 166.187 191.506 165.94 190.666 165.94C189.839 165.94 189.113 166.2 188.486 166.72C187.873 167.227 187.493 167.853 187.346 168.6H193.706ZM202.324 175.24C199.337 175.08 197.844 173.247 197.844 169.74V159.84H199.744V169.32C199.744 170.733 199.937 171.773 200.324 172.44C200.724 173.093 201.464 173.453 202.544 173.52L202.324 175.24ZM221.707 169.62C221.707 171.233 221.201 172.58 220.187 173.66C219.187 174.74 217.907 175.28 216.347 175.28C214.961 175.28 213.821 174.867 212.927 174.04V179.3H211.027V168.08C211.027 166.427 210.987 165.267 210.907 164.6H212.767L212.987 165.7C214.041 164.82 215.241 164.38 216.587 164.38C218.054 164.38 219.274 164.887 220.247 165.9C221.221 166.9 221.707 168.14 221.707 169.62ZM216.287 173.62C217.421 173.62 218.301 173.26 218.927 172.54C219.554 171.82 219.867 170.853 219.867 169.64C219.867 168.6 219.541 167.727 218.887 167.02C218.234 166.3 217.407 165.94 216.407 165.94C215.621 165.94 214.841 166.273 214.067 166.94C213.307 167.593 212.927 168.293 212.927 169.04V170.72C212.927 171.533 213.267 172.22 213.947 172.78C214.627 173.34 215.407 173.62 216.287 173.62ZM225.136 170.18C225.216 171.233 225.596 172.067 226.276 172.68C226.969 173.28 227.876 173.58 228.996 173.58C230.116 173.58 231.396 173.32 232.836 172.8L233.056 174.46C231.576 175.007 230.183 175.28 228.876 175.28C227.276 175.28 225.943 174.793 224.876 173.82C223.809 172.847 223.276 171.587 223.276 170.04C223.276 168.373 223.776 167.013 224.776 165.96C225.789 164.907 227.116 164.38 228.756 164.38C231.836 164.38 233.409 166.313 233.476 170.18H225.136ZM231.616 168.6C231.509 167.813 231.183 167.173 230.636 166.68C230.103 166.187 229.416 165.94 228.576 165.94C227.749 165.94 227.023 166.2 226.396 166.72C225.783 167.227 225.403 167.853 225.256 168.6H231.616ZM237.414 166.06C237.601 165.673 237.981 165.313 238.554 164.98C239.141 164.647 239.701 164.48 240.234 164.48C240.661 164.48 240.981 164.507 241.194 164.56V166.18C241.034 166.14 240.807 166.12 240.514 166.12C238.607 166.12 237.654 167.267 237.654 169.56V175H235.754V168.24C235.754 166.64 235.634 165.433 235.394 164.62H237.074C237.301 164.993 237.414 165.473 237.414 166.06ZM246.496 165.98C246.003 165.98 245.57 166.113 245.196 166.38C244.836 166.633 244.656 166.98 244.656 167.42C244.656 167.94 245.39 168.453 246.856 168.96C248.83 169.64 249.816 170.68 249.816 172.08C249.816 173.093 249.43 173.88 248.656 174.44C247.883 175 246.916 175.28 245.756 175.28C244.73 175.28 243.623 174.947 242.436 174.28L243.196 172.78C244.01 173.34 244.89 173.62 245.836 173.62C247.236 173.62 247.936 173.14 247.936 172.18C247.936 171.42 247.256 170.833 245.896 170.42C243.896 169.793 242.896 168.84 242.896 167.56C242.896 166.627 243.25 165.887 243.956 165.34C244.676 164.78 245.563 164.5 246.616 164.5C247.763 164.5 248.75 164.793 249.576 165.38L248.876 166.76C248.17 166.24 247.376 165.98 246.496 165.98ZM262.183 169.82C262.183 171.353 261.663 172.64 260.623 173.68C259.583 174.72 258.296 175.24 256.763 175.24C255.229 175.24 253.943 174.72 252.903 173.68C251.863 172.64 251.343 171.353 251.343 169.82C251.343 168.3 251.863 167.013 252.903 165.96C253.943 164.907 255.229 164.38 256.763 164.38C258.296 164.38 259.583 164.907 260.623 165.96C261.663 167.013 262.183 168.3 262.183 169.82ZM256.763 173.64C257.803 173.64 258.649 173.273 259.303 172.54C259.969 171.807 260.303 170.9 260.303 169.82C260.303 168.74 259.969 167.833 259.303 167.1C258.649 166.367 257.803 166 256.763 166C255.723 166 254.869 166.367 254.203 167.1C253.536 167.833 253.202 168.74 253.202 169.82C253.202 170.9 253.536 171.807 254.203 172.54C254.869 173.273 255.723 173.64 256.763 173.64ZM269.685 164.48C271.072 164.48 272.165 164.907 272.965 165.76C273.765 166.613 274.165 167.76 274.165 169.2V175H272.265V169.2C272.265 167.107 271.312 166.06 269.405 166.06C268.725 166.06 268.045 166.373 267.365 167C266.685 167.627 266.345 168.26 266.345 168.9V175H264.445V167.48C264.445 166.227 264.365 165.313 264.205 164.74H265.985C266.119 165.06 266.185 165.473 266.185 165.98C267.145 164.98 268.312 164.48 269.685 164.48ZM280.06 175.28C279.033 175.28 278.173 175 277.48 174.44C276.787 173.88 276.44 173.133 276.44 172.2C276.44 169.667 278.72 168.367 283.28 168.3C283.08 166.793 282.253 166.04 280.8 166.04C279.693 166.04 278.5 166.287 277.22 166.78L277.02 165.08C278.38 164.68 279.673 164.48 280.9 164.48C283.74 164.48 285.16 165.94 285.16 168.86V172.26C285.16 173.02 285.3 173.9 285.58 174.9L283.82 175.28L283.52 173.94C282.48 174.833 281.327 175.28 280.06 175.28ZM283.28 171.76V169.94C280 170.007 278.36 170.7 278.36 172.02C278.36 173.087 278.953 173.62 280.14 173.62C280.833 173.62 281.527 173.44 282.22 173.08C282.927 172.707 283.28 172.267 283.28 171.76ZM292.675 175.24C289.689 175.08 288.195 173.247 288.195 169.74V159.84H290.095V169.32C290.095 170.733 290.289 171.773 290.675 172.44C291.075 173.093 291.815 173.453 292.895 173.52L292.675 175.24ZM54.2263 204.48C55.613 204.48 56.7063 204.907 57.5063 205.76C58.3063 206.613 58.7063 207.76 58.7063 209.2V215H56.8063V209.2C56.8063 207.107 55.853 206.06 53.9463 206.06C53.2663 206.06 52.5863 206.373 51.9063 207C51.2263 207.627 50.8863 208.26 50.8863 208.9V215H48.9863V207.48C48.9863 206.227 48.9063 205.313 48.7463 204.74H50.5263C50.6597 205.06 50.7263 205.473 50.7263 205.98C51.6863 204.98 52.853 204.48 54.2263 204.48ZM62.8412 210.18C62.9212 211.233 63.3012 212.067 63.9812 212.68C64.6745 213.28 65.5812 213.58 66.7012 213.58C67.8212 213.58 69.1012 213.32 70.5412 212.8L70.7612 214.46C69.2812 215.007 67.8878 215.28 66.5812 215.28C64.9812 215.28 63.6478 214.793 62.5812 213.82C61.5145 212.847 60.9812 211.587 60.9812 210.04C60.9812 208.373 61.4812 207.013 62.4812 205.96C63.4945 204.907 64.8212 204.38 66.4612 204.38C69.5412 204.38 71.1145 206.313 71.1812 210.18H62.8412ZM69.3212 208.6C69.2145 207.813 68.8878 207.173 68.3412 206.68C67.8078 206.187 67.1212 205.94 66.2812 205.94C65.4545 205.94 64.7278 206.2 64.1012 206.72C63.4878 207.227 63.1078 207.853 62.9612 208.6H69.3212ZM74.659 209.82C74.659 210.94 74.9657 211.867 75.579 212.6C76.1923 213.32 77.019 213.68 78.059 213.68C79.059 213.68 80.0323 213.387 80.979 212.8L81.639 214.36C80.6523 214.973 79.479 215.28 78.119 215.28C76.519 215.28 75.219 214.773 74.219 213.76C73.2323 212.747 72.739 211.433 72.739 209.82C72.739 208.207 73.2323 206.9 74.219 205.9C75.219 204.887 76.519 204.38 78.119 204.38C79.479 204.38 80.6523 204.68 81.639 205.28L80.979 206.84C80.0457 206.267 79.0723 205.98 78.059 205.98C77.019 205.98 76.1923 206.347 75.579 207.08C74.9657 207.8 74.659 208.713 74.659 209.82ZM85.0287 210.18C85.1087 211.233 85.4887 212.067 86.1687 212.68C86.862 213.28 87.7687 213.58 88.8887 213.58C90.0087 213.58 91.2887 213.32 92.7287 212.8L92.9487 214.46C91.4687 215.007 90.0753 215.28 88.7687 215.28C87.1687 215.28 85.8353 214.793 84.7687 213.82C83.702 212.847 83.1687 211.587 83.1687 210.04C83.1687 208.373 83.6687 207.013 84.6687 205.96C85.682 204.907 87.0087 204.38 88.6487 204.38C91.7287 204.38 93.302 206.313 93.3687 210.18H85.0287ZM91.5087 208.6C91.402 207.813 91.0753 207.173 90.5287 206.68C89.9953 206.187 89.3087 205.94 88.4687 205.94C87.642 205.94 86.9153 206.2 86.2887 206.72C85.6753 207.227 85.2953 207.853 85.1487 208.6H91.5087ZM98.9865 205.98C98.4932 205.98 98.0598 206.113 97.6865 206.38C97.3265 206.633 97.1465 206.98 97.1465 207.42C97.1465 207.94 97.8798 208.453 99.3465 208.96C101.32 209.64 102.306 210.68 102.306 212.08C102.306 213.093 101.92 213.88 101.146 214.44C100.373 215 99.4065 215.28 98.2465 215.28C97.2198 215.28 96.1132 214.947 94.9265 214.28L95.6865 212.78C96.4998 213.34 97.3798 213.62 98.3265 213.62C99.7265 213.62 100.426 213.14 100.426 212.18C100.426 211.42 99.7465 210.833 98.3865 210.42C96.3865 209.793 95.3865 208.84 95.3865 207.56C95.3865 206.627 95.7398 205.887 96.4465 205.34C97.1665 204.78 98.0532 204.5 99.1065 204.5C100.253 204.5 101.24 204.793 102.066 205.38L101.366 206.76C100.66 206.24 99.8665 205.98 98.9865 205.98ZM107.453 215.28C106.426 215.28 105.566 215 104.873 214.44C104.179 213.88 103.833 213.133 103.833 212.2C103.833 209.667 106.113 208.367 110.673 208.3C110.473 206.793 109.646 206.04 108.193 206.04C107.086 206.04 105.893 206.287 104.613 206.78L104.413 205.08C105.773 204.68 107.066 204.48 108.293 204.48C111.133 204.48 112.553 205.94 112.553 208.86V212.26C112.553 213.02 112.693 213.9 112.973 214.9L111.213 215.28L110.913 213.94C109.873 214.833 108.719 215.28 107.453 215.28ZM110.673 211.76V209.94C107.393 210.007 105.753 210.7 105.753 212.02C105.753 213.087 106.346 213.62 107.533 213.62C108.226 213.62 108.919 213.44 109.613 213.08C110.319 212.707 110.673 212.267 110.673 211.76ZM117.248 206.06C117.435 205.673 117.815 205.313 118.388 204.98C118.975 204.647 119.535 204.48 120.068 204.48C120.495 204.48 120.815 204.507 121.028 204.56V206.18C120.868 206.14 120.641 206.12 120.348 206.12C118.441 206.12 117.488 207.267 117.488 209.56V215H115.588V208.24C115.588 206.64 115.468 205.433 115.228 204.62H116.908C117.135 204.993 117.248 205.473 117.248 206.06ZM124.89 215H122.99V204.78H124.89V215ZM123.89 200.32C124.29 200.32 124.63 200.46 124.91 200.74C125.204 201.02 125.35 201.36 125.35 201.76C125.35 202.16 125.204 202.5 124.91 202.78C124.63 203.06 124.29 203.2 123.89 203.2C123.49 203.2 123.15 203.06 122.87 202.78C122.59 202.5 122.45 202.16 122.45 201.76C122.45 201.36 122.59 201.02 122.87 200.74C123.15 200.46 123.49 200.32 123.89 200.32ZM138.013 209.82C138.013 211.353 137.493 212.64 136.453 213.68C135.413 214.72 134.126 215.24 132.593 215.24C131.059 215.24 129.773 214.72 128.733 213.68C127.693 212.64 127.173 211.353 127.173 209.82C127.173 208.3 127.693 207.013 128.733 205.96C129.773 204.907 131.059 204.38 132.593 204.38C134.126 204.38 135.413 204.907 136.453 205.96C137.493 207.013 138.013 208.3 138.013 209.82ZM132.593 213.64C133.633 213.64 134.479 213.273 135.133 212.54C135.799 211.807 136.133 210.9 136.133 209.82C136.133 208.74 135.799 207.833 135.133 207.1C134.479 206.367 133.633 206 132.593 206C131.553 206 130.699 206.367 130.033 207.1C129.366 207.833 129.033 208.74 129.033 209.82C129.033 210.9 129.366 211.807 130.033 212.54C130.699 213.273 131.553 213.64 132.593 213.64ZM146.513 219.54L146.033 217.98C147.819 217.58 149.133 216.333 149.973 214.24L145.433 204.78H147.513L151.053 212.36L154.433 204.78H156.513L151.813 214.78C150.546 217.447 148.779 219.033 146.513 219.54ZM169.329 215H167.829L163.069 204.78H165.049L168.569 212.66L172.089 204.78H174.089L169.329 215ZM176.591 210.18C176.671 211.233 177.051 212.067 177.731 212.68C178.425 213.28 179.331 213.58 180.451 213.58C181.571 213.58 182.851 213.32 184.291 212.8L184.511 214.46C183.031 215.007 181.638 215.28 180.331 215.28C178.731 215.28 177.398 214.793 176.331 213.82C175.265 212.847 174.731 211.587 174.731 210.04C174.731 208.373 175.231 207.013 176.231 205.96C177.245 204.907 178.571 204.38 180.211 204.38C183.291 204.38 184.865 206.313 184.931 210.18H176.591ZM183.071 208.6C182.965 207.813 182.638 207.173 182.091 206.68C181.558 206.187 180.871 205.94 180.031 205.94C179.205 205.94 178.478 206.2 177.851 206.72C177.238 207.227 176.858 207.853 176.711 208.6H183.071ZM188.869 206.06C189.056 205.673 189.436 205.313 190.009 204.98C190.596 204.647 191.156 204.48 191.689 204.48C192.116 204.48 192.436 204.507 192.649 204.56V206.18C192.489 206.14 192.262 206.12 191.969 206.12C190.062 206.12 189.109 207.267 189.109 209.56V215H187.209V208.24C187.209 206.64 187.089 205.433 186.849 204.62H188.529C188.756 204.993 188.869 205.473 188.869 206.06ZM196.511 215H194.611V204.78H196.511V215ZM195.511 200.32C195.911 200.32 196.251 200.46 196.531 200.74C196.825 201.02 196.971 201.36 196.971 201.76C196.971 202.16 196.825 202.5 196.531 202.78C196.251 203.06 195.911 203.2 195.511 203.2C195.111 203.2 194.771 203.06 194.491 202.78C194.211 202.5 194.071 202.16 194.071 201.76C194.071 201.36 194.211 201.02 194.491 200.74C194.771 200.46 195.111 200.32 195.511 200.32ZM200.274 204.78C200.274 203.22 200.687 201.973 201.514 201.04C202.34 200.093 203.48 199.62 204.934 199.62C206.374 199.62 207.554 200.167 208.474 201.26L207.494 202.6C206.72 201.707 205.847 201.26 204.874 201.26C204.047 201.26 203.38 201.613 202.874 202.32C202.38 203.013 202.134 203.833 202.134 204.78H208.794V215H206.894V206.34H202.134V215H200.234V206.34H198.534V204.78H200.274ZM212.901 209.82C212.901 210.94 213.208 211.867 213.821 212.6C214.435 213.32 215.261 213.68 216.301 213.68C217.301 213.68 218.275 213.387 219.221 212.8L219.881 214.36C218.895 214.973 217.721 215.28 216.361 215.28C214.761 215.28 213.461 214.773 212.461 213.76C211.475 212.747 210.981 211.433 210.981 209.82C210.981 208.207 211.475 206.9 212.461 205.9C213.461 204.887 214.761 204.38 216.361 204.38C217.721 204.38 218.895 204.68 219.881 205.28L219.221 206.84C218.288 206.267 217.315 205.98 216.301 205.98C215.261 205.98 214.435 206.347 213.821 207.08C213.208 207.8 212.901 208.713 212.901 209.82ZM225.031 215.28C224.004 215.28 223.144 215 222.451 214.44C221.758 213.88 221.411 213.133 221.411 212.2C221.411 209.667 223.691 208.367 228.251 208.3C228.051 206.793 227.224 206.04 225.771 206.04C224.664 206.04 223.471 206.287 222.191 206.78L221.991 205.08C223.351 204.68 224.644 204.48 225.871 204.48C228.711 204.48 230.131 205.94 230.131 208.86V212.26C230.131 213.02 230.271 213.9 230.551 214.9L228.791 215.28L228.491 213.94C227.451 214.833 226.298 215.28 225.031 215.28ZM228.251 211.76V209.94C224.971 210.007 223.331 210.7 223.331 212.02C223.331 213.087 223.924 213.62 225.111 213.62C225.804 213.62 226.498 213.44 227.191 213.08C227.898 212.707 228.251 212.267 228.251 211.76ZM234.826 206.06C235.013 205.673 235.393 205.313 235.966 204.98C236.553 204.647 237.113 204.48 237.646 204.48C238.073 204.48 238.393 204.507 238.606 204.56V206.18C238.446 206.14 238.219 206.12 237.926 206.12C236.019 206.12 235.066 207.267 235.066 209.56V215H233.166V208.24C233.166 206.64 233.046 205.433 232.806 204.62H234.486C234.713 204.993 234.826 205.473 234.826 206.06ZM257.306 219.3H255.406V214.04C254.512 214.867 253.372 215.28 251.986 215.28C250.426 215.28 249.139 214.74 248.126 213.66C247.126 212.58 246.626 211.233 246.626 209.62C246.626 208.14 247.112 206.9 248.086 205.9C249.059 204.887 250.279 204.38 251.746 204.38C253.092 204.38 254.292 204.82 255.346 205.7L255.566 204.6H257.426C257.346 205.267 257.306 206.427 257.306 208.08V219.3ZM248.466 209.64C248.466 210.853 248.779 211.82 249.406 212.54C250.032 213.26 250.912 213.62 252.046 213.62C252.952 213.62 253.739 213.347 254.406 212.8C255.072 212.24 255.406 211.547 255.406 210.72V209.04C255.406 208.28 255.026 207.573 254.266 206.92C253.506 206.267 252.726 205.94 251.926 205.94C250.926 205.94 250.099 206.3 249.446 207.02C248.792 207.727 248.466 208.6 248.466 209.64ZM270.514 214.88L268.674 215.24C268.474 214.76 268.294 214.18 268.134 213.5C266.921 214.687 265.728 215.28 264.554 215.28C261.728 215.28 260.314 213.64 260.314 210.36V204.78H262.214V210.18C262.214 212.447 263.074 213.58 264.794 213.58C265.541 213.58 266.261 213.3 266.954 212.74C267.648 212.167 267.994 211.527 267.994 210.82V204.78H269.894V212.26C269.894 212.967 270.101 213.84 270.514 214.88ZM274.013 210.18C274.093 211.233 274.473 212.067 275.153 212.68C275.846 213.28 276.753 213.58 277.873 213.58C278.993 213.58 280.273 213.32 281.713 212.8L281.933 214.46C280.453 215.007 279.06 215.28 277.753 215.28C276.153 215.28 274.82 214.793 273.753 213.82C272.686 212.847 272.153 211.587 272.153 210.04C272.153 208.373 272.653 207.013 273.653 205.96C274.666 204.907 275.993 204.38 277.633 204.38C280.713 204.38 282.286 206.313 282.353 210.18H274.013ZM280.493 208.6C280.386 207.813 280.06 207.173 279.513 206.68C278.98 206.187 278.293 205.94 277.453 205.94C276.626 205.94 275.9 206.2 275.273 206.72C274.66 207.227 274.28 207.853 274.133 208.6H280.493ZM295.208 215.28C294.262 215.28 293.528 214.96 293.008 214.32C292.488 213.667 292.228 212.82 292.228 211.78V206.34H290.188V204.78H292.228V201.98L294.128 201.16V204.78H297.408V206.34H294.128V211.76C294.128 212.973 294.515 213.58 295.288 213.58C295.808 213.58 296.368 213.473 296.968 213.26L297.188 214.84C296.495 215.133 295.835 215.28 295.208 215.28ZM309.282 209.82C309.282 211.353 308.762 212.64 307.722 213.68C306.682 214.72 305.395 215.24 303.862 215.24C302.329 215.24 301.042 214.72 300.002 213.68C298.962 212.64 298.442 211.353 298.442 209.82C298.442 208.3 298.962 207.013 300.002 205.96C301.042 204.907 302.329 204.38 303.862 204.38C305.395 204.38 306.682 204.907 307.722 205.96C308.762 207.013 309.282 208.3 309.282 209.82ZM303.862 213.64C304.902 213.64 305.749 213.273 306.402 212.54C307.069 211.807 307.402 210.9 307.402 209.82C307.402 208.74 307.069 207.833 306.402 207.1C305.749 206.367 304.902 206 303.862 206C302.822 206 301.969 206.367 301.302 207.1C300.635 207.833 300.302 208.74 300.302 209.82C300.302 210.9 300.635 211.807 301.302 212.54C301.969 213.273 302.822 213.64 303.862 213.64ZM321.625 215H319.825C319.758 214.76 319.725 214.387 319.725 213.88C318.765 214.813 317.552 215.28 316.085 215.28C314.565 215.28 313.305 214.76 312.305 213.72C311.318 212.667 310.825 211.32 310.825 209.68C310.825 208.133 311.305 206.867 312.265 205.88C313.238 204.88 314.465 204.38 315.945 204.38C317.438 204.38 318.658 204.853 319.605 205.8V199.84H321.505V212.26C321.505 213.1 321.545 214.013 321.625 215ZM316.245 213.62C317.192 213.62 317.985 213.407 318.625 212.98C319.278 212.54 319.605 211.92 319.605 211.12V208.78C319.605 208.033 319.225 207.373 318.465 206.8C317.718 206.227 316.938 205.94 316.125 205.94C315.098 205.94 314.265 206.293 313.625 207C312.998 207.707 312.685 208.6 312.685 209.68C312.685 210.88 312.992 211.84 313.605 212.56C314.232 213.267 315.112 213.62 316.245 213.62ZM334.751 209.82C334.751 211.353 334.231 212.64 333.191 213.68C332.151 214.72 330.864 215.24 329.331 215.24C327.798 215.24 326.511 214.72 325.471 213.68C324.431 212.64 323.911 211.353 323.911 209.82C323.911 208.3 324.431 207.013 325.471 205.96C326.511 204.907 327.798 204.38 329.331 204.38C330.864 204.38 332.151 204.907 333.191 205.96C334.231 207.013 334.751 208.3 334.751 209.82ZM329.331 213.64C330.371 213.64 331.218 213.273 331.871 212.54C332.538 211.807 332.871 210.9 332.871 209.82C332.871 208.74 332.538 207.833 331.871 207.1C331.218 206.367 330.371 206 329.331 206C328.291 206 327.438 206.367 326.771 207.1C326.104 207.833 325.771 208.74 325.771 209.82C325.771 210.9 326.104 211.807 326.771 212.54C327.438 213.273 328.291 213.64 329.331 213.64ZM78.8329 255H76.9329V246.34H75.2329V244.78H76.9729C76.9729 241.34 78.3062 239.62 80.9729 239.62C81.8129 239.62 82.5262 239.84 83.1129 240.28L82.5729 241.7C81.8929 241.407 81.3396 241.26 80.9129 241.26C79.5262 241.26 78.8329 242.433 78.8329 244.78H81.7529V246.34H78.8329V255ZM94.0496 254.88L92.2096 255.24C92.0096 254.76 91.8296 254.18 91.6696 253.5C90.4563 254.687 89.2629 255.28 88.0896 255.28C85.2629 255.28 83.8496 253.64 83.8496 250.36V244.78H85.7496V250.18C85.7496 252.447 86.6096 253.58 88.3296 253.58C89.0763 253.58 89.7963 253.3 90.4896 252.74C91.1829 252.167 91.5296 251.527 91.5296 250.82V244.78H93.4296V252.26C93.4296 252.967 93.6363 253.84 94.0496 254.88ZM101.648 244.48C103.035 244.48 104.128 244.907 104.928 245.76C105.728 246.613 106.128 247.76 106.128 249.2V255H104.228V249.2C104.228 247.107 103.275 246.06 101.368 246.06C100.688 246.06 100.008 246.373 99.3282 247C98.6482 247.627 98.3082 248.26 98.3082 248.9V255H96.4082V247.48C96.4082 246.227 96.3282 245.313 96.1682 244.74H97.9482C98.0815 245.06 98.1482 245.473 98.1482 245.98C99.1082 244.98 100.275 244.48 101.648 244.48ZM110.323 249.82C110.323 250.94 110.63 251.867 111.243 252.6C111.856 253.32 112.683 253.68 113.723 253.68C114.723 253.68 115.696 253.387 116.643 252.8L117.303 254.36C116.316 254.973 115.143 255.28 113.783 255.28C112.183 255.28 110.883 254.773 109.883 253.76C108.896 252.747 108.403 251.433 108.403 249.82C108.403 248.207 108.896 246.9 109.883 245.9C110.883 244.887 112.183 244.38 113.783 244.38C115.143 244.38 116.316 244.68 117.303 245.28L116.643 246.84C115.71 246.267 114.736 245.98 113.723 245.98C112.683 245.98 111.856 246.347 111.243 247.08C110.63 247.8 110.323 248.713 110.323 249.82ZM121.453 255H119.553V244.78H121.453V255ZM120.453 240.32C120.853 240.32 121.193 240.46 121.473 240.74C121.766 241.02 121.913 241.36 121.913 241.76C121.913 242.16 121.766 242.5 121.473 242.78C121.193 243.06 120.853 243.2 120.453 243.2C120.053 243.2 119.713 243.06 119.433 242.78C119.153 242.5 119.013 242.16 119.013 241.76C119.013 241.36 119.153 241.02 119.433 240.74C119.713 240.46 120.053 240.32 120.453 240.32ZM134.575 249.82C134.575 251.353 134.055 252.64 133.015 253.68C131.975 254.72 130.688 255.24 129.155 255.24C127.622 255.24 126.335 254.72 125.295 253.68C124.255 252.64 123.735 251.353 123.735 249.82C123.735 248.3 124.255 247.013 125.295 245.96C126.335 244.907 127.622 244.38 129.155 244.38C130.688 244.38 131.975 244.907 133.015 245.96C134.055 247.013 134.575 248.3 134.575 249.82ZM129.155 253.64C130.195 253.64 131.042 253.273 131.695 252.54C132.362 251.807 132.695 250.9 132.695 249.82C132.695 248.74 132.362 247.833 131.695 247.1C131.042 246.367 130.195 246 129.155 246C128.115 246 127.262 246.367 126.595 247.1C125.928 247.833 125.595 248.74 125.595 249.82C125.595 250.9 125.928 251.807 126.595 252.54C127.262 253.273 128.115 253.64 129.155 253.64ZM142.078 244.48C143.465 244.48 144.558 244.907 145.358 245.76C146.158 246.613 146.558 247.76 146.558 249.2V255H144.658V249.2C144.658 247.107 143.705 246.06 141.798 246.06C141.118 246.06 140.438 246.373 139.758 247C139.078 247.627 138.738 248.26 138.738 248.9V255H136.838V247.48C136.838 246.227 136.758 245.313 136.598 244.74H138.378C138.511 245.06 138.578 245.473 138.578 245.98C139.538 244.98 140.705 244.48 142.078 244.48ZM150.693 250.18C150.773 251.233 151.153 252.067 151.833 252.68C152.526 253.28 153.433 253.58 154.553 253.58C155.673 253.58 156.953 253.32 158.393 252.8L158.613 254.46C157.133 255.007 155.739 255.28 154.433 255.28C152.833 255.28 151.499 254.793 150.433 253.82C149.366 252.847 148.833 251.587 148.833 250.04C148.833 248.373 149.333 247.013 150.333 245.96C151.346 244.907 152.673 244.38 154.313 244.38C157.393 244.38 158.966 246.313 159.033 250.18H150.693ZM157.173 248.6C157.066 247.813 156.739 247.173 156.193 246.68C155.659 246.187 154.973 245.94 154.133 245.94C153.306 245.94 152.579 246.2 151.953 246.72C151.339 247.227 150.959 247.853 150.813 248.6H157.173ZM169.288 249.82C169.288 250.94 169.595 251.867 170.208 252.6C170.821 253.32 171.648 253.68 172.688 253.68C173.688 253.68 174.661 253.387 175.608 252.8L176.268 254.36C175.281 254.973 174.108 255.28 172.748 255.28C171.148 255.28 169.848 254.773 168.848 253.76C167.861 252.747 167.368 251.433 167.368 249.82C167.368 248.207 167.861 246.9 168.848 245.9C169.848 244.887 171.148 244.38 172.748 244.38C174.108 244.38 175.281 244.68 176.268 245.28L175.608 246.84C174.675 246.267 173.701 245.98 172.688 245.98C171.648 245.98 170.821 246.347 170.208 247.08C169.595 247.8 169.288 248.713 169.288 249.82ZM188.638 249.82C188.638 251.353 188.118 252.64 187.078 253.68C186.038 254.72 184.751 255.24 183.218 255.24C181.684 255.24 180.398 254.72 179.358 253.68C178.318 252.64 177.798 251.353 177.798 249.82C177.798 248.3 178.318 247.013 179.358 245.96C180.398 244.907 181.684 244.38 183.218 244.38C184.751 244.38 186.038 244.907 187.078 245.96C188.118 247.013 188.638 248.3 188.638 249.82ZM183.218 253.64C184.258 253.64 185.104 253.273 185.758 252.54C186.424 251.807 186.758 250.9 186.758 249.82C186.758 248.74 186.424 247.833 185.758 247.1C185.104 246.367 184.258 246 183.218 246C182.178 246 181.324 246.367 180.658 247.1C179.991 247.833 179.658 248.74 179.658 249.82C179.658 250.9 179.991 251.807 180.658 252.54C181.324 253.273 182.178 253.64 183.218 253.64ZM192.56 246.06C192.747 245.673 193.127 245.313 193.7 244.98C194.287 244.647 194.847 244.48 195.38 244.48C195.807 244.48 196.127 244.507 196.34 244.56V246.18C196.18 246.14 195.954 246.12 195.66 246.12C193.754 246.12 192.8 247.267 192.8 249.56V255H190.9V248.24C190.9 246.64 190.78 245.433 190.54 244.62H192.22C192.447 244.993 192.56 245.473 192.56 246.06ZM199.963 246.06C200.149 245.673 200.529 245.313 201.103 244.98C201.689 244.647 202.249 244.48 202.783 244.48C203.209 244.48 203.529 244.507 203.743 244.56V246.18C203.583 246.14 203.356 246.12 203.063 246.12C201.156 246.12 200.203 247.267 200.203 249.56V255H198.303V248.24C198.303 246.64 198.183 245.433 197.943 244.62H199.623C199.849 244.993 199.963 245.473 199.963 246.06ZM206.845 250.18C206.925 251.233 207.305 252.067 207.985 252.68C208.678 253.28 209.585 253.58 210.705 253.58C211.825 253.58 213.105 253.32 214.545 252.8L214.765 254.46C213.285 255.007 211.892 255.28 210.585 255.28C208.985 255.28 207.652 254.793 206.585 253.82C205.518 252.847 204.985 251.587 204.985 250.04C204.985 248.373 205.485 247.013 206.485 245.96C207.498 244.907 208.825 244.38 210.465 244.38C213.545 244.38 215.118 246.313 215.185 250.18H206.845ZM213.325 248.6C213.218 247.813 212.892 247.173 212.345 246.68C211.812 246.187 211.125 245.94 210.285 245.94C209.458 245.94 208.732 246.2 208.105 246.72C207.492 247.227 207.112 247.853 206.965 248.6H213.325ZM218.663 249.82C218.663 250.94 218.97 251.867 219.583 252.6C220.196 253.32 221.023 253.68 222.063 253.68C223.063 253.68 224.036 253.387 224.983 252.8L225.643 254.36C224.656 254.973 223.483 255.28 222.123 255.28C220.523 255.28 219.223 254.773 218.223 253.76C217.236 252.747 216.743 251.433 216.743 249.82C216.743 248.207 217.236 246.9 218.223 245.9C219.223 244.887 220.523 244.38 222.123 244.38C223.483 244.38 224.656 244.68 225.643 245.28L224.983 246.84C224.05 246.267 223.076 245.98 222.063 245.98C221.023 245.98 220.196 246.347 219.583 247.08C218.97 247.8 218.663 248.713 218.663 249.82ZM231.693 255.28C230.746 255.28 230.013 254.96 229.493 254.32C228.973 253.667 228.713 252.82 228.713 251.78V246.34H226.673V244.78H228.713V241.98L230.613 241.16V244.78H233.893V246.34H230.613V251.76C230.613 252.973 230.999 253.58 231.773 253.58C232.293 253.58 232.853 253.473 233.453 253.26L233.673 254.84C232.979 255.133 232.319 255.28 231.693 255.28ZM238.546 255.28C237.52 255.28 236.66 255 235.966 254.44C235.273 253.88 234.926 253.133 234.926 252.2C234.926 249.667 237.206 248.367 241.766 248.3C241.566 246.793 240.74 246.04 239.286 246.04C238.18 246.04 236.986 246.287 235.706 246.78L235.506 245.08C236.866 244.68 238.16 244.48 239.386 244.48C242.226 244.48 243.646 245.94 243.646 248.86V252.26C243.646 253.02 243.786 253.9 244.066 254.9L242.306 255.28L242.006 253.94C240.966 254.833 239.813 255.28 238.546 255.28ZM241.766 251.76V249.94C238.486 250.007 236.846 250.7 236.846 252.02C236.846 253.087 237.44 253.62 238.626 253.62C239.32 253.62 240.013 253.44 240.706 253.08C241.413 252.707 241.766 252.267 241.766 251.76ZM258.742 244.48C259.982 244.48 260.968 244.947 261.702 245.88C262.435 246.8 262.802 247.947 262.802 249.32V255H260.922V249.34C260.922 248.42 260.695 247.647 260.242 247.02C259.788 246.38 259.168 246.06 258.382 246.06C257.728 246.06 257.115 246.32 256.542 246.84C255.968 247.347 255.682 247.913 255.682 248.54V255H253.782V248.84C253.782 246.987 253.008 246.06 251.462 246.06C250.795 246.06 250.148 246.367 249.522 246.98C248.895 247.593 248.582 248.233 248.582 248.9V255H246.682V247.48C246.682 246.227 246.602 245.313 246.442 244.74H248.222C248.355 245.06 248.422 245.453 248.422 245.92C248.688 245.547 249.148 245.213 249.802 244.92C250.455 244.627 251.088 244.48 251.702 244.48C253.008 244.48 254.075 245.04 254.902 246.16C255.968 245.04 257.248 244.48 258.742 244.48ZM266.943 250.18C267.023 251.233 267.403 252.067 268.083 252.68C268.776 253.28 269.683 253.58 270.803 253.58C271.923 253.58 273.203 253.32 274.643 252.8L274.863 254.46C273.383 255.007 271.989 255.28 270.683 255.28C269.083 255.28 267.749 254.793 266.683 253.82C265.616 252.847 265.083 251.587 265.083 250.04C265.083 248.373 265.583 247.013 266.583 245.96C267.596 244.907 268.923 244.38 270.563 244.38C273.643 244.38 275.216 246.313 275.283 250.18H266.943ZM273.423 248.6C273.316 247.813 272.989 247.173 272.443 246.68C271.909 246.187 271.223 245.94 270.383 245.94C269.556 245.94 268.829 246.2 268.203 246.72C267.589 247.227 267.209 247.853 267.063 248.6H273.423ZM282.801 244.48C284.187 244.48 285.281 244.907 286.081 245.76C286.881 246.613 287.281 247.76 287.281 249.2V255H285.381V249.2C285.381 247.107 284.427 246.06 282.521 246.06C281.841 246.06 281.161 246.373 280.481 247C279.801 247.627 279.461 248.26 279.461 248.9V255H277.561V247.48C277.561 246.227 277.481 245.313 277.321 244.74H279.101C279.234 245.06 279.301 245.473 279.301 245.98C280.261 244.98 281.427 244.48 282.801 244.48ZM294.075 255.28C293.129 255.28 292.395 254.96 291.875 254.32C291.355 253.667 291.095 252.82 291.095 251.78V246.34H289.055V244.78H291.095V241.98L292.995 241.16V244.78H296.275V246.34H292.995V251.76C292.995 252.973 293.382 253.58 294.155 253.58C294.675 253.58 295.235 253.473 295.835 253.26L296.055 254.84C295.362 255.133 294.702 255.28 294.075 255.28ZM299.169 250.18C299.249 251.233 299.629 252.067 300.309 252.68C301.003 253.28 301.909 253.58 303.029 253.58C304.149 253.58 305.429 253.32 306.869 252.8L307.089 254.46C305.609 255.007 304.216 255.28 302.909 255.28C301.309 255.28 299.976 254.793 298.909 253.82C297.843 252.847 297.309 251.587 297.309 250.04C297.309 248.373 297.809 247.013 298.809 245.96C299.823 244.907 301.149 244.38 302.789 244.38C305.869 244.38 307.443 246.313 307.509 250.18H299.169ZM305.649 248.6C305.543 247.813 305.216 247.173 304.669 246.68C304.136 246.187 303.449 245.94 302.609 245.94C301.783 245.94 301.056 246.2 300.429 246.72C299.816 247.227 299.436 247.853 299.289 248.6H305.649Z" fill="#565555"/>
<path d="M129.835 45.66C133.709 45.66 136.684 46.7217 138.76 48.845C140.837 50.9683 141.875 54.0017 141.875 57.945C141.875 62.1917 140.744 65.47 138.48 67.78C136.217 70.0667 132.985 71.21 128.785 71.21C127.315 71.21 124.959 71.035 121.715 70.685V46.36C125.799 45.8933 128.505 45.66 129.835 45.66ZM138.515 57.945C138.515 51.6683 135.564 48.53 129.66 48.53C128.68 48.53 127.14 48.635 125.04 48.845V68.2C126.324 68.3167 127.782 68.375 129.415 68.375C132.379 68.375 134.63 67.4417 136.17 65.575C137.734 63.7083 138.515 61.165 138.515 57.945ZM149.205 71H145.88V53.115H149.205V71ZM147.455 45.31C148.155 45.31 148.75 45.555 149.24 46.045C149.754 46.535 150.01 47.13 150.01 47.83C150.01 48.53 149.754 49.125 149.24 49.615C148.75 50.105 148.155 50.35 147.455 50.35C146.755 50.35 146.16 50.105 145.67 49.615C145.18 49.125 144.935 48.53 144.935 47.83C144.935 47.13 145.18 46.535 145.67 46.045C146.16 45.555 146.755 45.31 147.455 45.31ZM157.364 55.355C157.691 54.6783 158.356 54.0483 159.359 53.465C160.386 52.8817 161.366 52.59 162.299 52.59C163.046 52.59 163.606 52.6367 163.979 52.73V55.565C163.699 55.495 163.303 55.46 162.789 55.46C159.453 55.46 157.784 57.4667 157.784 61.48V71H154.459V59.17C154.459 56.37 154.249 54.2583 153.829 52.835H156.769C157.166 53.4883 157.364 54.3283 157.364 55.355ZM169.409 62.565C169.549 64.4083 170.214 65.8667 171.404 66.94C172.617 67.99 174.204 68.515 176.164 68.515C178.124 68.515 180.364 68.06 182.884 67.15L183.269 70.055C180.679 71.0117 178.24 71.49 175.954 71.49C173.154 71.49 170.82 70.6383 168.954 68.935C167.087 67.2317 166.154 65.0267 166.154 62.32C166.154 59.4033 167.029 57.0233 168.779 55.18C170.552 53.3367 172.874 52.415 175.744 52.415C181.134 52.415 183.887 55.7983 184.004 62.565H169.409ZM180.749 59.8C180.562 58.4233 179.99 57.3033 179.034 56.44C178.1 55.5767 176.899 55.145 175.429 55.145C173.982 55.145 172.71 55.6 171.614 56.51C170.54 57.3967 169.875 58.4933 169.619 59.8H180.749ZM190.09 61.935C190.09 63.895 190.626 65.5167 191.7 66.8C192.773 68.06 194.22 68.69 196.04 68.69C197.79 68.69 199.493 68.1767 201.15 67.15L202.305 69.88C200.578 70.9533 198.525 71.49 196.145 71.49C193.345 71.49 191.07 70.6033 189.32 68.83C187.593 67.0567 186.73 64.7583 186.73 61.935C186.73 59.1117 187.593 56.825 189.32 55.075C191.07 53.3017 193.345 52.415 196.145 52.415C198.525 52.415 200.578 52.94 202.305 53.99L201.15 56.72C199.516 55.7167 197.813 55.215 196.04 55.215C194.22 55.215 192.773 55.8567 191.7 57.14C190.626 58.4 190.09 59.9983 190.09 61.935ZM212.892 71.49C211.235 71.49 209.952 70.93 209.042 69.81C208.132 68.6667 207.677 67.185 207.677 65.365V55.845H204.107V53.115H207.677V48.215L211.002 46.78V53.115H216.742V55.845H211.002V65.33C211.002 67.4533 211.678 68.515 213.032 68.515C213.942 68.515 214.922 68.3283 215.972 67.955L216.357 70.72C215.143 71.2333 213.988 71.49 212.892 71.49ZM223.136 71H219.811V53.115H223.136V71ZM221.386 45.31C222.086 45.31 222.681 45.555 223.171 46.045C223.684 46.535 223.941 47.13 223.941 47.83C223.941 48.53 223.684 49.125 223.171 49.615C222.681 50.105 222.086 50.35 221.386 50.35C220.686 50.35 220.091 50.105 219.601 49.615C219.111 49.125 218.866 48.53 218.866 47.83C218.866 47.13 219.111 46.535 219.601 46.045C220.091 45.555 220.686 45.31 221.386 45.31ZM236.51 71H233.885L225.555 53.115H229.02L235.18 66.905L241.34 53.115H244.84L236.51 71ZM252.298 71.49C250.501 71.49 248.996 71 247.783 70.02C246.57 69.04 245.963 67.7333 245.963 66.1C245.963 61.6667 249.953 59.3917 257.933 59.275C257.583 56.6383 256.136 55.32 253.593 55.32C251.656 55.32 249.568 55.7517 247.328 56.615L246.978 53.64C249.358 52.94 251.621 52.59 253.768 52.59C258.738 52.59 261.223 55.145 261.223 60.255V66.205C261.223 67.535 261.468 69.075 261.958 70.825L258.878 71.49L258.353 69.145C256.533 70.7083 254.515 71.49 252.298 71.49ZM257.933 65.33V62.145C252.193 62.2617 249.323 63.475 249.323 65.785C249.323 67.6517 250.361 68.585 252.438 68.585C253.651 68.585 254.865 68.27 256.078 67.64C257.315 66.9867 257.933 66.2167 257.933 65.33Z" fill="#27AE60"/>
<g clip-path="url(#clip0_29_945)" filter="url(#filter1_i_29_945)">
<path d="M81.0671 289.19C84.4848 287.596 88.6809 287.073 92.1584 288.554C95.636 290.035 98.0068 293.832 96.8823 297.192C96.3725 298.715 95.2113 300.214 95.6637 301.752C96.0119 302.936 97.2266 303.718 98.4195 304.274C99.6124 304.83 100.917 305.297 101.78 306.235C102.643 307.173 102.823 308.787 101.745 309.514C101.39 309.754 100.946 309.867 100.602 310.12C100.308 310.359 100.097 310.683 99.9962 311.049C99.8957 311.414 99.9114 311.802 100.041 312.158C100.328 312.874 100.802 313.5 101.414 313.969C102.637 315.027 104.254 316.237 103.874 317.739C103.734 318.14 103.498 318.502 103.188 318.792C102.878 319.083 102.503 319.294 102.094 319.409C101.245 319.654 100.364 319.771 99.4807 319.754L63.3797 320.895C62.188 320.984 60.9897 320.917 59.8154 320.695C59.2445 320.591 58.7013 320.369 58.2197 320.045C57.738 319.72 57.3283 319.3 57.0161 318.81C56.3247 317.527 56.7786 315.946 57.6324 314.748C58.4861 313.55 59.6944 312.605 60.6928 311.505C61.6912 310.405 62.5081 309.032 62.3321 307.61C62.1912 306.472 61.4425 305.488 60.9051 304.454C60.3676 303.42 60.0555 302.128 60.7515 301.177C61.7324 299.836 64.0873 299.957 65.2026 298.708C66.0442 297.765 65.8817 296.408 65.9654 295.193C66.1667 292.268 68.1859 289.507 71.0604 288.224C72.5221 287.595 74.112 287.324 75.699 287.432C77.286 287.541 78.8245 288.026 80.1876 288.848L81.0671 289.19Z" fill="#2F2E41"/>
<path d="M102.917 468.868L108.571 467.164L104.709 444.488L96.3644 447.002L102.917 468.868Z" fill="#A0616A"/>
<path d="M103.122 474.797L121.353 469.305L121.284 469.074C121.004 468.14 120.543 467.27 119.928 466.514C119.312 465.758 118.555 465.131 117.698 464.669C116.841 464.207 115.902 463.919 114.933 463.82C113.965 463.722 112.987 463.816 112.056 464.097L112.055 464.097L100.92 467.451L103.122 474.797Z" fill="#2F2E41"/>
<path d="M49.5611 469.059L55.4651 469.059L58.2736 446.228L49.5601 446.228L49.5611 469.059Z" fill="#A0616A"/>
<path d="M48.0558 474.797L67.0922 474.796V474.555C67.0922 473.579 66.9006 472.613 66.5282 471.712C66.1559 470.811 65.6101 469.992 64.922 469.302C64.234 468.612 63.4172 468.065 62.5182 467.692C61.6192 467.318 60.6557 467.126 59.6827 467.126H59.6822L48.0554 467.127L48.0558 474.797Z" fill="#2F2E41"/>
<path d="M56.7825 454.601C57.2977 454.601 57.7959 454.417 58.1878 454.082C58.5797 453.746 58.8398 453.282 58.9213 452.772L67.6874 397.948C67.7455 397.584 67.9202 397.25 68.1849 396.996C68.4496 396.741 68.7899 396.58 69.1542 396.537C69.5185 396.494 69.8869 396.571 70.2035 396.757C70.52 396.943 70.7674 397.227 70.9082 397.567L93.6194 452.382C93.8309 452.888 94.225 453.296 94.7229 453.524C95.2209 453.751 95.7861 453.782 96.3059 453.611L104.509 450.869C105.02 450.7 105.449 450.346 105.713 449.876C105.978 449.406 106.058 448.855 105.937 448.329L87.3255 365.759C87.2344 365.361 87.034 364.997 86.747 364.708C86.46 364.418 86.0979 364.215 85.7017 364.121L60.7411 358.312C60.4343 358.242 60.1161 358.239 59.8081 358.304C59.5001 358.368 59.2094 358.497 58.9557 358.684C42.5197 370.657 43.9082 409.775 46.9714 452.25C47.0096 452.782 47.2414 453.281 47.6227 453.653C48.004 454.024 48.5082 454.242 49.0394 454.266L56.6875 454.599C56.7193 454.6 56.751 454.601 56.7825 454.601Z" fill="#2F2E41"/>
<path d="M79.7315 320.614C73.1993 320.614 67.9038 315.305 67.9038 308.756C67.9038 302.207 73.1993 296.897 79.7315 296.897C86.2638 296.897 91.5592 302.207 91.5592 308.756C91.5592 315.305 86.2638 320.614 79.7315 320.614Z" fill="#A0616A"/>
<path d="M78.2578 366.353C81.0969 366.335 83.8967 365.686 86.4558 364.453L86.5438 364.412L86.5787 364.321L97.1873 336.765L97.389 331.977C97.4567 330.376 97.189 328.778 96.6035 327.287C96.0179 325.796 95.1274 324.444 93.9892 323.319C92.851 322.193 91.4904 321.32 89.9949 320.754C88.4995 320.188 86.9024 319.942 85.3064 320.032L74.0438 320.668C71.1345 320.834 68.3975 322.105 66.3902 324.223C64.3828 326.341 63.256 329.146 63.239 332.067C62.9465 332.631 60.8691 337.036 64.9404 341.175C65.0925 342.118 66.5167 351.916 61.1425 357.305L60.9914 357.456L61.1234 357.624C61.209 357.734 68.111 366.352 78.2578 366.353Z" fill="#3F3D56"/>
<path d="M62.4424 368.432C61.7768 368.19 61.1723 367.805 60.6713 367.303C60.1704 366.802 59.7852 366.196 59.5429 365.529C59.3006 364.862 59.2071 364.15 59.269 363.443C59.3309 362.736 59.5467 362.051 59.9011 361.437L48.6524 348.38L57.5201 347.223L66.8426 359.799C67.8326 360.465 68.5448 361.471 68.8441 362.628C69.1435 363.784 69.0093 365.011 68.4669 366.075C67.9245 367.139 67.0117 367.967 65.9013 368.401C64.791 368.835 63.5602 368.846 62.4424 368.432V368.432Z" fill="#A0616A"/>
<path d="M55.4092 358.354C55.8318 358.354 56.2451 358.23 56.598 357.997L62.1615 354.339C62.6292 354.032 62.9606 353.556 63.0862 353.011C63.2118 352.465 63.1218 351.891 62.8352 351.411L58.8075 344.626C58.5896 344.259 58.4516 343.85 58.4026 343.426C58.3536 343.002 58.3946 342.572 58.523 342.165C58.6515 341.757 58.8644 341.382 59.1478 341.063C59.4312 340.744 59.7787 340.489 60.1674 340.314L71.7383 335.113C73.1614 334.465 74.3229 333.352 75.0326 331.956C75.7423 330.561 75.9582 328.964 75.6448 327.429V327.429C75.4285 326.394 74.9769 325.423 74.3252 324.591C73.6734 323.76 72.8391 323.09 71.8871 322.634C70.9351 322.179 69.891 321.949 68.8362 321.964C67.7814 321.979 66.7442 322.238 65.8054 322.72L48.2513 331.738C47.0671 332.347 46.028 333.204 45.2052 334.253C44.3824 335.301 43.7953 336.516 43.4841 337.813C43.1728 339.11 43.1449 340.459 43.4021 341.768C43.6593 343.077 44.1956 344.315 44.9743 345.396L53.6522 357.452C53.8525 357.731 54.1164 357.959 54.4219 358.116C54.7275 358.273 55.0659 358.355 55.4092 358.354Z" fill="#3F3D56"/>
<path d="M91.8315 307.07C88.0963 306.769 84.9951 303.028 85.3835 299.291C85.4273 300.831 84.9049 302.334 83.9156 303.513C82.9264 304.692 81.5393 305.466 80.0183 305.686C78.305 305.876 76.4266 305.356 74.9353 306.223C73.2835 307.182 72.755 309.513 71.0342 310.342C69.3716 311.143 67.2598 310.051 66.4384 308.395C65.617 306.739 65.8186 304.75 66.3629 302.983C67.1393 300.463 68.5529 298.187 70.4663 296.377C72.3797 294.567 74.7277 293.285 77.282 292.654C79.8363 292.023 82.5099 292.066 85.0428 292.778C87.5757 293.491 89.8816 294.848 91.7363 296.718C93.3069 298.302 94.5539 300.321 94.7562 302.545C94.9584 304.769 93.9293 307.182 91.937 308.181L91.8315 307.07Z" fill="#2F2E41"/>
<path d="M118.385 270.36C117.762 270.697 117.22 271.166 116.798 271.736C116.375 272.305 116.082 272.961 115.94 273.656C115.797 274.351 115.809 275.069 115.973 275.76C116.137 276.45 116.45 277.096 116.89 277.652L107.664 292.216L116.605 292.062L123.996 278.256C124.878 277.452 125.436 276.353 125.564 275.164C125.692 273.976 125.38 272.783 124.689 271.809C123.997 270.836 122.974 270.151 121.812 269.884C120.65 269.617 119.431 269.786 118.385 270.36V270.36Z" fill="#A0616A"/>
<path d="M110.949 280.73L99.0668 308.879L86.6093 330.057C86.0835 330.951 85.7672 331.953 85.6842 332.987C85.6013 334.022 85.7539 335.062 86.1305 336.029C86.5071 336.995 87.0979 337.864 87.8583 338.568C88.6187 339.272 89.5287 339.794 90.5197 340.094C92.0915 340.562 93.7782 340.451 95.2752 339.78C96.7722 339.11 97.9808 337.925 98.6826 336.44L122.692 285.005C122.823 284.726 122.892 284.422 122.896 284.113C122.9 283.805 122.839 283.499 122.716 283.216C122.593 282.934 122.411 282.68 122.183 282.473C121.955 282.266 121.685 282.11 121.392 282.016L113.607 279.509C113.46 279.461 113.308 279.429 113.153 279.414C112.694 279.367 112.231 279.47 111.834 279.707C111.437 279.944 111.127 280.303 110.949 280.73Z" fill="#3F3D56"/>
<path d="M43.1024 475.215H120.543C120.57 475.215 120.596 475.168 120.615 475.084C120.634 475 120.645 474.887 120.645 474.768C120.645 474.65 120.634 474.536 120.615 474.453C120.596 474.369 120.57 474.322 120.543 474.322H43.1024C43.0752 474.322 43.0492 474.369 43.03 474.453C43.0108 474.536 43 474.65 43 474.768C43 474.887 43.0108 475 43.03 475.084C43.0492 475.168 43.0752 475.215 43.1024 475.215Z" fill="#CCCCCC"/>
</g>
<g clip-path="url(#clip1_29_945)">
<path d="M135 329C135 323.477 139.477 319 145 319H331C336.523 319 341 323.477 341 329V371C341 376.523 336.523 381 331 381H145C139.477 381 135 376.523 135 371V329Z" fill="#27AE60"/>
<path d="M168.731 348.88C168.731 346.627 169.345 344.827 170.571 343.48C171.798 342.133 173.485 341.46 175.631 341.46C177.325 341.46 178.878 341.753 180.291 342.34L179.691 343.84C178.505 343.347 177.171 343.1 175.691 343.1C174.065 343.1 172.818 343.62 171.951 344.66C171.085 345.687 170.651 347.113 170.651 348.94C170.651 350.58 171.085 351.933 171.951 353C172.831 354.053 173.998 354.58 175.451 354.58C177.118 354.58 178.558 354.28 179.771 353.68L180.291 355.24C178.798 355.893 177.051 356.22 175.051 356.22C173.105 356.22 171.565 355.527 170.431 354.14C169.298 352.753 168.731 351 168.731 348.88ZM193.559 350.82C193.559 352.353 193.039 353.64 191.999 354.68C190.959 355.72 189.673 356.24 188.139 356.24C186.606 356.24 185.319 355.72 184.279 354.68C183.239 353.64 182.719 352.353 182.719 350.82C182.719 349.3 183.239 348.013 184.279 346.96C185.319 345.907 186.606 345.38 188.139 345.38C189.673 345.38 190.959 345.907 191.999 346.96C193.039 348.013 193.559 349.3 193.559 350.82ZM188.139 354.64C189.179 354.64 190.026 354.273 190.679 353.54C191.346 352.807 191.679 351.9 191.679 350.82C191.679 349.74 191.346 348.833 190.679 348.1C190.026 347.367 189.179 347 188.139 347C187.099 347 186.246 347.367 185.579 348.1C184.913 348.833 184.579 349.74 184.579 350.82C184.579 351.9 184.913 352.807 185.579 353.54C186.246 354.273 187.099 354.64 188.139 354.64ZM202.062 345.48C203.449 345.48 204.542 345.907 205.342 346.76C206.142 347.613 206.542 348.76 206.542 350.2V356H204.642V350.2C204.642 348.107 203.689 347.06 201.782 347.06C201.102 347.06 200.422 347.373 199.742 348C199.062 348.627 198.722 349.26 198.722 349.9V356H196.822V348.48C196.822 347.227 196.742 346.313 196.582 345.74H198.362C198.496 346.06 198.562 346.473 198.562 346.98C199.522 345.98 200.689 345.48 202.062 345.48ZM220.657 350.82C220.657 352.353 220.137 353.64 219.097 354.68C218.057 355.72 216.77 356.24 215.237 356.24C213.704 356.24 212.417 355.72 211.377 354.68C210.337 353.64 209.817 352.353 209.817 350.82C209.817 349.3 210.337 348.013 211.377 346.96C212.417 345.907 213.704 345.38 215.237 345.38C216.77 345.38 218.057 345.907 219.097 346.96C220.137 348.013 220.657 349.3 220.657 350.82ZM215.237 354.64C216.277 354.64 217.124 354.273 217.777 353.54C218.444 352.807 218.777 351.9 218.777 350.82C218.777 349.74 218.444 348.833 217.777 348.1C217.124 347.367 216.277 347 215.237 347C214.197 347 213.344 347.367 212.677 348.1C212.01 348.833 211.677 349.74 211.677 350.82C211.677 351.9 212.01 352.807 212.677 353.54C213.344 354.273 214.197 354.64 215.237 354.64ZM225.12 350.82C225.12 351.94 225.427 352.867 226.04 353.6C226.653 354.32 227.48 354.68 228.52 354.68C229.52 354.68 230.493 354.387 231.44 353.8L232.1 355.36C231.113 355.973 229.94 356.28 228.58 356.28C226.98 356.28 225.68 355.773 224.68 354.76C223.693 353.747 223.2 352.433 223.2 350.82C223.2 349.207 223.693 347.9 224.68 346.9C225.68 345.887 226.98 345.38 228.58 345.38C229.94 345.38 231.113 345.68 232.1 346.28L231.44 347.84C230.507 347.267 229.533 346.98 228.52 346.98C227.48 346.98 226.653 347.347 226.04 348.08C225.427 348.8 225.12 349.713 225.12 350.82ZM236.49 351.18C236.57 352.233 236.95 353.067 237.63 353.68C238.323 354.28 239.23 354.58 240.35 354.58C241.47 354.58 242.75 354.32 244.19 353.8L244.41 355.46C242.93 356.007 241.536 356.28 240.23 356.28C238.63 356.28 237.296 355.793 236.23 354.82C235.163 353.847 234.63 352.587 234.63 351.04C234.63 349.373 235.13 348.013 236.13 346.96C237.143 345.907 238.47 345.38 240.11 345.38C243.19 345.38 244.763 347.313 244.83 351.18H236.49ZM242.97 349.6C242.863 348.813 242.536 348.173 241.99 347.68C241.456 347.187 240.77 346.94 239.93 346.94C239.103 346.94 238.376 347.2 237.75 347.72C237.136 348.227 236.756 348.853 236.61 349.6H242.97ZM252.587 356.24C249.601 356.08 248.107 354.247 248.107 350.74V340.84H250.007V350.32C250.007 351.733 250.201 352.773 250.587 353.44C250.987 354.093 251.727 354.453 252.807 354.52L252.587 356.24ZM258.414 356.28C257.387 356.28 256.527 356 255.834 355.44C255.14 354.88 254.794 354.133 254.794 353.2C254.794 350.667 257.074 349.367 261.634 349.3C261.434 347.793 260.607 347.04 259.154 347.04C258.047 347.04 256.854 347.287 255.574 347.78L255.374 346.08C256.734 345.68 258.027 345.48 259.254 345.48C262.094 345.48 263.514 346.94 263.514 349.86V353.26C263.514 354.02 263.654 354.9 263.934 355.9L262.174 356.28L261.874 354.94C260.834 355.833 259.68 356.28 258.414 356.28ZM261.634 352.76V350.94C258.354 351.007 256.714 351.7 256.714 353.02C256.714 354.087 257.307 354.62 258.494 354.62C259.187 354.62 259.88 354.44 260.574 354.08C261.28 353.707 261.634 353.267 261.634 352.76Z" fill="white"/>
<path d="M304.865 359.365L307.5 362L320 349.5L307.5 337L304.865 339.635L312.866 347.636H295V351.364H312.866L304.865 359.365Z" fill="#3F3D56"/>
</g>
<defs>
<filter id="filter0_d_29_945" x="0" y="0" width="381" height="465" filterUnits="userSpaceOnUse" color-interpolation-filters="sRGB">
<feFlood flood-opacity="0" result="BackgroundImageFix"/>
<feColorMatrix in="SourceAlpha" type="matrix" values="0 0 0 0 0 0 0 0 0 0 0 0 0 0 0 0 0 0 127 0" result="hardAlpha"/>
<feOffset dx="-4" dy="4"/>
<feGaussianBlur stdDeviation="10"/>
<feComposite in2="hardAlpha" operator="out"/>
<feColorMatrix type="matrix" values="0 0 0 0 0 0 0 0 0 0 0 0 0 0 0 0 0 0 0.25 0"/>
<feBlend mode="normal" in2="BackgroundImageFix" result="effect1_dropShadow_29_945"/>
<feBlend mode="normal" in="SourceGraphic" in2="effect1_dropShadow_29_945" result="shape"/>
</filter>
<filter id="filter1_i_29_945" x="39" y="269" width="87" height="210" filterUnits="userSpaceOnUse" color-interpolation-filters="sRGB">
<feFlood flood-opacity="0" result="BackgroundImageFix"/>
<feBlend mode="normal" in="SourceGraphic" in2="BackgroundImageFix" result="shape"/>
<feColorMatrix in="SourceAlpha" type="matrix" values="0 0 0 0 0 0 0 0 0 0 0 0 0 0 0 0 0 0 127 0" result="hardAlpha"/>
<feOffset dx="-4" dy="4"/>
<feGaussianBlur stdDeviation="10"/>
<feComposite in2="hardAlpha" operator="arithmetic" k2="-1" k3="1"/>
<feColorMatrix type="matrix" values="0 0 0 0 0 0 0 0 0 0 0 0 0 0 0 0 0 0 0.25 0"/>
<feBlend mode="normal" in2="shape" result="effect1_innerShadow_29_945"/>
</filter>
<clipPath id="clip0_29_945">
<rect width="83" height="206" fill="white" transform="matrix(-1 0 0 1 126 269)"/>
</clipPath>
<clipPath id="clip1_29_945">
<path d="M135 329C135 323.477 139.477 319 145 319H331C336.523 319 341 323.477 341 329V371C341 376.523 336.523 381 331 381H145C139.477 381 135 376.523 135 371V329Z" fill="white"/>
</clipPath>
</defs>
</svg>
