<svg width="381" height="499" viewBox="0 0 381 499" fill="none" xmlns="http://www.w3.org/2000/svg">
<g filter="url(#filter0_d_29_960)">
<rect x="24" y="16" width="341" height="425" rx="5" fill="#EEEEEE"/>
</g>
<path d="M135.524 45.66C139.397 45.66 142.372 46.7217 144.449 48.845C146.525 50.9683 147.564 54.0017 147.564 57.945C147.564 62.1917 146.432 65.47 144.169 67.78C141.905 70.0667 138.674 71.21 134.474 71.21C133.004 71.21 130.647 71.035 127.404 70.685V46.36C131.487 45.8933 134.194 45.66 135.524 45.66ZM144.204 57.945C144.204 51.6683 141.252 48.53 135.349 48.53C134.369 48.53 132.829 48.635 130.729 48.845V68.2C132.012 68.3167 133.47 68.375 135.104 68.375C138.067 68.375 140.319 67.4417 141.859 65.575C143.422 63.7083 144.204 61.165 144.204 57.945ZM169.279 61.935C169.279 64.6183 168.369 66.87 166.549 68.69C164.729 70.51 162.477 71.42 159.794 71.42C157.111 71.42 154.859 70.51 153.039 68.69C151.219 66.87 150.309 64.6183 150.309 61.935C150.309 59.275 151.219 57.0233 153.039 55.18C154.859 53.3367 157.111 52.415 159.794 52.415C162.477 52.415 164.729 53.3367 166.549 55.18C168.369 57.0233 169.279 59.275 169.279 61.935ZM159.794 68.62C161.614 68.62 163.096 67.9783 164.239 66.695C165.406 65.4117 165.989 63.825 165.989 61.935C165.989 60.045 165.406 58.4583 164.239 57.175C163.096 55.8917 161.614 55.25 159.794 55.25C157.974 55.25 156.481 55.8917 155.314 57.175C154.147 58.4583 153.564 60.045 153.564 61.935C153.564 63.825 154.147 65.4117 155.314 66.695C156.481 67.9783 157.974 68.62 159.794 68.62ZM175.339 61.935C175.339 63.895 175.875 65.5167 176.949 66.8C178.022 68.06 179.469 68.69 181.289 68.69C183.039 68.69 184.742 68.1767 186.399 67.15L187.554 69.88C185.827 70.9533 183.774 71.49 181.394 71.49C178.594 71.49 176.319 70.6033 174.569 68.83C172.842 67.0567 171.979 64.7583 171.979 61.935C171.979 59.1117 172.842 56.825 174.569 55.075C176.319 53.3017 178.594 52.415 181.394 52.415C183.774 52.415 185.827 52.94 187.554 53.99L186.399 56.72C184.765 55.7167 183.062 55.215 181.289 55.215C179.469 55.215 178.022 55.8567 176.949 57.14C175.875 58.4 175.339 59.9983 175.339 61.935ZM198.141 71.49C196.484 71.49 195.201 70.93 194.291 69.81C193.381 68.6667 192.926 67.185 192.926 65.365V55.845H189.356V53.115H192.926V48.215L196.251 46.78V53.115H201.991V55.845H196.251V65.33C196.251 67.4533 196.927 68.515 198.281 68.515C199.191 68.515 200.171 68.3283 201.221 67.955L201.606 70.72C200.392 71.2333 199.237 71.49 198.141 71.49ZM222.77 61.935C222.77 64.6183 221.86 66.87 220.04 68.69C218.22 70.51 215.968 71.42 213.285 71.42C210.602 71.42 208.35 70.51 206.53 68.69C204.71 66.87 203.8 64.6183 203.8 61.935C203.8 59.275 204.71 57.0233 206.53 55.18C208.35 53.3367 210.602 52.415 213.285 52.415C215.968 52.415 218.22 53.3367 220.04 55.18C221.86 57.0233 222.77 59.275 222.77 61.935ZM213.285 68.62C215.105 68.62 216.587 67.9783 217.73 66.695C218.897 65.4117 219.48 63.825 219.48 61.935C219.48 60.045 218.897 58.4583 217.73 57.175C216.587 55.8917 215.105 55.25 213.285 55.25C211.465 55.25 209.972 55.8917 208.805 57.175C207.638 58.4583 207.055 60.045 207.055 61.935C207.055 63.825 207.638 65.4117 208.805 66.695C209.972 67.9783 211.465 68.62 213.285 68.62ZM229.635 55.355C229.962 54.6783 230.627 54.0483 231.63 53.465C232.657 52.8817 233.637 52.59 234.57 52.59C235.317 52.59 235.877 52.6367 236.25 52.73V55.565C235.97 55.495 235.573 55.46 235.06 55.46C231.723 55.46 230.055 57.4667 230.055 61.48V71H226.73V59.17C226.73 56.37 226.52 54.2583 226.1 52.835H229.04C229.437 53.4883 229.635 54.3283 229.635 55.355ZM241.679 62.565C241.819 64.4083 242.484 65.8667 243.674 66.94C244.887 67.99 246.474 68.515 248.434 68.515C250.394 68.515 252.634 68.06 255.154 67.15L255.539 70.055C252.949 71.0117 250.511 71.49 248.224 71.49C245.424 71.49 243.091 70.6383 241.224 68.935C239.357 67.2317 238.424 65.0267 238.424 62.32C238.424 59.4033 239.299 57.0233 241.049 55.18C242.822 53.3367 245.144 52.415 248.014 52.415C253.404 52.415 256.157 55.7983 256.274 62.565H241.679ZM253.019 59.8C252.832 58.4233 252.261 57.3033 251.304 56.44C250.371 55.5767 249.169 55.145 247.699 55.145C246.252 55.145 244.981 55.6 243.884 56.51C242.811 57.3967 242.146 58.4933 241.889 59.8H253.019ZM266.105 55.215C265.242 55.215 264.484 55.4483 263.83 55.915C263.2 56.3583 262.885 56.965 262.885 57.735C262.885 58.645 264.169 59.5433 266.735 60.43C270.189 61.62 271.915 63.44 271.915 65.89C271.915 67.6633 271.239 69.04 269.885 70.02C268.532 71 266.84 71.49 264.81 71.49C263.014 71.49 261.077 70.9067 259 69.74L260.33 67.115C261.754 68.095 263.294 68.585 264.95 68.585C267.4 68.585 268.625 67.745 268.625 66.065C268.625 64.735 267.435 63.7083 265.055 62.985C261.555 61.8883 259.805 60.22 259.805 57.98C259.805 56.3467 260.424 55.0517 261.66 54.095C262.92 53.115 264.472 52.625 266.315 52.625C268.322 52.625 270.049 53.1383 271.495 54.165L270.27 56.58C269.034 55.67 267.645 55.215 266.105 55.215Z" fill="#27AE60"/>
<path d="M105.707 122H103.867L103.087 110.9L98.5666 122H97.3066L92.7866 110.9L92.0066 122H90.1866L91.2066 107.68H93.1866L97.9466 119.6L102.687 107.68H104.687L105.707 122ZM110.212 117.18C110.292 118.233 110.672 119.067 111.352 119.68C112.046 120.28 112.952 120.58 114.072 120.58C115.192 120.58 116.472 120.32 117.912 119.8L118.132 121.46C116.652 122.007 115.259 122.28 113.952 122.28C112.352 122.28 111.019 121.793 109.952 120.82C108.886 119.847 108.352 118.587 108.352 117.04C108.352 115.373 108.852 114.013 109.852 112.96C110.866 111.907 112.192 111.38 113.832 111.38C116.912 111.38 118.486 113.313 118.552 117.18H110.212ZM116.692 115.6C116.586 114.813 116.259 114.173 115.712 113.68C115.179 113.187 114.492 112.94 113.652 112.94C112.826 112.94 112.099 113.2 111.472 113.72C110.859 114.227 110.479 114.853 110.332 115.6H116.692ZM131.91 122H130.11C130.043 121.76 130.01 121.387 130.01 120.88C129.05 121.813 127.837 122.28 126.37 122.28C124.85 122.28 123.59 121.76 122.59 120.72C121.603 119.667 121.11 118.32 121.11 116.68C121.11 115.133 121.59 113.867 122.55 112.88C123.523 111.88 124.75 111.38 126.23 111.38C127.723 111.38 128.943 111.853 129.89 112.8V106.84H131.79V119.26C131.79 120.1 131.83 121.013 131.91 122ZM126.53 120.62C127.477 120.62 128.27 120.407 128.91 119.98C129.563 119.54 129.89 118.92 129.89 118.12V115.78C129.89 115.033 129.51 114.373 128.75 113.8C128.003 113.227 127.223 112.94 126.41 112.94C125.383 112.94 124.55 113.293 123.91 114C123.283 114.707 122.97 115.6 122.97 116.68C122.97 117.88 123.277 118.84 123.89 119.56C124.517 120.267 125.397 120.62 126.53 120.62ZM137.816 122H135.916V111.78H137.816V122ZM136.816 107.32C137.216 107.32 137.556 107.46 137.836 107.74C138.129 108.02 138.276 108.36 138.276 108.76C138.276 109.16 138.129 109.5 137.836 109.78C137.556 110.06 137.216 110.2 136.816 110.2C136.416 110.2 136.076 110.06 135.796 109.78C135.516 109.5 135.376 109.16 135.376 108.76C135.376 108.36 135.516 108.02 135.796 107.74C136.076 107.46 136.416 107.32 136.816 107.32ZM143.018 116.82C143.018 117.94 143.325 118.867 143.938 119.6C144.552 120.32 145.378 120.68 146.418 120.68C147.418 120.68 148.392 120.387 149.338 119.8L149.998 121.36C149.012 121.973 147.838 122.28 146.478 122.28C144.878 122.28 143.578 121.773 142.578 120.76C141.592 119.747 141.098 118.433 141.098 116.82C141.098 115.207 141.592 113.9 142.578 112.9C143.578 111.887 144.878 111.38 146.478 111.38C147.838 111.38 149.012 111.68 149.998 112.28L149.338 113.84C148.405 113.267 147.432 112.98 146.418 112.98C145.378 112.98 144.552 113.347 143.938 114.08C143.325 114.8 143.018 115.713 143.018 116.82ZM163.368 116.82C163.368 118.353 162.848 119.64 161.808 120.68C160.768 121.72 159.481 122.24 157.948 122.24C156.415 122.24 155.128 121.72 154.088 120.68C153.048 119.64 152.528 118.353 152.528 116.82C152.528 115.3 153.048 114.013 154.088 112.96C155.128 111.907 156.415 111.38 157.948 111.38C159.481 111.38 160.768 111.907 161.808 112.96C162.848 114.013 163.368 115.3 163.368 116.82ZM157.948 120.64C158.988 120.64 159.835 120.273 160.488 119.54C161.155 118.807 161.488 117.9 161.488 116.82C161.488 115.74 161.155 114.833 160.488 114.1C159.835 113.367 158.988 113 157.948 113C156.908 113 156.055 113.367 155.388 114.1C154.721 114.833 154.388 115.74 154.388 116.82C154.388 117.9 154.721 118.807 155.388 119.54C156.055 120.273 156.908 120.64 157.948 120.64ZM169.971 112.98C169.478 112.98 169.044 113.113 168.671 113.38C168.311 113.633 168.131 113.98 168.131 114.42C168.131 114.94 168.864 115.453 170.331 115.96C172.304 116.64 173.291 117.68 173.291 119.08C173.291 120.093 172.904 120.88 172.131 121.44C171.358 122 170.391 122.28 169.231 122.28C168.204 122.28 167.098 121.947 165.911 121.28L166.671 119.78C167.484 120.34 168.364 120.62 169.311 120.62C170.711 120.62 171.411 120.14 171.411 119.18C171.411 118.42 170.731 117.833 169.371 117.42C167.371 116.793 166.371 115.84 166.371 114.56C166.371 113.627 166.724 112.887 167.431 112.34C168.151 111.78 169.038 111.5 170.091 111.5C171.238 111.5 172.224 111.793 173.051 112.38L172.351 113.76C171.644 113.24 170.851 112.98 169.971 112.98ZM183.774 115.32C183.774 114.24 184.134 113.347 184.854 112.64C185.588 111.92 186.494 111.56 187.574 111.56H191.894V112.86H190.394C190.714 112.993 190.981 113.287 191.194 113.74C191.421 114.18 191.534 114.64 191.534 115.12C191.534 116.32 191.201 117.26 190.534 117.94C189.868 118.62 188.941 118.96 187.754 118.96C187.288 118.96 186.854 118.893 186.454 118.76C186.348 118.867 186.294 118.993 186.294 119.14C186.294 119.447 187.021 119.8 188.474 120.2C190.554 120.787 191.594 121.84 191.594 123.36C191.594 124.387 191.228 125.167 190.494 125.7C189.761 126.247 188.794 126.52 187.594 126.52C186.501 126.52 185.388 126.173 184.254 125.48L184.914 123.98C185.981 124.607 186.914 124.92 187.714 124.92C188.274 124.92 188.774 124.78 189.214 124.5C189.654 124.233 189.874 123.88 189.874 123.44C189.874 122.827 189.314 122.293 188.194 121.84C187.381 121.507 186.574 121.127 185.774 120.7C184.988 120.273 184.594 119.727 184.594 119.06C184.594 118.713 184.681 118.3 184.854 117.82C184.134 117.047 183.774 116.213 183.774 115.32ZM187.754 117.4C188.421 117.4 188.948 117.207 189.334 116.82C189.734 116.42 189.934 115.9 189.934 115.26C189.934 114.66 189.721 114.153 189.294 113.74C188.868 113.313 188.354 113.1 187.754 113.1C187.154 113.1 186.634 113.313 186.194 113.74C185.768 114.153 185.554 114.66 185.554 115.26C185.554 115.86 185.768 116.367 186.194 116.78C186.634 117.193 187.154 117.4 187.754 117.4ZM196.435 117.18C196.515 118.233 196.895 119.067 197.575 119.68C198.268 120.28 199.175 120.58 200.295 120.58C201.415 120.58 202.695 120.32 204.135 119.8L204.355 121.46C202.875 122.007 201.482 122.28 200.175 122.28C198.575 122.28 197.242 121.793 196.175 120.82C195.108 119.847 194.575 118.587 194.575 117.04C194.575 115.373 195.075 114.013 196.075 112.96C197.088 111.907 198.415 111.38 200.055 111.38C203.135 111.38 204.708 113.313 204.775 117.18H196.435ZM202.915 115.6C202.808 114.813 202.482 114.173 201.935 113.68C201.402 113.187 200.715 112.94 199.875 112.94C199.048 112.94 198.322 113.2 197.695 113.72C197.082 114.227 196.702 114.853 196.555 115.6H202.915ZM213.293 111.48C214.679 111.48 215.773 111.907 216.573 112.76C217.373 113.613 217.773 114.76 217.773 116.2V122H215.873V116.2C215.873 114.107 214.919 113.06 213.013 113.06C212.333 113.06 211.653 113.373 210.973 114C210.293 114.627 209.953 115.26 209.953 115.9V122H208.053V114.48C208.053 113.227 207.973 112.313 207.813 111.74H209.593C209.726 112.06 209.793 112.473 209.793 112.98C210.753 111.98 211.919 111.48 213.293 111.48ZM222.908 117.18C222.988 118.233 223.368 119.067 224.048 119.68C224.741 120.28 225.648 120.58 226.768 120.58C227.888 120.58 229.168 120.32 230.608 119.8L230.828 121.46C229.348 122.007 227.954 122.28 226.648 122.28C225.048 122.28 223.714 121.793 222.648 120.82C221.581 119.847 221.048 118.587 221.048 117.04C221.048 115.373 221.548 114.013 222.548 112.96C223.561 111.907 224.888 111.38 226.528 111.38C229.608 111.38 231.181 113.313 231.248 117.18H222.908ZM229.388 115.6C229.281 114.813 228.954 114.173 228.408 113.68C227.874 113.187 227.188 112.94 226.348 112.94C225.521 112.94 224.794 113.2 224.168 113.72C223.554 114.227 223.174 114.853 223.028 115.6H229.388ZM236.185 113.06C236.372 112.673 236.752 112.313 237.325 111.98C237.912 111.647 238.472 111.48 239.005 111.48C239.432 111.48 239.752 111.507 239.965 111.56V113.18C239.805 113.14 239.579 113.12 239.285 113.12C237.379 113.12 236.425 114.267 236.425 116.56V122H234.525V115.24C234.525 113.64 234.405 112.433 234.165 111.62H235.845C236.072 111.993 236.185 112.473 236.185 113.06ZM245.828 122.28C244.801 122.28 243.941 122 243.248 121.44C242.554 120.88 242.208 120.133 242.208 119.2C242.208 116.667 244.488 115.367 249.048 115.3C248.848 113.793 248.021 113.04 246.568 113.04C245.461 113.04 244.268 113.287 242.988 113.78L242.788 112.08C244.148 111.68 245.441 111.48 246.668 111.48C249.508 111.48 250.928 112.94 250.928 115.86V119.26C250.928 120.02 251.068 120.9 251.348 121.9L249.588 122.28L249.288 120.94C248.248 121.833 247.094 122.28 245.828 122.28ZM249.048 118.76V116.94C245.768 117.007 244.128 117.7 244.128 119.02C244.128 120.087 244.721 120.62 245.908 120.62C246.601 120.62 247.294 120.44 247.988 120.08C248.694 119.707 249.048 119.267 249.048 118.76ZM259.443 122.24C256.456 122.08 254.963 120.247 254.963 116.74V106.84H256.863V116.32C256.863 117.733 257.056 118.773 257.443 119.44C257.843 120.093 258.583 120.453 259.663 120.52L259.443 122.24ZM263.509 117.18C263.589 118.233 263.969 119.067 264.649 119.68C265.342 120.28 266.249 120.58 267.369 120.58C268.489 120.58 269.769 120.32 271.209 119.8L271.429 121.46C269.949 122.007 268.556 122.28 267.249 122.28C265.649 122.28 264.316 121.793 263.249 120.82C262.182 119.847 261.649 118.587 261.649 117.04C261.649 115.373 262.149 114.013 263.149 112.96C264.162 111.907 265.489 111.38 267.129 111.38C270.209 111.38 271.782 113.313 271.849 117.18H263.509ZM269.989 115.6C269.882 114.813 269.556 114.173 269.009 113.68C268.476 113.187 267.789 112.94 266.949 112.94C266.122 112.94 265.396 113.2 264.769 113.72C264.156 114.227 263.776 114.853 263.629 115.6H269.989ZM278.467 112.98C277.974 112.98 277.54 113.113 277.167 113.38C276.807 113.633 276.627 113.98 276.627 114.42C276.627 114.94 277.36 115.453 278.827 115.96C280.8 116.64 281.787 117.68 281.787 119.08C281.787 120.093 281.4 120.88 280.627 121.44C279.854 122 278.887 122.28 277.727 122.28C276.7 122.28 275.594 121.947 274.407 121.28L275.167 119.78C275.98 120.34 276.86 120.62 277.807 120.62C279.207 120.62 279.907 120.14 279.907 119.18C279.907 118.42 279.227 117.833 277.867 117.42C275.867 116.793 274.867 115.84 274.867 114.56C274.867 113.627 275.22 112.887 275.927 112.34C276.647 111.78 277.534 111.5 278.587 111.5C279.734 111.5 280.72 111.793 281.547 112.38L280.847 113.76C280.14 113.24 279.347 112.98 278.467 112.98ZM302.931 116.82C302.931 118.353 302.411 119.64 301.371 120.68C300.331 121.72 299.044 122.24 297.511 122.24C295.977 122.24 294.691 121.72 293.651 120.68C292.611 119.64 292.091 118.353 292.091 116.82C292.091 115.3 292.611 114.013 293.651 112.96C294.691 111.907 295.977 111.38 297.511 111.38C299.044 111.38 300.331 111.907 301.371 112.96C302.411 114.013 302.931 115.3 302.931 116.82ZM297.511 120.64C298.551 120.64 299.397 120.273 300.051 119.54C300.717 118.807 301.051 117.9 301.051 116.82C301.051 115.74 300.717 114.833 300.051 114.1C299.397 113.367 298.551 113 297.511 113C296.471 113 295.617 113.367 294.951 114.1C294.284 114.833 293.951 115.74 293.951 116.82C293.951 117.9 294.284 118.807 294.951 119.54C295.617 120.273 296.471 120.64 297.511 120.64ZM59.767 157.18C59.847 158.233 60.227 159.067 60.907 159.68C61.6003 160.28 62.507 160.58 63.627 160.58C64.747 160.58 66.027 160.32 67.467 159.8L67.687 161.46C66.207 162.007 64.8136 162.28 63.507 162.28C61.907 162.28 60.5736 161.793 59.507 160.82C58.4403 159.847 57.907 158.587 57.907 157.04C57.907 155.373 58.407 154.013 59.407 152.96C60.4203 151.907 61.747 151.38 63.387 151.38C66.467 151.38 68.0403 153.313 68.107 157.18H59.767ZM66.247 155.6C66.1403 154.813 65.8136 154.173 65.267 153.68C64.7336 153.187 64.047 152.94 63.207 152.94C62.3803 152.94 61.6536 153.2 61.027 153.72C60.4136 154.227 60.0336 154.853 59.887 155.6H66.247ZM74.7248 152.98C74.2314 152.98 73.7981 153.113 73.4248 153.38C73.0648 153.633 72.8848 153.98 72.8848 154.42C72.8848 154.94 73.6181 155.453 75.0848 155.96C77.0581 156.64 78.0448 157.68 78.0448 159.08C78.0448 160.093 77.6581 160.88 76.8848 161.44C76.1114 162 75.1448 162.28 73.9848 162.28C72.9581 162.28 71.8514 161.947 70.6648 161.28L71.4248 159.78C72.2381 160.34 73.1181 160.62 74.0648 160.62C75.4648 160.62 76.1648 160.14 76.1648 159.18C76.1648 158.42 75.4848 157.833 74.1248 157.42C72.1248 156.793 71.1248 155.84 71.1248 154.56C71.1248 153.627 71.4781 152.887 72.1848 152.34C72.9048 151.78 73.7914 151.5 74.8448 151.5C75.9914 151.5 76.9781 151.793 77.8048 152.38L77.1048 153.76C76.3981 153.24 75.6048 152.98 74.7248 152.98ZM91.971 156.62C91.971 158.233 91.4643 159.58 90.451 160.66C89.451 161.74 88.171 162.28 86.611 162.28C85.2243 162.28 84.0843 161.867 83.191 161.04V166.3H81.291V155.08C81.291 153.427 81.251 152.267 81.171 151.6H83.031L83.251 152.7C84.3043 151.82 85.5043 151.38 86.851 151.38C88.3177 151.38 89.5377 151.887 90.511 152.9C91.4843 153.9 91.971 155.14 91.971 156.62ZM86.551 160.62C87.6843 160.62 88.5643 160.26 89.191 159.54C89.8177 158.82 90.131 157.853 90.131 156.64C90.131 155.6 89.8043 154.727 89.151 154.02C88.4977 153.3 87.671 152.94 86.671 152.94C85.8843 152.94 85.1043 153.273 84.331 153.94C83.571 154.593 83.191 155.293 83.191 156.04V157.72C83.191 158.533 83.531 159.22 84.211 159.78C84.891 160.34 85.671 160.62 86.551 160.62ZM96.3998 157.18C96.4798 158.233 96.8598 159.067 97.5398 159.68C98.2331 160.28 99.1398 160.58 100.26 160.58C101.38 160.58 102.66 160.32 104.1 159.8L104.32 161.46C102.84 162.007 101.446 162.28 100.14 162.28C98.5398 162.28 97.2064 161.793 96.1398 160.82C95.0731 159.847 94.5398 158.587 94.5398 157.04C94.5398 155.373 95.0398 154.013 96.0398 152.96C97.0531 151.907 98.3798 151.38 100.02 151.38C103.1 151.38 104.673 153.313 104.74 157.18H96.3998ZM102.88 155.6C102.773 154.813 102.446 154.173 101.9 153.68C101.366 153.187 100.68 152.94 99.8398 152.94C99.0131 152.94 98.2864 153.2 97.6598 153.72C97.0464 154.227 96.6664 154.853 96.5198 155.6H102.88ZM109.218 156.82C109.218 157.94 109.524 158.867 110.138 159.6C110.751 160.32 111.578 160.68 112.618 160.68C113.618 160.68 114.591 160.387 115.538 159.8L116.198 161.36C115.211 161.973 114.038 162.28 112.678 162.28C111.078 162.28 109.778 161.773 108.778 160.76C107.791 159.747 107.298 158.433 107.298 156.82C107.298 155.207 107.791 153.9 108.778 152.9C109.778 151.887 111.078 151.38 112.678 151.38C114.038 151.38 115.211 151.68 116.198 152.28L115.538 153.84C114.604 153.267 113.631 152.98 112.618 152.98C111.578 152.98 110.751 153.347 110.138 154.08C109.524 154.8 109.218 155.713 109.218 156.82ZM121.347 162H119.447V151.78H121.347V162ZM120.347 147.32C120.747 147.32 121.087 147.46 121.367 147.74C121.661 148.02 121.807 148.36 121.807 148.76C121.807 149.16 121.661 149.5 121.367 149.78C121.087 150.06 120.747 150.2 120.347 150.2C119.947 150.2 119.607 150.06 119.327 149.78C119.047 149.5 118.907 149.16 118.907 148.76C118.907 148.36 119.047 148.02 119.327 147.74C119.607 147.46 119.947 147.32 120.347 147.32ZM128.25 162.28C127.223 162.28 126.363 162 125.67 161.44C124.976 160.88 124.63 160.133 124.63 159.2C124.63 156.667 126.91 155.367 131.47 155.3C131.27 153.793 130.443 153.04 128.99 153.04C127.883 153.04 126.69 153.287 125.41 153.78L125.21 152.08C126.57 151.68 127.863 151.48 129.09 151.48C131.93 151.48 133.35 152.94 133.35 155.86V159.26C133.35 160.02 133.49 160.9 133.77 161.9L132.01 162.28L131.71 160.94C130.67 161.833 129.516 162.28 128.25 162.28ZM131.47 158.76V156.94C128.19 157.007 126.55 157.7 126.55 159.02C126.55 160.087 127.143 160.62 128.33 160.62C129.023 160.62 129.716 160.44 130.41 160.08C131.116 159.707 131.47 159.267 131.47 158.76ZM141.865 162.24C138.878 162.08 137.385 160.247 137.385 156.74V146.84H139.285V156.32C139.285 157.733 139.478 158.773 139.865 159.44C140.265 160.093 141.005 160.453 142.085 160.52L141.865 162.24ZM146.691 162H144.791V151.78H146.691V162ZM145.691 147.32C146.091 147.32 146.431 147.46 146.711 147.74C147.004 148.02 147.151 148.36 147.151 148.76C147.151 149.16 147.004 149.5 146.711 149.78C146.431 150.06 146.091 150.2 145.691 150.2C145.291 150.2 144.951 150.06 144.671 149.78C144.391 149.5 144.251 149.16 144.251 148.76C144.251 148.36 144.391 148.02 144.671 147.74C144.951 147.46 145.291 147.32 145.691 147.32ZM159.113 162H149.793V160.86L156.593 153.36H150.093L150.453 151.78H159.173V153L152.413 160.4H159.393L159.113 162ZM165.355 162.28C164.328 162.28 163.468 162 162.775 161.44C162.082 160.88 161.735 160.133 161.735 159.2C161.735 156.667 164.015 155.367 168.575 155.3C168.375 153.793 167.548 153.04 166.095 153.04C164.988 153.04 163.795 153.287 162.515 153.78L162.315 152.08C163.675 151.68 164.968 151.48 166.195 151.48C169.035 151.48 170.455 152.94 170.455 155.86V159.26C170.455 160.02 170.595 160.9 170.875 161.9L169.115 162.28L168.815 160.94C167.775 161.833 166.622 162.28 165.355 162.28ZM168.575 158.76V156.94C165.295 157.007 163.655 157.7 163.655 159.02C163.655 160.087 164.248 160.62 165.435 160.62C166.128 160.62 166.822 160.44 167.515 160.08C168.222 159.707 168.575 159.267 168.575 158.76ZM184.57 162H182.77C182.704 161.76 182.67 161.387 182.67 160.88C181.71 161.813 180.497 162.28 179.03 162.28C177.51 162.28 176.25 161.76 175.25 160.72C174.264 159.667 173.77 158.32 173.77 156.68C173.77 155.133 174.25 153.867 175.21 152.88C176.184 151.88 177.41 151.38 178.89 151.38C180.384 151.38 181.604 151.853 182.55 152.8V146.84H184.45V159.26C184.45 160.1 184.49 161.013 184.57 162ZM179.19 160.62C180.137 160.62 180.93 160.407 181.57 159.98C182.224 159.54 182.55 158.92 182.55 158.12V155.78C182.55 155.033 182.17 154.373 181.41 153.8C180.664 153.227 179.884 152.94 179.07 152.94C178.044 152.94 177.21 153.293 176.57 154C175.944 154.707 175.63 155.6 175.63 156.68C175.63 157.88 175.937 158.84 176.55 159.56C177.177 160.267 178.057 160.62 179.19 160.62ZM198.696 156.82C198.696 158.353 198.176 159.64 197.136 160.68C196.096 161.72 194.81 162.24 193.276 162.24C191.743 162.24 190.456 161.72 189.416 160.68C188.376 159.64 187.856 158.353 187.856 156.82C187.856 155.3 188.376 154.013 189.416 152.96C190.456 151.907 191.743 151.38 193.276 151.38C194.81 151.38 196.096 151.907 197.136 152.96C198.176 154.013 198.696 155.3 198.696 156.82ZM193.276 160.64C194.316 160.64 195.163 160.273 195.816 159.54C196.483 158.807 196.816 157.9 196.816 156.82C196.816 155.74 196.483 154.833 195.816 154.1C195.163 153.367 194.316 153 193.276 153C192.236 153 191.383 153.367 190.716 154.1C190.05 154.833 189.716 155.74 189.716 156.82C189.716 157.9 190.05 158.807 190.716 159.54C191.383 160.273 192.236 160.64 193.276 160.64ZM205.299 152.98C204.806 152.98 204.372 153.113 203.999 153.38C203.639 153.633 203.459 153.98 203.459 154.42C203.459 154.94 204.192 155.453 205.659 155.96C207.632 156.64 208.619 157.68 208.619 159.08C208.619 160.093 208.232 160.88 207.459 161.44C206.686 162 205.719 162.28 204.559 162.28C203.532 162.28 202.426 161.947 201.239 161.28L201.999 159.78C202.812 160.34 203.692 160.62 204.639 160.62C206.039 160.62 206.739 160.14 206.739 159.18C206.739 158.42 206.059 157.833 204.699 157.42C202.699 156.793 201.699 155.84 201.699 154.56C201.699 153.627 202.052 152.887 202.759 152.34C203.479 151.78 204.366 151.5 205.419 151.5C206.566 151.5 207.552 151.793 208.379 152.38L207.679 153.76C206.972 153.24 206.179 152.98 205.299 152.98ZM220.783 157.18C220.863 158.233 221.243 159.067 221.923 159.68C222.616 160.28 223.523 160.58 224.643 160.58C225.763 160.58 227.043 160.32 228.483 159.8L228.703 161.46C227.223 162.007 225.829 162.28 224.523 162.28C222.923 162.28 221.589 161.793 220.523 160.82C219.456 159.847 218.923 158.587 218.923 157.04C218.923 155.373 219.423 154.013 220.423 152.96C221.436 151.907 222.763 151.38 224.403 151.38C227.483 151.38 229.056 153.313 229.123 157.18H220.783ZM227.263 155.6C227.156 154.813 226.829 154.173 226.283 153.68C225.749 153.187 225.063 152.94 224.223 152.94C223.396 152.94 222.669 153.2 222.043 153.72C221.429 154.227 221.049 154.853 220.903 155.6H227.263ZM237.64 151.48C239.027 151.48 240.12 151.907 240.92 152.76C241.72 153.613 242.12 154.76 242.12 156.2V162H240.22V156.2C240.22 154.107 239.267 153.06 237.36 153.06C236.68 153.06 236 153.373 235.32 154C234.64 154.627 234.3 155.26 234.3 155.9V162H232.4V154.48C232.4 153.227 232.32 152.313 232.16 151.74H233.94C234.074 152.06 234.14 152.473 234.14 152.98C235.1 151.98 236.267 151.48 237.64 151.48ZM247.315 156.82C247.315 157.94 247.622 158.867 248.235 159.6C248.849 160.32 249.675 160.68 250.715 160.68C251.715 160.68 252.689 160.387 253.635 159.8L254.295 161.36C253.309 161.973 252.135 162.28 250.775 162.28C249.175 162.28 247.875 161.773 246.875 160.76C245.889 159.747 245.395 158.433 245.395 156.82C245.395 155.207 245.889 153.9 246.875 152.9C247.875 151.887 249.175 151.38 250.775 151.38C252.135 151.38 253.309 151.68 254.295 152.28L253.635 153.84C252.702 153.267 251.729 152.98 250.715 152.98C249.675 152.98 248.849 153.347 248.235 154.08C247.622 154.8 247.315 155.713 247.315 156.82ZM260.445 162.28C259.418 162.28 258.558 162 257.865 161.44C257.172 160.88 256.825 160.133 256.825 159.2C256.825 156.667 259.105 155.367 263.665 155.3C263.465 153.793 262.638 153.04 261.185 153.04C260.078 153.04 258.885 153.287 257.605 153.78L257.405 152.08C258.765 151.68 260.058 151.48 261.285 151.48C264.125 151.48 265.545 152.94 265.545 155.86V159.26C265.545 160.02 265.685 160.9 265.965 161.9L264.205 162.28L263.905 160.94C262.865 161.833 261.712 162.28 260.445 162.28ZM263.665 158.76V156.94C260.385 157.007 258.745 157.7 258.745 159.02C258.745 160.087 259.338 160.62 260.525 160.62C261.218 160.62 261.912 160.44 262.605 160.08C263.312 159.707 263.665 159.267 263.665 158.76ZM271.24 153.06C271.427 152.673 271.807 152.313 272.38 151.98C272.967 151.647 273.527 151.48 274.06 151.48C274.487 151.48 274.807 151.507 275.02 151.56V153.18C274.86 153.14 274.633 153.12 274.34 153.12C272.433 153.12 271.48 154.267 271.48 156.56V162H269.58V155.24C269.58 153.64 269.46 152.433 269.22 151.62H270.9C271.127 151.993 271.24 152.473 271.24 153.06ZM277.442 155.32C277.442 154.24 277.802 153.347 278.522 152.64C279.256 151.92 280.162 151.56 281.242 151.56H285.562V152.86H284.062C284.382 152.993 284.649 153.287 284.862 153.74C285.089 154.18 285.202 154.64 285.202 155.12C285.202 156.32 284.869 157.26 284.202 157.94C283.536 158.62 282.609 158.96 281.422 158.96C280.956 158.96 280.522 158.893 280.122 158.76C280.016 158.867 279.962 158.993 279.962 159.14C279.962 159.447 280.689 159.8 282.142 160.2C284.222 160.787 285.262 161.84 285.262 163.36C285.262 164.387 284.896 165.167 284.162 165.7C283.429 166.247 282.462 166.52 281.262 166.52C280.169 166.52 279.056 166.173 277.922 165.48L278.582 163.98C279.649 164.607 280.582 164.92 281.382 164.92C281.942 164.92 282.442 164.78 282.882 164.5C283.322 164.233 283.542 163.88 283.542 163.44C283.542 162.827 282.982 162.293 281.862 161.84C281.049 161.507 280.242 161.127 279.442 160.7C278.656 160.273 278.262 159.727 278.262 159.06C278.262 158.713 278.349 158.3 278.522 157.82C277.802 157.047 277.442 156.213 277.442 155.32ZM281.422 157.4C282.089 157.4 282.616 157.207 283.002 156.82C283.402 156.42 283.602 155.9 283.602 155.26C283.602 154.66 283.389 154.153 282.962 153.74C282.536 153.313 282.022 153.1 281.422 153.1C280.822 153.1 280.302 153.313 279.862 153.74C279.436 154.153 279.222 154.66 279.222 155.26C279.222 155.86 279.436 156.367 279.862 156.78C280.302 157.193 280.822 157.4 281.422 157.4ZM291.863 162.28C290.836 162.28 289.976 162 289.283 161.44C288.59 160.88 288.243 160.133 288.243 159.2C288.243 156.667 290.523 155.367 295.083 155.3C294.883 153.793 294.056 153.04 292.603 153.04C291.496 153.04 290.303 153.287 289.023 153.78L288.823 152.08C290.183 151.68 291.476 151.48 292.703 151.48C295.543 151.48 296.963 152.94 296.963 155.86V159.26C296.963 160.02 297.103 160.9 297.383 161.9L295.623 162.28L295.323 160.94C294.283 161.833 293.13 162.28 291.863 162.28ZM295.083 158.76V156.94C291.803 157.007 290.163 157.7 290.163 159.02C290.163 160.087 290.756 160.62 291.943 160.62C292.636 160.62 293.33 160.44 294.023 160.08C294.73 159.707 295.083 159.267 295.083 158.76ZM311.078 162H309.278C309.211 161.76 309.178 161.387 309.178 160.88C308.218 161.813 307.005 162.28 305.538 162.28C304.018 162.28 302.758 161.76 301.758 160.72C300.771 159.667 300.278 158.32 300.278 156.68C300.278 155.133 300.758 153.867 301.718 152.88C302.691 151.88 303.918 151.38 305.398 151.38C306.891 151.38 308.111 151.853 309.058 152.8V146.84H310.958V159.26C310.958 160.1 310.998 161.013 311.078 162ZM305.698 160.62C306.645 160.62 307.438 160.407 308.078 159.98C308.731 159.54 309.058 158.92 309.058 158.12V155.78C309.058 155.033 308.678 154.373 307.918 153.8C307.171 153.227 306.391 152.94 305.578 152.94C304.551 152.94 303.718 153.293 303.078 154C302.451 154.707 302.138 155.6 302.138 156.68C302.138 157.88 302.445 158.84 303.058 159.56C303.685 160.267 304.565 160.62 305.698 160.62ZM325.204 156.82C325.204 158.353 324.684 159.64 323.644 160.68C322.604 161.72 321.317 162.24 319.784 162.24C318.251 162.24 316.964 161.72 315.924 160.68C314.884 159.64 314.364 158.353 314.364 156.82C314.364 155.3 314.884 154.013 315.924 152.96C316.964 151.907 318.251 151.38 319.784 151.38C321.317 151.38 322.604 151.907 323.644 152.96C324.684 154.013 325.204 155.3 325.204 156.82ZM319.784 160.64C320.824 160.64 321.671 160.273 322.324 159.54C322.991 158.807 323.324 157.9 323.324 156.82C323.324 155.74 322.991 154.833 322.324 154.1C321.671 153.367 320.824 153 319.784 153C318.744 153 317.891 153.367 317.224 154.1C316.557 154.833 316.224 155.74 316.224 156.82C316.224 157.9 316.557 158.807 317.224 159.54C317.891 160.273 318.744 160.64 319.784 160.64ZM331.807 152.98C331.313 152.98 330.88 153.113 330.507 153.38C330.147 153.633 329.967 153.98 329.967 154.42C329.967 154.94 330.7 155.453 332.167 155.96C334.14 156.64 335.127 157.68 335.127 159.08C335.127 160.093 334.74 160.88 333.967 161.44C333.193 162 332.227 162.28 331.067 162.28C330.04 162.28 328.933 161.947 327.747 161.28L328.507 159.78C329.32 160.34 330.2 160.62 331.147 160.62C332.547 160.62 333.247 160.14 333.247 159.18C333.247 158.42 332.567 157.833 331.207 157.42C329.207 156.793 328.207 155.84 328.207 154.56C328.207 153.627 328.56 152.887 329.267 152.34C329.987 151.78 330.873 151.5 331.927 151.5C333.073 151.5 334.06 151.793 334.887 152.38L334.187 153.76C333.48 153.24 332.687 152.98 331.807 152.98ZM64.2831 202H62.4831C62.4165 201.76 62.3831 201.387 62.3831 200.88C61.4231 201.813 60.2098 202.28 58.7431 202.28C57.2231 202.28 55.9631 201.76 54.9631 200.72C53.9765 199.667 53.4831 198.32 53.4831 196.68C53.4831 195.133 53.9631 193.867 54.9231 192.88C55.8965 191.88 57.1231 191.38 58.6031 191.38C60.0965 191.38 61.3165 191.853 62.2631 192.8V186.84H64.1631V199.26C64.1631 200.1 64.2031 201.013 64.2831 202ZM58.9031 200.62C59.8498 200.62 60.6431 200.407 61.2831 199.98C61.9365 199.54 62.2631 198.92 62.2631 198.12V195.78C62.2631 195.033 61.8831 194.373 61.1231 193.8C60.3765 193.227 59.5965 192.94 58.7831 192.94C57.7565 192.94 56.9231 193.293 56.2831 194C55.6565 194.707 55.3431 195.6 55.3431 196.68C55.3431 197.88 55.6498 198.84 56.2631 199.56C56.8898 200.267 57.7698 200.62 58.9031 200.62ZM69.4291 197.18C69.5091 198.233 69.8891 199.067 70.5691 199.68C71.2624 200.28 72.1691 200.58 73.2891 200.58C74.4091 200.58 75.6891 200.32 77.1291 199.8L77.3491 201.46C75.8691 202.007 74.4757 202.28 73.1691 202.28C71.5691 202.28 70.2357 201.793 69.1691 200.82C68.1024 199.847 67.5691 198.587 67.5691 197.04C67.5691 195.373 68.0691 194.013 69.0691 192.96C70.0824 191.907 71.4091 191.38 73.0491 191.38C76.1291 191.38 77.7024 193.313 77.7691 197.18H69.4291ZM75.9091 195.6C75.8024 194.813 75.4757 194.173 74.9291 193.68C74.3957 193.187 73.7091 192.94 72.8691 192.94C72.0424 192.94 71.3157 193.2 70.6891 193.72C70.0757 194.227 69.6957 194.853 69.5491 195.6H75.9091ZM91.7242 202.28C90.6976 202.28 89.8376 202 89.1442 201.44C88.4509 200.88 88.1042 200.133 88.1042 199.2C88.1042 196.667 90.3842 195.367 94.9442 195.3C94.7442 193.793 93.9176 193.04 92.4642 193.04C91.3576 193.04 90.1642 193.287 88.8842 193.78L88.6842 192.08C90.0442 191.68 91.3376 191.48 92.5642 191.48C95.4042 191.48 96.8242 192.94 96.8242 195.86V199.26C96.8242 200.02 96.9642 200.9 97.2442 201.9L95.4842 202.28L95.1842 200.94C94.1442 201.833 92.9909 202.28 91.7242 202.28ZM94.9442 198.76V196.94C91.6642 197.007 90.0242 197.7 90.0242 199.02C90.0242 200.087 90.6176 200.62 91.8042 200.62C92.4976 200.62 93.1909 200.44 93.8842 200.08C94.5909 199.707 94.9442 199.267 94.9442 198.76ZM104.659 202.28C103.713 202.28 102.979 201.96 102.459 201.32C101.939 200.667 101.679 199.82 101.679 198.78V193.34H99.6394V191.78H101.679V188.98L103.579 188.16V191.78H106.859V193.34H103.579V198.76C103.579 199.973 103.966 200.58 104.739 200.58C105.259 200.58 105.819 200.473 106.419 200.26L106.639 201.84C105.946 202.133 105.286 202.28 104.659 202.28ZM110.753 197.18C110.833 198.233 111.213 199.067 111.893 199.68C112.587 200.28 113.493 200.58 114.613 200.58C115.733 200.58 117.013 200.32 118.453 199.8L118.673 201.46C117.193 202.007 115.8 202.28 114.493 202.28C112.893 202.28 111.56 201.793 110.493 200.82C109.427 199.847 108.893 198.587 108.893 197.04C108.893 195.373 109.393 194.013 110.393 192.96C111.407 191.907 112.733 191.38 114.373 191.38C117.453 191.38 119.027 193.313 119.093 197.18H110.753ZM117.233 195.6C117.127 194.813 116.8 194.173 116.253 193.68C115.72 193.187 115.033 192.94 114.193 192.94C113.367 192.94 112.64 193.2 112.013 193.72C111.4 194.227 111.02 194.853 110.873 195.6H117.233ZM127.611 191.48C128.998 191.48 130.091 191.907 130.891 192.76C131.691 193.613 132.091 194.76 132.091 196.2V202H130.191V196.2C130.191 194.107 129.238 193.06 127.331 193.06C126.651 193.06 125.971 193.373 125.291 194C124.611 194.627 124.271 195.26 124.271 195.9V202H122.371V194.48C122.371 193.227 122.291 192.313 122.131 191.74H123.911C124.044 192.06 124.111 192.473 124.111 192.98C125.071 191.98 126.238 191.48 127.611 191.48ZM146.166 202H144.366C144.299 201.76 144.266 201.387 144.266 200.88C143.306 201.813 142.093 202.28 140.626 202.28C139.106 202.28 137.846 201.76 136.846 200.72C135.859 199.667 135.366 198.32 135.366 196.68C135.366 195.133 135.846 193.867 136.806 192.88C137.779 191.88 139.006 191.38 140.486 191.38C141.979 191.38 143.199 191.853 144.146 192.8V186.84H146.046V199.26C146.046 200.1 146.086 201.013 146.166 202ZM140.786 200.62C141.733 200.62 142.526 200.407 143.166 199.98C143.819 199.54 144.146 198.92 144.146 198.12V195.78C144.146 195.033 143.766 194.373 143.006 193.8C142.259 193.227 141.479 192.94 140.666 192.94C139.639 192.94 138.806 193.293 138.166 194C137.539 194.707 137.226 195.6 137.226 196.68C137.226 197.88 137.533 198.84 138.146 199.56C138.773 200.267 139.653 200.62 140.786 200.62ZM151.312 197.18C151.392 198.233 151.772 199.067 152.452 199.68C153.145 200.28 154.052 200.58 155.172 200.58C156.292 200.58 157.572 200.32 159.012 199.8L159.232 201.46C157.752 202.007 156.359 202.28 155.052 202.28C153.452 202.28 152.119 201.793 151.052 200.82C149.985 199.847 149.452 198.587 149.452 197.04C149.452 195.373 149.952 194.013 150.952 192.96C151.965 191.907 153.292 191.38 154.932 191.38C158.012 191.38 159.585 193.313 159.652 197.18H151.312ZM157.792 195.6C157.685 194.813 157.359 194.173 156.812 193.68C156.279 193.187 155.592 192.94 154.752 192.94C153.925 192.94 153.199 193.2 152.572 193.72C151.959 194.227 151.579 194.853 151.432 195.6H157.792ZM164.59 193.06C164.776 192.673 165.156 192.313 165.73 191.98C166.316 191.647 166.876 191.48 167.41 191.48C167.836 191.48 168.156 191.507 168.37 191.56V193.18C168.21 193.14 167.983 193.12 167.69 193.12C165.783 193.12 164.83 194.267 164.83 196.56V202H162.93V195.24C162.93 193.64 162.81 192.433 162.57 191.62H164.25C164.476 191.993 164.59 192.473 164.59 193.06ZM180.249 197.18C180.329 198.233 180.709 199.067 181.389 199.68C182.083 200.28 182.989 200.58 184.109 200.58C185.229 200.58 186.509 200.32 187.949 199.8L188.169 201.46C186.689 202.007 185.296 202.28 183.989 202.28C182.389 202.28 181.056 201.793 179.989 200.82C178.923 199.847 178.389 198.587 178.389 197.04C178.389 195.373 178.889 194.013 179.889 192.96C180.903 191.907 182.229 191.38 183.869 191.38C186.949 191.38 188.523 193.313 188.589 197.18H180.249ZM186.729 195.6C186.623 194.813 186.296 194.173 185.749 193.68C185.216 193.187 184.529 192.94 183.689 192.94C182.863 192.94 182.136 193.2 181.509 193.72C180.896 194.227 180.516 194.853 180.369 195.6H186.729ZM197.107 191.48C198.494 191.48 199.587 191.907 200.387 192.76C201.187 193.613 201.587 194.76 201.587 196.2V202H199.687V196.2C199.687 194.107 198.734 193.06 196.827 193.06C196.147 193.06 195.467 193.373 194.787 194C194.107 194.627 193.767 195.26 193.767 195.9V202H191.867V194.48C191.867 193.227 191.787 192.313 191.627 191.74H193.407C193.541 192.06 193.607 192.473 193.607 192.98C194.567 191.98 195.734 191.48 197.107 191.48ZM214.559 196.82C214.559 197.94 214.866 198.867 215.479 199.6C216.093 200.32 216.919 200.68 217.959 200.68C218.959 200.68 219.933 200.387 220.879 199.8L221.539 201.36C220.553 201.973 219.379 202.28 218.019 202.28C216.419 202.28 215.119 201.773 214.119 200.76C213.133 199.747 212.639 198.433 212.639 196.82C212.639 195.207 213.133 193.9 214.119 192.9C215.119 191.887 216.419 191.38 218.019 191.38C219.379 191.38 220.553 191.68 221.539 192.28L220.879 193.84C219.946 193.267 218.973 192.98 217.959 192.98C216.919 192.98 216.093 193.347 215.479 194.08C214.866 194.8 214.559 195.713 214.559 196.82ZM227.689 202.28C226.662 202.28 225.802 202 225.109 201.44C224.416 200.88 224.069 200.133 224.069 199.2C224.069 196.667 226.349 195.367 230.909 195.3C230.709 193.793 229.882 193.04 228.429 193.04C227.322 193.04 226.129 193.287 224.849 193.78L224.649 192.08C226.009 191.68 227.302 191.48 228.529 191.48C231.369 191.48 232.789 192.94 232.789 195.86V199.26C232.789 200.02 232.929 200.9 233.209 201.9L231.449 202.28L231.149 200.94C230.109 201.833 228.956 202.28 227.689 202.28ZM230.909 198.76V196.94C227.629 197.007 225.989 197.7 225.989 199.02C225.989 200.087 226.582 200.62 227.769 200.62C228.462 200.62 229.156 200.44 229.849 200.08C230.556 199.707 230.909 199.267 230.909 198.76ZM240.164 192.98C239.671 192.98 239.238 193.113 238.864 193.38C238.504 193.633 238.324 193.98 238.324 194.42C238.324 194.94 239.058 195.453 240.524 195.96C242.498 196.64 243.484 197.68 243.484 199.08C243.484 200.093 243.098 200.88 242.324 201.44C241.551 202 240.584 202.28 239.424 202.28C238.398 202.28 237.291 201.947 236.104 201.28L236.864 199.78C237.678 200.34 238.558 200.62 239.504 200.62C240.904 200.62 241.604 200.14 241.604 199.18C241.604 198.42 240.924 197.833 239.564 197.42C237.564 196.793 236.564 195.84 236.564 194.56C236.564 193.627 236.918 192.887 237.624 192.34C238.344 191.78 239.231 191.5 240.284 191.5C241.431 191.5 242.418 191.793 243.244 192.38L242.544 193.76C241.838 193.24 241.044 192.98 240.164 192.98ZM256.85 196.82C256.85 198.353 256.33 199.64 255.29 200.68C254.25 201.72 252.964 202.24 251.43 202.24C249.897 202.24 248.61 201.72 247.57 200.68C246.53 199.64 246.01 198.353 246.01 196.82C246.01 195.3 246.53 194.013 247.57 192.96C248.61 191.907 249.897 191.38 251.43 191.38C252.964 191.38 254.25 191.907 255.29 192.96C256.33 194.013 256.85 195.3 256.85 196.82ZM251.43 200.64C252.47 200.64 253.317 200.273 253.97 199.54C254.637 198.807 254.97 197.9 254.97 196.82C254.97 195.74 254.637 194.833 253.97 194.1C253.317 193.367 252.47 193 251.43 193C250.39 193 249.537 193.367 248.87 194.1C248.204 194.833 247.87 195.74 247.87 196.82C247.87 197.9 248.204 198.807 248.87 199.54C249.537 200.273 250.39 200.64 251.43 200.64ZM277.971 202H276.171C276.104 201.76 276.071 201.387 276.071 200.88C275.111 201.813 273.897 202.28 272.431 202.28C270.911 202.28 269.651 201.76 268.651 200.72C267.664 199.667 267.171 198.32 267.171 196.68C267.171 195.133 267.651 193.867 268.611 192.88C269.584 191.88 270.811 191.38 272.291 191.38C273.784 191.38 275.004 191.853 275.951 192.8V186.84H277.851V199.26C277.851 200.1 277.891 201.013 277.971 202ZM272.591 200.62C273.537 200.62 274.331 200.407 274.971 199.98C275.624 199.54 275.951 198.92 275.951 198.12V195.78C275.951 195.033 275.571 194.373 274.811 193.8C274.064 193.227 273.284 192.94 272.471 192.94C271.444 192.94 270.611 193.293 269.971 194C269.344 194.707 269.031 195.6 269.031 196.68C269.031 197.88 269.337 198.84 269.951 199.56C270.577 200.267 271.457 200.62 272.591 200.62ZM283.117 197.18C283.197 198.233 283.577 199.067 284.257 199.68C284.95 200.28 285.857 200.58 286.977 200.58C288.097 200.58 289.377 200.32 290.817 199.8L291.037 201.46C289.557 202.007 288.163 202.28 286.857 202.28C285.257 202.28 283.923 201.793 282.857 200.82C281.79 199.847 281.257 198.587 281.257 197.04C281.257 195.373 281.757 194.013 282.757 192.96C283.77 191.907 285.097 191.38 286.737 191.38C289.817 191.38 291.39 193.313 291.457 197.18H283.117ZM289.597 195.6C289.49 194.813 289.163 194.173 288.617 193.68C288.083 193.187 287.397 192.94 286.557 192.94C285.73 192.94 285.003 193.2 284.377 193.72C283.763 194.227 283.383 194.853 283.237 195.6H289.597ZM312.472 206.3H310.572V201.04C309.678 201.867 308.538 202.28 307.152 202.28C305.592 202.28 304.305 201.74 303.292 200.66C302.292 199.58 301.792 198.233 301.792 196.62C301.792 195.14 302.278 193.9 303.252 192.9C304.225 191.887 305.445 191.38 306.912 191.38C308.258 191.38 309.458 191.82 310.512 192.7L310.732 191.6H312.592C312.512 192.267 312.472 193.427 312.472 195.08V206.3ZM303.632 196.64C303.632 197.853 303.945 198.82 304.572 199.54C305.198 200.26 306.078 200.62 307.212 200.62C308.118 200.62 308.905 200.347 309.572 199.8C310.238 199.24 310.572 198.547 310.572 197.72V196.04C310.572 195.28 310.192 194.573 309.432 193.92C308.672 193.267 307.892 192.94 307.092 192.94C306.092 192.94 305.265 193.3 304.612 194.02C303.958 194.727 303.632 195.6 303.632 196.64ZM326.68 201.88L324.84 202.24C324.64 201.76 324.46 201.18 324.3 200.5C323.087 201.687 321.894 202.28 320.72 202.28C317.894 202.28 316.48 200.64 316.48 197.36V191.78H318.38V197.18C318.38 199.447 319.24 200.58 320.96 200.58C321.707 200.58 322.427 200.3 323.12 199.74C323.814 199.167 324.16 198.527 324.16 197.82V191.78H326.06V199.26C326.06 199.967 326.267 200.84 326.68 201.88ZM331.179 197.18C331.259 198.233 331.639 199.067 332.319 199.68C333.012 200.28 333.919 200.58 335.039 200.58C336.159 200.58 337.439 200.32 338.879 199.8L339.099 201.46C337.619 202.007 336.226 202.28 334.919 202.28C333.319 202.28 331.986 201.793 330.919 200.82C329.852 199.847 329.319 198.587 329.319 197.04C329.319 195.373 329.819 194.013 330.819 192.96C331.832 191.907 333.159 191.38 334.799 191.38C337.879 191.38 339.452 193.313 339.519 197.18H331.179ZM337.659 195.6C337.552 194.813 337.226 194.173 336.679 193.68C336.146 193.187 335.459 192.94 334.619 192.94C333.792 192.94 333.066 193.2 332.439 193.72C331.826 194.227 331.446 194.853 331.299 195.6H337.659ZM143.227 232.98C142.733 232.98 142.3 233.113 141.927 233.38C141.567 233.633 141.387 233.98 141.387 234.42C141.387 234.94 142.12 235.453 143.587 235.96C145.56 236.64 146.547 237.68 146.547 239.08C146.547 240.093 146.16 240.88 145.387 241.44C144.613 242 143.647 242.28 142.487 242.28C141.46 242.28 140.353 241.947 139.167 241.28L139.927 239.78C140.74 240.34 141.62 240.62 142.567 240.62C143.967 240.62 144.667 240.14 144.667 239.18C144.667 238.42 143.987 237.833 142.627 237.42C140.627 236.793 139.627 235.84 139.627 234.56C139.627 233.627 139.98 232.887 140.687 232.34C141.407 231.78 142.293 231.5 143.347 231.5C144.493 231.5 145.48 231.793 146.307 232.38L145.607 233.76C144.9 233.24 144.107 232.98 143.227 232.98ZM150.933 237.18C151.013 238.233 151.393 239.067 152.073 239.68C152.766 240.28 153.673 240.58 154.793 240.58C155.913 240.58 157.193 240.32 158.633 239.8L158.853 241.46C157.373 242.007 155.98 242.28 154.673 242.28C153.073 242.28 151.74 241.793 150.673 240.82C149.606 239.847 149.073 238.587 149.073 237.04C149.073 235.373 149.573 234.013 150.573 232.96C151.586 231.907 152.913 231.38 154.553 231.38C157.633 231.38 159.206 233.313 159.273 237.18H150.933ZM157.413 235.6C157.306 234.813 156.98 234.173 156.433 233.68C155.9 233.187 155.213 232.94 154.373 232.94C153.546 232.94 152.82 233.2 152.193 233.72C151.58 234.227 151.2 234.853 151.053 235.6H157.413ZM171.988 233.06C172.175 232.673 172.555 232.313 173.128 231.98C173.715 231.647 174.275 231.48 174.808 231.48C175.235 231.48 175.555 231.507 175.768 231.56V233.18C175.608 233.14 175.381 233.12 175.088 233.12C173.181 233.12 172.228 234.267 172.228 236.56V242H170.328V235.24C170.328 233.64 170.208 232.433 169.968 231.62H171.648C171.875 231.993 171.988 232.473 171.988 233.06ZM179.87 237.18C179.95 238.233 180.33 239.067 181.01 239.68C181.704 240.28 182.61 240.58 183.73 240.58C184.85 240.58 186.13 240.32 187.57 239.8L187.79 241.46C186.31 242.007 184.917 242.28 183.61 242.28C182.01 242.28 180.677 241.793 179.61 240.82C178.544 239.847 178.01 238.587 178.01 237.04C178.01 235.373 178.51 234.013 179.51 232.96C180.524 231.907 181.85 231.38 183.49 231.38C186.57 231.38 188.144 233.313 188.21 237.18H179.87ZM186.35 235.6C186.244 234.813 185.917 234.173 185.37 233.68C184.837 233.187 184.15 232.94 183.31 232.94C182.484 232.94 181.757 233.2 181.13 233.72C180.517 234.227 180.137 234.853 179.99 235.6H186.35ZM201.448 246.3H199.548V241.04C198.655 241.867 197.515 242.28 196.128 242.28C194.568 242.28 193.282 241.74 192.268 240.66C191.268 239.58 190.768 238.233 190.768 236.62C190.768 235.14 191.255 233.9 192.228 232.9C193.202 231.887 194.422 231.38 195.888 231.38C197.235 231.38 198.435 231.82 199.488 232.7L199.708 231.6H201.568C201.488 232.267 201.448 233.427 201.448 235.08V246.3ZM192.608 236.64C192.608 237.853 192.922 238.82 193.548 239.54C194.175 240.26 195.055 240.62 196.188 240.62C197.095 240.62 197.882 240.347 198.548 239.8C199.215 239.24 199.548 238.547 199.548 237.72V236.04C199.548 235.28 199.168 234.573 198.408 233.92C197.648 233.267 196.868 232.94 196.068 232.94C195.068 232.94 194.242 233.3 193.588 234.02C192.935 234.727 192.608 235.6 192.608 236.64ZM215.657 241.88L213.817 242.24C213.617 241.76 213.437 241.18 213.277 240.5C212.064 241.687 210.87 242.28 209.697 242.28C206.87 242.28 205.457 240.64 205.457 237.36V231.78H207.357V237.18C207.357 239.447 208.217 240.58 209.937 240.58C210.684 240.58 211.404 240.3 212.097 239.74C212.79 239.167 213.137 238.527 213.137 237.82V231.78H215.037V239.26C215.037 239.967 215.244 240.84 215.657 241.88ZM220.916 242H219.016V231.78H220.916V242ZM219.916 227.32C220.316 227.32 220.656 227.46 220.936 227.74C221.229 228.02 221.376 228.36 221.376 228.76C221.376 229.16 221.229 229.5 220.936 229.78C220.656 230.06 220.316 230.2 219.916 230.2C219.516 230.2 219.176 230.06 218.896 229.78C218.616 229.5 218.476 229.16 218.476 228.76C218.476 228.36 218.616 228.02 218.896 227.74C219.176 227.46 219.516 227.32 219.916 227.32ZM226.058 237.18C226.138 238.233 226.518 239.067 227.198 239.68C227.891 240.28 228.798 240.58 229.918 240.58C231.038 240.58 232.318 240.32 233.758 239.8L233.978 241.46C232.498 242.007 231.105 242.28 229.798 242.28C228.198 242.28 226.865 241.793 225.798 240.82C224.731 239.847 224.198 238.587 224.198 237.04C224.198 235.373 224.698 234.013 225.698 232.96C226.711 231.907 228.038 231.38 229.678 231.38C232.758 231.38 234.331 233.313 234.398 237.18H226.058ZM232.538 235.6C232.431 234.813 232.105 234.173 231.558 233.68C231.025 233.187 230.338 232.94 229.498 232.94C228.671 232.94 227.945 233.2 227.318 233.72C226.705 234.227 226.325 234.853 226.178 235.6H232.538ZM239.336 233.06C239.522 232.673 239.902 232.313 240.476 231.98C241.062 231.647 241.622 231.48 242.156 231.48C242.582 231.48 242.902 231.507 243.116 231.56V233.18C242.956 233.14 242.729 233.12 242.436 233.12C240.529 233.12 239.576 234.267 239.576 236.56V242H237.676V235.24C237.676 233.64 237.556 232.433 237.316 231.62H238.996C239.222 231.993 239.336 232.473 239.336 233.06ZM248.978 242.28C247.951 242.28 247.091 242 246.398 241.44C245.705 240.88 245.358 240.133 245.358 239.2C245.358 236.667 247.638 235.367 252.198 235.3C251.998 233.793 251.171 233.04 249.718 233.04C248.611 233.04 247.418 233.287 246.138 233.78L245.938 232.08C247.298 231.68 248.591 231.48 249.818 231.48C252.658 231.48 254.078 232.94 254.078 235.86V239.26C254.078 240.02 254.218 240.9 254.498 241.9L252.738 242.28L252.438 240.94C251.398 241.833 250.245 242.28 248.978 242.28ZM252.198 238.76V236.94C248.918 237.007 247.278 237.7 247.278 239.02C247.278 240.087 247.871 240.62 249.058 240.62C249.751 240.62 250.445 240.44 251.138 240.08C251.845 239.707 252.198 239.267 252.198 238.76Z" fill="#565555"/>
<g filter="url(#filter1_d_29_960)">
<path opacity="0.1" d="M68.0707 275.316H57.0999V286.277H68.0707V275.316Z" fill="#27AE60"/>
<path opacity="0.1" d="M68.0707 302.958H57.0999V313.919H68.0707V302.958Z" fill="#27AE60"/>
<path opacity="0.1" d="M68.0707 330.122H57.0999V341.083H68.0707V330.122Z" fill="#27AE60"/>
<path opacity="0.1" d="M68.0707 357.287H57.0999V368.724H68.0707V357.287Z" fill="#27AE60"/>
<path opacity="0.1" d="M68.0707 384.928H57.0999V395.889H68.0707V384.928Z" fill="#27AE60"/>
<path opacity="0.1" d="M57.0999 419.241V412.093H68.0707V418.224L57.0999 419.241Z" fill="#27AE60"/>
<path opacity="0.1" d="M73.0791 475C94.0222 475 111 472.226 111 468.805C111 465.383 94.0222 462.609 73.0791 462.609C52.136 462.609 35.1583 465.383 35.1583 468.805C35.1583 472.226 52.136 475 73.0791 475Z" fill="#27AE60"/>
<path d="M107.572 319.756C107.572 319.756 106.03 319.542 106.03 317.305C106.03 315.068 104.927 310.879 104.927 310.879C104.927 310.879 103.972 303.591 102.654 302.436C101.335 301.28 99.6408 294.496 99.6408 294.496C99.6408 294.496 99.3512 290.815 98.7604 290.022C98.1696 289.23 97.3714 287.29 96.1936 284.522C95.0159 281.754 90.1171 279.857 90.1171 279.857C90.1171 279.857 81.2391 274.72 78.7232 273.045C78.4932 272.907 78.2781 272.744 78.0815 272.561C77.6433 271.991 75.7339 271.98 75.7339 271.98C75.5344 270.719 75.3426 269.275 75.28 267.967C75.28 267.826 75.28 267.686 75.28 267.545C78.0854 265.891 80.1985 263.282 81.2313 260.199C81.2783 260.05 81.3174 259.898 81.3604 259.746C81.5321 259.693 81.6906 259.604 81.8255 259.486C81.9604 259.368 82.0686 259.222 82.143 259.059C82.366 258.555 82.3738 257.97 82.6555 257.497C82.9842 256.943 83.6103 256.646 84.1033 256.233C85.3475 255.175 85.6684 253.398 85.6097 251.786C85.5705 250.475 85.3592 249.155 85.4414 247.855C85.4414 247.746 85.4414 247.637 85.4649 247.527C85.4884 247.336 85.5158 247.137 85.551 246.95C85.7427 245.982 86.1614 245.068 86.3961 244.108C86.6309 243.148 86.6544 242.066 86.1066 241.239C85.3045 240.025 83.6337 239.783 82.1665 239.677C80.5035 239.537 79.0363 239.716 77.9524 238.338C77.4553 237.619 76.8948 236.944 76.2778 236.324C76.0587 236.121 73.9301 234.821 73.9301 234.739C71.8475 233.773 69.4849 233.591 67.2785 234.228C66.1712 234.548 65.1343 235.071 64.0113 235.332C61.6011 235.902 58.823 235.286 56.7728 236.664C55.6302 237.444 54.9455 238.69 54.3038 239.896C53.7821 240.89 53.2526 241.885 52.7152 242.882C51.8466 244.518 50.9702 246.181 50.6063 247.992C50.5302 248.388 50.4818 248.788 50.4615 249.19V249.19C50.4615 249.335 50.4615 249.479 50.4615 249.624C50.4615 249.686 50.4615 249.749 50.4615 249.811C50.4615 249.944 50.4615 250.076 50.485 250.201C50.5085 250.326 50.485 250.361 50.5124 250.443C50.5398 250.525 50.5476 250.709 50.5711 250.834C50.5945 250.959 50.6415 251.181 50.6884 251.349C50.6884 251.423 50.7354 251.494 50.7589 251.568C50.7823 251.642 50.845 251.829 50.8958 251.958C50.9467 252.087 50.9506 252.095 50.9819 252.161C51.0406 252.298 51.111 252.43 51.1814 252.551C51.2127 252.602 51.2362 252.653 51.2675 252.704C51.3748 252.886 51.4951 253.061 51.6275 253.227C52.4609 254.269 53.6973 254.933 54.609 255.909C54.609 255.948 54.609 255.987 54.609 256.026C54.609 256.131 54.609 256.236 54.609 256.346C54.6648 258.522 55.2529 260.653 56.3222 262.551C57.3915 264.449 58.9095 266.058 60.7442 267.237C60.7442 267.385 60.7638 267.537 60.7716 267.69C60.8479 268.847 60.8335 270.009 60.7285 271.164C60.5689 270.977 60.3693 270.828 60.1446 270.728C59.9198 270.628 59.6755 270.58 59.4295 270.586C59.2614 270.578 59.0929 270.592 58.9287 270.629L58.8935 270.602V270.637C58.0327 270.848 56.9723 271.742 55.9589 274.283C55.9589 274.283 52.8757 277.749 50.528 277.605C48.1804 277.46 42.2369 281.216 42.2369 281.216C42.2369 281.216 36.4382 284.967 35.194 288.793C34.4984 290.962 33.6633 293.085 32.6937 295.148L25.506 309.872L24.1874 321.583C24.1874 321.583 24.9191 326.779 24.7744 327.575C24.6296 328.372 27.7833 335.515 27.7833 335.515C27.7833 335.515 38.2029 353.776 42.46 354.713L42.7651 354.502C42.9481 354.595 43.1411 354.665 43.3403 354.713L44.2168 354.1C44.271 354.787 44.2474 355.477 44.1463 356.158C43.5633 357.965 44.3694 369.731 45.3945 372.038C46.4196 374.345 46.0558 404.598 46.0558 404.598L45.911 407.264C45.911 407.264 45.911 407.35 45.9462 407.498L45.911 408.131L46.0166 408.185C46.1262 409.033 46.0905 409.894 45.911 410.73C45.5432 411.901 45.3945 415.208 45.3945 415.208C45.3945 415.208 42.4599 433.898 43.8529 437.654C45.2458 441.409 46.4236 445.523 46.4236 445.523C46.4236 445.523 47.8908 450.208 46.494 450.988C45.0971 451.769 41.1414 453.155 41.9474 455.103C42.6908 456.906 45.5119 461.739 45.9306 462.446L45.8953 462.836L45.3202 469.054C45.4133 469.876 45.6365 470.677 45.9814 471.428C46.6114 472.786 47.8321 474.188 50.1641 474.036C50.5554 474.008 51.0054 473.965 51.4475 473.907C55.7085 473.333 60.9516 471.436 60.9516 471.436C60.6797 471.264 60.4312 471.058 60.2121 470.823V470.823C60.0026 470.62 59.8367 470.378 59.7243 470.109C59.612 469.841 59.5556 469.552 59.5586 469.261C59.6212 468.125 57.4966 462.735 56.9645 461.403L56.8432 461.107C56.8432 461.107 61.6872 456.052 60.8811 451.578C60.8811 451.578 55.5207 448.455 57.2853 446.737C59.05 445.02 62.2036 440.101 62.2036 440.101C62.2036 440.101 62.3484 421.696 62.2036 418.951C62.0527 417.043 62.1434 415.123 62.4736 413.236C62.5323 412.955 62.6027 412.678 62.6771 412.401C65.1197 412.769 67.5863 412.955 70.0565 412.959C70.9591 412.959 71.872 412.941 72.7954 412.905C72.7954 413.165 72.8072 413.446 72.8307 413.748C73.0341 418.307 73.4136 426.306 73.7227 429.277C74.161 433.531 76.583 445.012 76.583 445.012C76.583 445.012 71.962 447.967 77.389 455.263C77.389 455.263 77.389 457.902 77.029 458.288C76.6444 459.54 76.3348 460.814 76.1017 462.102C75.8748 463.472 75.7809 464.866 76.1487 465.584C77.029 467.31 82.3112 467.169 82.3112 467.169C82.3537 467.159 82.3969 467.153 82.4404 467.15C83.4374 467.044 84.4454 467.139 85.4055 467.427C86.3655 467.715 87.2583 468.191 88.0317 468.828C90.0389 470.436 97.6531 469.734 101.781 469.218C103.397 469.012 104.477 468.828 104.477 468.828C104.529 468.646 104.547 468.455 104.532 468.266V468.266C104.489 467.255 103.694 465.038 98.3104 463.059C98.3104 463.059 93.2473 459.662 93.3178 456.703H93.2043H92.6213C92.9891 456.692 93.2473 456.692 93.2473 456.692C93.2473 456.692 91.2636 449.474 92.0735 448.884C92.8835 448.295 90.4576 440.296 90.4576 440.296C90.4576 440.296 89.0685 426.868 88.9903 425.931C88.9955 425.124 89.1194 424.321 89.3581 423.55L88.9903 416.184C88.9903 416.184 88.9198 413.736 88.9903 412.94C88.9825 412.249 88.9276 411.559 88.8259 410.875C88.7907 410.602 88.7555 410.317 88.7164 410.036C90.6141 409.555 91.8466 409.114 91.8466 409.114L91.6275 383.487C93.2395 380.364 93.5369 373.509 93.529 368.653C93.529 365.53 93.3882 363.219 93.3882 363.219L95.5911 359.632C95.5911 359.632 96.0997 355.338 95.2937 354.397C94.9376 353.972 95.0981 353.53 95.3915 353.167C95.5459 353.041 95.7094 352.926 95.8806 352.824C95.8613 352.797 95.8443 352.768 95.8297 352.738C95.9836 352.61 96.1471 352.494 96.3188 352.391C96.3188 352.391 95.5363 351.181 96.2367 350.669C96.894 351.114 97.4809 351.469 97.927 351.723C97.8957 352.008 97.8644 352.172 97.8644 352.172L98.0522 351.782C98.4826 352.024 98.7447 352.172 98.7447 352.172C98.7447 352.172 102.196 345.313 102.121 344.306C102.047 343.299 104.469 339.036 104.469 339.036C104.469 339.036 104.763 336.796 106.085 335.859C107.408 334.922 107.11 328.133 107.11 328.133C107.11 328.133 107.478 324.597 108.358 323.156C109.239 321.716 107.572 319.756 107.572 319.756ZM41.5404 316.747L41.607 318.382C41.2157 317.754 40.934 317.305 40.934 317.305L41.5404 316.747Z" fill="url(#paint0_linear_29_960)"/>
<path d="M99.0752 349.418L98.2338 352.997C98.2338 352.997 91.4949 349.554 90.2835 345.196C89.072 340.838 92.3129 339.177 92.3129 339.177L98.5961 341.83L99.0752 349.418Z" fill="white"/>
<path opacity="0.1" d="M99.0752 349.418L98.2338 352.997C98.2338 352.997 91.4949 349.554 90.2835 345.196C89.072 340.838 92.3129 339.177 92.3129 339.177L98.5961 341.83L99.0752 349.418Z" fill="black"/>
<path d="M60.9158 471.469C60.9158 471.469 54.6778 473.749 50.3891 474.036C48.1122 474.187 46.9153 472.799 46.2993 471.462C45.9646 470.724 45.7463 469.94 45.6521 469.136L46.2174 462.992L46.5137 459.724L55.6252 457.367L56.9157 461.294L57.0366 461.588C57.5512 462.902 59.6332 468.229 59.5708 469.341C59.5658 469.629 59.6195 469.915 59.7287 470.181C59.838 470.448 60.0004 470.69 60.2063 470.892C60.4172 471.113 60.6557 471.308 60.9158 471.469V471.469Z" fill="white"/>
<path d="M103.839 468.227C103.856 468.413 103.837 468.601 103.785 468.781C103.785 468.781 90.3717 470.978 87.628 468.781C86.8567 468.14 85.9578 467.663 84.9886 467.383C84.0194 467.102 83.0013 467.023 81.9994 467.151C81.9994 467.151 76.8098 467.29 75.9436 465.61C75.583 464.905 75.6771 463.537 75.9005 462.192C76.1287 460.927 76.4323 459.677 76.8099 458.447L77.0176 458.285L78.2523 457.31L92.7078 456.89H92.8175C92.747 459.796 97.721 463.129 97.721 463.129C103.016 465.055 103.796 467.232 103.839 468.227Z" fill="white"/>
<path opacity="0.1" d="M103.841 468.215C103.855 468.404 103.835 468.593 103.782 468.774C103.782 468.774 90.3715 470.987 87.6322 468.774C86.8606 468.127 85.9611 467.647 84.9914 467.365C84.0217 467.082 83.0031 467.003 82.0007 467.132C82.0007 467.132 76.8081 467.272 75.942 465.58C75.5854 464.869 75.6756 463.491 75.8989 462.133C77.8976 462.331 81.0523 462.824 82.2907 464.004C84.164 465.789 87.3383 467.575 89.2821 467.718C90.8183 467.812 99.9533 468.099 103.841 468.215Z" fill="black"/>
<path opacity="0.1" d="M60.9159 471.335C60.9159 471.335 54.8087 473.733 50.6101 474.035C48.381 474.194 47.2092 472.734 46.6061 471.327C48.1634 471.886 50.32 472.469 51.4536 471.935C52.7972 471.294 57.5608 470.886 60.2326 470.711C60.4341 470.95 60.6638 471.16 60.9159 471.335V471.335Z" fill="black"/>
<path d="M70.3572 286.762C65.1991 284.725 58.564 277.992 60.2209 274.846C60.587 274.051 60.8056 273.195 60.8656 272.32C60.9722 271.131 60.9879 269.936 60.9125 268.745C60.7962 266.793 60.5652 264.849 60.2209 262.925C60.2209 262.925 76.3242 263.295 75.3863 265.706C75.1128 266.417 75.0659 267.644 75.144 269.015C75.2222 270.385 75.4137 271.946 75.6169 273.261C75.8943 275.06 76.1796 276.439 76.1796 276.439C76.1796 276.439 75.1909 277.841 74.6165 277.916C74.0421 277.992 77.7582 289.682 70.3572 286.762Z" fill="#CF6F80"/>
<path opacity="0.1" d="M57.0999 461.544L56.9773 461.674C52.1067 455.959 46.2161 463.086 46.2161 463.086L46.1291 462.932L46.4296 459.699L55.6688 457.367L56.9773 461.252L57.0999 461.544Z" fill="black"/>
<path opacity="0.1" d="M92.8743 457.32C92.8743 457.32 89.2996 457.249 87.3931 458.92C85.4866 460.592 76.2718 459.279 76.669 458.92C76.7849 458.738 76.8556 458.532 76.8756 458.317L78.1267 457.32L92.775 456.89C92.8306 457.166 92.8743 457.32 92.8743 457.32Z" fill="black"/>
<path d="M63.2603 411.68C62.9972 412.325 62.7971 412.994 62.6625 413.677C62.3346 415.548 62.2435 417.453 62.3912 419.346C62.5367 422.071 62.3912 440.335 62.3912 440.335C62.3912 440.335 59.2807 445.206 57.5426 446.923C55.8045 448.64 61.0818 451.723 61.0818 451.723C61.8682 456.166 57.1022 461.18 57.1022 461.18C52.2575 455.379 46.3983 462.609 46.3983 462.609C46.3983 462.609 43.2131 457.158 42.4187 455.212C41.6244 453.265 45.5292 451.922 46.9016 451.128C48.274 450.333 46.8308 445.677 46.8308 445.677C46.8308 445.677 45.6747 441.593 44.2984 437.867C42.9221 434.141 45.8163 415.597 45.8163 415.597C45.8163 415.597 45.9657 412.299 46.3236 411.151C46.5021 410.322 46.538 409.469 46.4298 408.628C46.4062 408.343 46.3786 408.11 46.359 407.946C46.3393 407.783 46.3236 407.713 46.3236 407.713L46.3786 407.619L48.3448 403.991C48.3448 403.991 64.204 409.395 63.2603 411.68Z" fill="#27AE60"/>
<path d="M92.8743 456.899C92.8743 456.899 89.2996 456.825 87.3931 458.46C85.4866 460.095 76.272 458.819 76.6691 458.46C77.0663 458.101 77.0306 455.448 77.0306 455.448C71.6249 448.194 76.2362 445.252 76.2362 445.252C76.2362 445.252 73.8253 433.84 73.3884 429.606C73.0826 426.653 72.7052 418.681 72.5027 414.167C72.4153 412.216 72.3636 410.87 72.3636 410.87L76.7406 410.016L77.3086 409.906L87.9611 407.803C87.9611 407.803 88.255 409.754 88.4536 411.35C88.5541 412.031 88.6085 412.718 88.6165 413.406C88.5489 414.187 88.6165 416.633 88.6165 416.633L88.9819 423.953C88.7461 424.721 88.6231 425.518 88.6165 426.321C88.6919 427.257 90.0781 440.605 90.0781 440.605C90.0781 440.605 92.489 448.573 91.6668 449.146C90.8447 449.72 92.8743 456.899 92.8743 456.899Z" fill="#27AE60"/>
<path opacity="0.1" d="M75.1873 265.727C74.9212 266.444 74.8756 267.681 74.9516 269.062C72.854 270.392 70.4425 271.073 67.9944 271.025C65.5462 270.976 63.1605 270.202 61.1115 268.79C60.9983 266.823 60.7737 264.864 60.4388 262.925C60.4388 262.925 76.0993 263.298 75.1873 265.727Z" fill="black"/>
<path d="M81.4187 257.129C81.4611 260.646 80.0951 264.036 77.6212 266.553C75.1472 269.07 71.768 270.507 68.2268 270.55C64.6857 270.592 61.2727 269.235 58.7388 266.778C56.2048 264.32 54.7574 260.964 54.715 257.446C54.715 257.338 54.715 257.237 54.715 257.129C54.715 253.61 56.1221 250.236 58.6268 247.748C61.1315 245.26 64.5286 243.863 68.0707 243.863C71.6129 243.863 75.01 245.26 77.5147 247.748C80.0194 250.236 81.4265 253.61 81.4265 257.129H81.4187Z" fill="#CF6F80"/>
<path opacity="0.1" d="M70.3572 286.766C65.1991 284.747 58.564 278.077 60.2209 274.96C60.587 274.173 60.8056 273.324 60.8656 272.457L67.9267 278.305L72.2954 281.914L75.6169 273.401C75.8943 275.184 76.1796 276.55 76.1796 276.55C76.1796 276.55 75.1909 277.939 74.6165 278.014C74.0421 278.089 77.7582 289.659 70.3572 286.766Z" fill="black"/>
<path d="M88.5814 312.339L82.7049 411.113L75.041 411.616L55.192 354.343L58.4476 286.346L59.1368 271.98L67.9612 279.231L72.315 282.804L75.7225 274.127L82.0585 279.652L88.5814 312.339Z" fill="#27AE60"/>
<path opacity="0.1" d="M63.2599 411.551C62.994 412.188 62.7916 412.848 62.6556 413.522C56.9571 412.674 51.4224 411.004 46.2364 408.568L46.1291 408.514L46.1649 407.896V407.573L48.1527 403.991C48.1527 403.991 64.214 409.295 63.2599 411.551Z" fill="black"/>
<path opacity="0.1" d="M77.1335 413.489C75.6033 413.74 74.0597 413.91 72.51 413.999C72.418 411.992 72.3636 410.608 72.3636 410.608L76.9956 409.709L77.1335 413.489Z" fill="black"/>
<path opacity="0.1" d="M88.5814 411.376C85.8016 412.103 81.5047 412.92 77.6653 412.409L77.6106 409.922L88.0966 407.803C88.0966 407.803 88.3742 409.753 88.5814 411.376Z" fill="black"/>
<path opacity="0.1" d="M77.6106 412.944C61.4755 415.675 46.6981 407.846 46.6981 407.846L46.8397 405.194C46.8397 405.194 47.2057 375.124 46.1904 372.819C45.1751 370.514 44.3841 358.839 44.9586 357.057C45.5332 355.274 42.8611 328.36 42.8611 328.36L42.4282 317.439L26.5724 311.053L33.6562 296.415C34.6127 294.363 35.4356 292.252 36.1197 290.096C37.3515 286.293 43.0696 282.56 43.0696 282.56C43.0696 282.56 48.9334 278.831 51.2513 278.971C53.5693 279.112 56.6074 275.671 56.6074 275.671C58.8506 270.004 60.8812 272.551 60.8812 272.551C60.8812 272.824 60.8812 272.551 60.771 273.39C59.984 279.611 73.4981 299.27 73.6909 299.621L74.9936 330.693L76.2962 370.014L77.6106 412.944Z" fill="black"/>
<path d="M75.7026 411.991C59.722 414.721 45.0822 406.893 45.0822 406.893L45.2264 404.241C45.2264 404.241 45.585 374.171 44.5794 371.866C43.5738 369.561 42.7903 357.874 43.3633 356.076C43.9363 354.278 41.2741 327.392 41.2741 327.392L40.8415 316.47L25.1415 310.085L32.1574 295.446C33.1026 293.394 33.9175 291.285 34.5973 289.131C35.8173 285.34 41.5002 281.603 41.5002 281.603C41.5002 281.603 47.3078 277.874 49.5996 278.014C51.8915 278.155 54.9161 274.718 54.9161 274.718C57.1417 269.051 59.5934 271.598 59.5934 271.598C59.5934 271.871 59.3595 271.988 59.4842 272.436C61.1992 278.471 71.6607 298.317 71.8517 298.668L73.1418 329.74L74.4047 369.081L75.7026 411.991Z" fill="white"/>
<path opacity="0.1" d="M72.8406 300.098C71.1142 299.38 61.9688 288.972 61.9688 288.972V286.603C61.6361 285.823 59.6551 286.299 58.0539 286.845L58.7429 272.457L59.5259 273.105C61.2367 279.138 72.6527 299.751 72.8406 300.098Z" fill="black"/>
<path d="M73.3176 299.621C71.5877 298.899 62.4448 288.491 62.4448 288.491V286.117C62.1121 285.336 60.1356 285.813 58.5309 286.359L59.208 271.98L59.9908 272.624C61.7168 278.652 73.1258 299.27 73.3176 299.621Z" fill="white"/>
<path opacity="0.1" d="M47.0037 351.281C47.2174 351.281 58.0853 350.138 58.0853 350.138C58.0853 350.138 64.6659 363.084 64.2345 366.229C63.803 369.374 63.0217 372.165 60.3747 371.672C57.7277 371.178 46.1291 372.061 46.1291 372.061L47.0037 351.281Z" fill="black"/>
<path d="M46.5265 350.329C46.7441 350.329 57.6099 349.185 57.6099 349.185C57.6099 349.185 64.1853 362.159 63.7578 365.272C63.3303 368.384 62.5414 371.212 59.8988 370.718C57.2562 370.224 45.6521 371.107 45.6521 371.107L46.5265 350.329Z" fill="white"/>
<path d="M54.4869 344.419C54.4869 344.419 64.5106 349.823 64.7254 351.468C64.9403 353.112 59.6237 350.747 58.4753 350.457C57.7189 350.277 56.9496 350.157 56.1744 350.097L48.514 350.305L54.4869 344.419Z" fill="#CF6F80"/>
<path opacity="0.1" d="M69.9787 301.051C70.5056 301.051 70.9327 300.518 70.9327 299.86C70.9327 299.202 70.5056 298.668 69.9787 298.668C69.4518 298.668 69.0247 299.202 69.0247 299.86C69.0247 300.518 69.4518 301.051 69.9787 301.051Z" fill="black"/>
<path d="M69.9787 300.575C70.5056 300.575 70.9327 300.041 70.9327 299.383C70.9327 298.725 70.5056 298.192 69.9787 298.192C69.4518 298.192 69.0247 298.725 69.0247 299.383C69.0247 300.041 69.4518 300.575 69.9787 300.575Z" fill="#3F3D56"/>
<path opacity="0.1" d="M71.8867 346.325C72.4135 346.325 72.8406 345.899 72.8406 345.372C72.8406 344.846 72.4135 344.419 71.8867 344.419C71.3598 344.419 70.9327 344.846 70.9327 345.372C70.9327 345.899 71.3598 346.325 71.8867 346.325Z" fill="black"/>
<path d="M71.8867 346.325C72.4135 346.325 72.8406 345.792 72.8406 345.134C72.8406 344.476 72.4135 343.943 71.8867 343.943C71.3598 343.943 70.9327 344.476 70.9327 345.134C70.9327 345.792 71.3598 346.325 71.8867 346.325Z" fill="#3F3D56"/>
<path opacity="0.1" d="M70.9327 323.927C71.4596 323.927 71.8867 323.393 71.8867 322.735C71.8867 322.077 71.4596 321.544 70.9327 321.544C70.4058 321.544 69.9787 322.077 69.9787 322.735C69.9787 323.393 70.4058 323.927 70.9327 323.927Z" fill="black"/>
<path d="M70.9327 323.45C71.4596 323.45 71.8867 322.917 71.8867 322.259C71.8867 321.601 71.4596 321.067 70.9327 321.067C70.4058 321.067 69.9787 321.601 69.9787 322.259C69.9787 322.917 70.4058 323.45 70.9327 323.45Z" fill="#3F3D56"/>
<path d="M95.3833 349.875C95.3833 349.875 96.1018 350.951 95.3833 351.434C94.6648 351.917 95.4535 353.157 95.4535 353.157C95.4535 353.157 93.6612 354.202 94.45 355.149C95.2388 356.096 94.739 360.349 94.739 360.349L92.5835 363.932C92.5835 363.932 92.7123 366.228 92.7201 369.331C92.7201 374.173 92.4351 380.979 90.8575 384.082L91.0684 409.542C91.0684 409.542 83.5202 412.298 77.2021 411.456L76.2649 370.602C76.2649 370.602 77.6316 347.434 78.1354 342.99C78.4302 340.683 78.5503 338.357 78.4946 336.032C78.4946 336.032 78.2799 329.077 77.5575 325.853C77.5575 325.853 76.7765 311.866 76.6984 307.995C76.6632 306.144 76.7609 300.741 76.8702 295.603C76.9912 289.985 77.1279 284.687 77.1279 284.687L75.7026 273.425C75.7026 273.425 77.1279 273.285 77.5575 273.854C77.7499 274.033 77.9591 274.194 78.1822 274.334C80.6462 275.994 89.3385 281.101 89.3385 281.101C89.3385 281.101 94.1493 283.011 95.3013 285.748C96.4532 288.484 97.2537 290.426 97.8121 291.205C98.3705 291.985 98.6751 295.649 98.6751 295.649C98.6751 295.649 100.331 302.393 101.623 303.536C102.916 304.678 103.845 311.929 103.845 311.929L92.4234 320.895C92.4234 320.895 91.4198 335.81 91.205 336.387C90.9903 336.963 95.3833 349.875 95.3833 349.875Z" fill="white"/>
<path d="M95.8343 349.723C95.8343 349.723 96.5491 350.802 95.8343 351.286C95.1195 351.771 95.9007 353.013 95.9007 353.013C95.9007 353.013 94.1079 354.061 94.8969 355.01C95.6859 355.96 95.1859 360.223 95.1859 360.223L93.0376 363.815C93.0376 363.815 93.1665 366.116 93.1782 369.227C93.1782 374.081 92.8931 380.904 91.3151 384.014L91.5299 409.537C91.5299 409.537 83.9795 412.3 77.6596 411.455L76.726 370.501C76.726 370.501 78.0892 347.277 78.597 342.822C78.8923 340.509 79.0111 338.177 78.9525 335.846C78.9525 335.846 78.7376 328.874 78.0189 325.643C78.0189 325.643 77.2377 311.621 77.1557 307.741C77.1205 305.884 77.2182 300.468 77.3276 295.318C77.4486 289.686 77.5853 284.376 77.5853 284.376L75.7026 272.933C75.7026 272.933 77.5853 272.933 78.0189 273.516C78.2096 273.698 78.4191 273.859 78.6439 273.996V273.996C81.1047 275.661 89.7995 280.78 89.7995 280.78C89.7995 280.78 94.6 282.695 95.7718 285.439C96.9436 288.182 97.7248 290.128 98.2834 290.91C98.842 291.691 99.1466 295.365 99.1466 295.365C99.1466 295.365 100.803 302.125 102.096 303.27C103.389 304.415 104.322 311.684 104.322 311.684L92.897 320.672C92.897 320.672 91.8931 335.623 91.6744 336.202C91.4557 336.78 95.8343 349.723 95.8343 349.723Z" fill="white"/>
<path opacity="0.1" d="M81.8813 287.798L82.8612 290.81L77.7178 296.285C77.8324 290.649 77.9618 285.334 77.9618 285.334L76.1796 273.886C76.1796 273.886 77.9618 273.886 78.3722 274.469C78.5527 274.651 78.751 274.813 78.9639 274.95V274.95L83.3344 288.283L81.8813 287.798Z" fill="black"/>
<path d="M81.7625 286.851L82.804 289.858L77.3414 295.332C77.4593 289.697 77.6008 284.383 77.6008 284.383L75.7026 272.933C75.7026 272.933 77.6008 272.933 78.0331 273.516C78.2258 273.697 78.4365 273.858 78.6618 273.997V273.997L83.3345 287.339L81.7625 286.851Z" fill="white"/>
<path opacity="0.1" d="M81.4187 257.187C81.4202 258.59 81.1989 259.984 80.763 261.318C80.6895 261.33 80.6143 261.328 80.5419 261.31C80.4695 261.293 80.4013 261.261 80.3415 261.217C80.2361 257.713 78.511 254.418 76.3839 251.619C75.7857 250.774 75.0618 250.026 74.2373 249.399C73.4027 248.775 72.3649 248.482 71.3258 248.578C70.1549 248.738 69.1206 249.532 67.938 249.633C66.3769 249.762 64.9796 248.683 63.4302 248.632C62.8001 248.638 62.1785 248.777 61.607 249.042C61.0355 249.306 60.5273 249.69 60.1166 250.167C59.3018 251.125 58.6969 252.243 58.3408 253.449C57.7271 255.278 57.3929 257.19 57.3494 259.118C57.3299 260.208 57.2245 261.575 56.2098 261.972C56.2866 261.171 56.1954 260.363 55.9421 259.598C55.6888 258.834 55.2789 258.131 54.7384 257.533L54.715 257.506C54.715 257.397 54.715 257.296 54.715 257.187C54.715 253.653 56.1221 250.264 58.6268 247.765C61.1315 245.266 64.5286 243.863 68.0707 243.863C71.6129 243.863 75.01 245.266 77.5147 247.765C80.0194 250.264 81.4265 253.653 81.4265 257.187H81.4187Z" fill="black"/>
<path d="M73.8541 236.151C71.8265 235.205 69.5204 235.027 67.3692 235.648C66.2884 235.965 65.27 236.48 64.1736 236.739C61.8325 237.3 59.1012 236.693 57.0918 238.05C55.9758 238.824 55.3047 240.046 54.6804 241.238L53.1197 244.181C52.2691 245.795 51.4107 247.435 51.0556 249.21C50.7006 250.986 50.9152 252.974 52.0506 254.405C52.8739 255.442 54.0991 256.096 54.9965 257.074C55.5356 257.671 55.9443 258.372 56.1968 259.133C56.4493 259.894 56.5401 260.698 56.4636 261.496C57.478 261.109 57.5795 259.743 57.6029 258.66C57.6467 256.744 57.9808 254.846 58.594 253.028C58.9501 251.83 59.5548 250.72 60.3693 249.767C60.7797 249.293 61.2876 248.912 61.859 248.648C62.4303 248.385 63.0519 248.245 63.682 248.239C65.2427 248.293 66.6435 249.365 68.1886 249.233C69.3591 249.137 70.397 248.348 71.5754 248.189C72.6144 248.091 73.6526 248.383 74.4862 249.005C75.3111 249.626 76.0337 250.37 76.6283 251.21C78.7587 253.995 80.4872 257.252 80.5886 260.745C81.0295 261.062 81.6655 260.645 81.884 260.15C82.1025 259.654 82.1103 259.074 82.3874 258.602C82.7073 258.057 83.3199 257.763 83.7998 257.353C85.0172 256.312 85.3216 254.56 85.2747 252.97C85.2279 251.38 84.9158 249.767 85.2201 248.204C85.4035 247.249 85.8171 246.348 86.0434 245.4C86.2697 244.452 86.297 243.388 85.7625 242.572C84.9821 241.377 83.3394 241.137 81.9074 241.025C80.2804 240.886 78.825 241.064 77.7871 239.706C77.2987 238.998 76.7505 238.333 76.1483 237.718C75.9337 237.513 73.8541 236.236 73.8541 236.151Z" fill="#512E4E"/>
<path opacity="0.1" d="M31.4667 318.551L27.3884 311.059L26.0954 322.62C26.0954 322.62 26.8142 327.757 26.6696 328.545C26.5251 329.332 29.6151 336.393 29.6151 336.393C29.6151 336.393 39.8226 354.453 43.9907 355.38L58.0539 345.386L54.3193 340.676C54.3193 340.676 53.0263 340.176 52.7021 340.676C52.7021 340.676 45.7642 328.828 45.0494 327.974C44.3345 327.121 44.4712 325.402 44.4712 325.402C44.4712 325.402 43.393 324.262 43.7524 323.191C44.1118 322.12 41.6898 318.411 41.6898 318.411L43.9165 316.343L31.4667 318.551Z" fill="black"/>
<path d="M27.5109 310.106L26.4336 310.965L25.1415 322.551C25.1415 322.551 25.8597 327.699 25.7153 328.488C25.5709 329.277 28.6625 336.353 28.6625 336.353C28.6625 336.353 38.8586 354.451 43.0237 355.38L57.0999 345.365L53.3642 340.645C53.3642 340.645 52.0721 340.144 51.7481 340.645C51.7481 340.645 44.8193 328.772 44.1011 327.916C43.3828 327.061 43.5272 325.339 43.5272 325.339C43.5272 325.339 42.4499 324.196 42.809 323.123C43.1681 322.05 40.7245 318.333 40.7245 318.333L42.9495 316.26L27.5109 310.106Z" fill="white"/>
<path opacity="0.1" d="M94.2657 355.668C95.0389 356.618 94.5518 360.887 94.5518 360.887L92.4178 364.457C92.4178 364.457 92.5454 366.763 92.5531 369.876L88.9655 371.009C88.6407 371.112 88.2965 371.134 87.9614 371.075C87.6264 371.015 87.3103 370.876 87.0394 370.667C86.7686 370.459 86.5508 370.189 86.4044 369.878C86.2579 369.568 86.1869 369.226 86.1974 368.882L86.8199 348.708L95.1897 351.942C94.4783 352.442 95.2593 353.67 95.2593 353.67C95.2593 353.67 93.4848 354.718 94.2657 355.668Z" fill="black"/>
<path d="M94.7419 355.189C95.5158 356.135 95.0282 360.401 95.0282 360.401L92.9001 363.971C92.9001 363.971 93.0278 366.272 93.0394 369.382L89.383 370.534C89.0654 370.635 88.7287 370.657 88.4009 370.599C88.0731 370.542 87.7637 370.406 87.4986 370.203C87.2335 369.999 87.0203 369.735 86.877 369.432C86.7336 369.129 86.6642 368.796 86.6745 368.46L87.2974 348.232L95.6705 351.47C94.9547 351.97 95.7363 353.197 95.7363 353.197C95.7363 353.197 93.9603 354.24 94.7419 355.189Z" fill="white"/>
<path d="M97.6442 345.566C97.6442 345.566 97.0776 349.125 95.659 349.334C94.2405 349.542 93.6044 355.092 92.1897 354.899C90.775 354.706 91.7117 349.736 91.7619 348.773C91.812 347.81 90.22 343.822 91.4072 342.916C92.5945 342.01 96.3721 342.916 96.3721 342.916L97.6442 345.566Z" fill="#CF6F80"/>
<path opacity="0.1" d="M100.373 317.465L103.081 312.012C103.081 312.012 104.163 316.168 104.163 318.388C104.163 320.608 105.672 320.826 105.672 320.826C105.672 320.826 107.325 322.774 106.453 324.195C105.582 325.617 105.234 329.138 105.234 329.138C105.234 329.138 105.519 335.872 104.226 336.803C102.933 337.734 102.643 339.958 102.643 339.958C102.643 339.958 100.271 344.183 100.346 345.188C100.42 346.193 97.0399 352.997 97.0399 352.997C97.0399 352.997 98.6928 344.542 89.0605 340.888C89.0605 340.888 88.9863 338.022 89.7053 337.235C90.4243 336.448 91.5458 336.067 90.8424 332.109C90.139 328.152 90.6392 323.381 90.6392 322.427C90.6392 321.473 92.7962 315.525 92.7962 315.525L100.373 317.465Z" fill="black"/>
<path d="M101.662 311.059L104.032 311.841C104.032 311.841 105.115 316.014 105.115 318.244C105.115 320.473 106.625 320.692 106.625 320.692C106.625 320.692 108.279 322.648 107.407 324.075C106.535 325.503 106.183 329.038 106.183 329.038C106.183 329.038 106.472 335.8 105.178 336.735C103.883 337.67 103.613 339.903 103.613 339.903C103.613 339.903 101.239 344.147 101.314 345.156C101.388 346.165 98.0008 352.997 98.0008 352.997C98.0008 352.997 99.6552 344.507 90.0142 340.838C90.0142 340.838 89.9438 337.959 90.6635 337.169C91.3831 336.379 92.5056 335.996 91.8016 332.022C91.0976 328.049 91.5982 323.258 91.5982 322.299C91.5982 321.341 93.7572 315.369 93.7572 315.369L101.662 311.059Z" fill="white"/>
<path opacity="0.1" d="M49.468 452.685C49.468 452.685 53.2332 449.872 55.7044 451.916C58.1755 453.96 49.468 452.685 49.468 452.685Z" fill="black"/>
<path opacity="0.1" d="M79.0415 445.472C79.0415 445.472 82.3759 445.063 85.1761 447.938C87.9762 450.814 79.0415 445.472 79.0415 445.472Z" fill="black"/>
<g opacity="0.1">
<path opacity="0.1" d="M83.7215 256.605C83.2411 257.022 82.624 257.315 82.3038 257.865C82.0304 258.337 82.0226 258.922 81.8039 259.426C81.5852 259.929 80.9486 260.347 80.5034 260.027C80.4018 256.515 78.6717 253.218 76.5432 250.408C75.948 249.561 75.2247 248.812 74.3991 248.188C73.5638 247.559 72.5234 247.264 71.4817 247.361C70.3101 247.521 69.279 248.317 68.0956 248.418C66.5335 248.547 65.1314 247.466 63.5809 247.415C62.951 247.42 62.3294 247.56 61.758 247.825C61.1867 248.09 60.679 248.475 60.2691 248.953C59.4538 249.913 58.8485 251.034 58.4921 252.242C57.8784 254.076 57.5439 255.991 57.5001 257.924C57.4766 259.012 57.3751 260.37 56.3675 260.776C56.3909 261.065 56.3909 261.356 56.3675 261.646C57.3868 261.256 57.4884 259.878 57.5118 258.786C57.5557 256.853 57.8901 254.938 58.5038 253.104C58.8602 251.896 59.4655 250.776 60.2808 249.815C60.691 249.337 61.1987 248.952 61.7699 248.687C62.3411 248.421 62.9626 248.28 63.5926 248.274C65.1548 248.328 66.5608 249.409 68.1074 249.277C69.279 249.179 70.3179 248.383 71.4934 248.223C72.5346 248.125 73.5749 248.418 74.4108 249.046C75.2365 249.672 75.9598 250.423 76.5549 251.271C78.6834 254.08 80.4136 257.366 80.5151 260.889C80.9603 261.209 81.5969 260.788 81.8156 260.288C82.0343 259.789 82.0421 259.203 82.3155 258.727C82.6358 258.177 83.2528 257.881 83.7332 257.467C84.9517 256.417 85.2563 254.65 85.2095 253.046C85.2095 252.995 85.2095 252.948 85.2095 252.898C85.1314 254.295 84.7604 255.711 83.7215 256.605Z" fill="black"/>
<path opacity="0.1" d="M54.8873 256.332C53.9929 255.344 52.7666 254.681 51.9426 253.635C51.2465 252.712 50.85 251.598 50.8061 250.443C50.6835 251.887 51.0871 253.327 51.9426 254.498C52.7666 255.543 53.9929 256.203 54.8873 257.19C55.7511 258.155 56.2703 259.379 56.3636 260.671C56.4223 259.885 56.3218 259.096 56.0681 258.351C55.8145 257.605 55.4128 256.918 54.8873 256.332Z" fill="black"/>
<path opacity="0.1" d="M85.9671 244.547C85.7367 245.503 85.3266 246.412 85.1392 247.376C85.0266 248.028 84.986 248.69 85.0181 249.351C85.031 248.978 85.0714 248.606 85.1392 248.239C85.3266 247.275 85.7367 246.366 85.9671 245.41C86.0995 244.882 86.1431 244.336 86.096 243.794C86.0708 244.048 86.0278 244.3 85.9671 244.547V244.547Z" fill="black"/>
</g>
</g>
<g clip-path="url(#clip0_29_960)">
<path d="M135 329C135 323.477 139.477 319 145 319H331C336.523 319 341 323.477 341 329V371C341 376.523 336.523 381 331 381H145C139.477 381 135 376.523 135 371V329Z" fill="#27AE60"/>
<path d="M168.731 348.88C168.731 346.627 169.345 344.827 170.571 343.48C171.798 342.133 173.485 341.46 175.631 341.46C177.325 341.46 178.878 341.753 180.291 342.34L179.691 343.84C178.505 343.347 177.171 343.1 175.691 343.1C174.065 343.1 172.818 343.62 171.951 344.66C171.085 345.687 170.651 347.113 170.651 348.94C170.651 350.58 171.085 351.933 171.951 353C172.831 354.053 173.998 354.58 175.451 354.58C177.118 354.58 178.558 354.28 179.771 353.68L180.291 355.24C178.798 355.893 177.051 356.22 175.051 356.22C173.105 356.22 171.565 355.527 170.431 354.14C169.298 352.753 168.731 351 168.731 348.88ZM193.559 350.82C193.559 352.353 193.039 353.64 191.999 354.68C190.959 355.72 189.673 356.24 188.139 356.24C186.606 356.24 185.319 355.72 184.279 354.68C183.239 353.64 182.719 352.353 182.719 350.82C182.719 349.3 183.239 348.013 184.279 346.96C185.319 345.907 186.606 345.38 188.139 345.38C189.673 345.38 190.959 345.907 191.999 346.96C193.039 348.013 193.559 349.3 193.559 350.82ZM188.139 354.64C189.179 354.64 190.026 354.273 190.679 353.54C191.346 352.807 191.679 351.9 191.679 350.82C191.679 349.74 191.346 348.833 190.679 348.1C190.026 347.367 189.179 347 188.139 347C187.099 347 186.246 347.367 185.579 348.1C184.913 348.833 184.579 349.74 184.579 350.82C184.579 351.9 184.913 352.807 185.579 353.54C186.246 354.273 187.099 354.64 188.139 354.64ZM202.062 345.48C203.449 345.48 204.542 345.907 205.342 346.76C206.142 347.613 206.542 348.76 206.542 350.2V356H204.642V350.2C204.642 348.107 203.689 347.06 201.782 347.06C201.102 347.06 200.422 347.373 199.742 348C199.062 348.627 198.722 349.26 198.722 349.9V356H196.822V348.48C196.822 347.227 196.742 346.313 196.582 345.74H198.362C198.496 346.06 198.562 346.473 198.562 346.98C199.522 345.98 200.689 345.48 202.062 345.48ZM220.657 350.82C220.657 352.353 220.137 353.64 219.097 354.68C218.057 355.72 216.77 356.24 215.237 356.24C213.704 356.24 212.417 355.72 211.377 354.68C210.337 353.64 209.817 352.353 209.817 350.82C209.817 349.3 210.337 348.013 211.377 346.96C212.417 345.907 213.704 345.38 215.237 345.38C216.77 345.38 218.057 345.907 219.097 346.96C220.137 348.013 220.657 349.3 220.657 350.82ZM215.237 354.64C216.277 354.64 217.124 354.273 217.777 353.54C218.444 352.807 218.777 351.9 218.777 350.82C218.777 349.74 218.444 348.833 217.777 348.1C217.124 347.367 216.277 347 215.237 347C214.197 347 213.344 347.367 212.677 348.1C212.01 348.833 211.677 349.74 211.677 350.82C211.677 351.9 212.01 352.807 212.677 353.54C213.344 354.273 214.197 354.64 215.237 354.64ZM225.12 350.82C225.12 351.94 225.427 352.867 226.04 353.6C226.653 354.32 227.48 354.68 228.52 354.68C229.52 354.68 230.493 354.387 231.44 353.8L232.1 355.36C231.113 355.973 229.94 356.28 228.58 356.28C226.98 356.28 225.68 355.773 224.68 354.76C223.693 353.747 223.2 352.433 223.2 350.82C223.2 349.207 223.693 347.9 224.68 346.9C225.68 345.887 226.98 345.38 228.58 345.38C229.94 345.38 231.113 345.68 232.1 346.28L231.44 347.84C230.507 347.267 229.533 346.98 228.52 346.98C227.48 346.98 226.653 347.347 226.04 348.08C225.427 348.8 225.12 349.713 225.12 350.82ZM236.49 351.18C236.57 352.233 236.95 353.067 237.63 353.68C238.323 354.28 239.23 354.58 240.35 354.58C241.47 354.58 242.75 354.32 244.19 353.8L244.41 355.46C242.93 356.007 241.536 356.28 240.23 356.28C238.63 356.28 237.296 355.793 236.23 354.82C235.163 353.847 234.63 352.587 234.63 351.04C234.63 349.373 235.13 348.013 236.13 346.96C237.143 345.907 238.47 345.38 240.11 345.38C243.19 345.38 244.763 347.313 244.83 351.18H236.49ZM242.97 349.6C242.863 348.813 242.536 348.173 241.99 347.68C241.456 347.187 240.77 346.94 239.93 346.94C239.103 346.94 238.376 347.2 237.75 347.72C237.136 348.227 236.756 348.853 236.61 349.6H242.97ZM252.587 356.24C249.601 356.08 248.107 354.247 248.107 350.74V340.84H250.007V350.32C250.007 351.733 250.201 352.773 250.587 353.44C250.987 354.093 251.727 354.453 252.807 354.52L252.587 356.24ZM258.414 356.28C257.387 356.28 256.527 356 255.834 355.44C255.14 354.88 254.794 354.133 254.794 353.2C254.794 350.667 257.074 349.367 261.634 349.3C261.434 347.793 260.607 347.04 259.154 347.04C258.047 347.04 256.854 347.287 255.574 347.78L255.374 346.08C256.734 345.68 258.027 345.48 259.254 345.48C262.094 345.48 263.514 346.94 263.514 349.86V353.26C263.514 354.02 263.654 354.9 263.934 355.9L262.174 356.28L261.874 354.94C260.834 355.833 259.68 356.28 258.414 356.28ZM261.634 352.76V350.94C258.354 351.007 256.714 351.7 256.714 353.02C256.714 354.087 257.307 354.62 258.494 354.62C259.187 354.62 259.88 354.44 260.574 354.08C261.28 353.707 261.634 353.267 261.634 352.76Z" fill="white"/>
<path d="M304.865 359.365L307.5 362L320 349.5L307.5 337L304.865 339.635L312.866 347.636H295V351.364H312.866L304.865 359.365Z" fill="#3F3D56"/>
</g>
<defs>
<filter id="filter0_d_29_960" x="0" y="0" width="381" height="465" filterUnits="userSpaceOnUse" color-interpolation-filters="sRGB">
<feFlood flood-opacity="0" result="BackgroundImageFix"/>
<feColorMatrix in="SourceAlpha" type="matrix" values="0 0 0 0 0 0 0 0 0 0 0 0 0 0 0 0 0 0 127 0" result="hardAlpha"/>
<feOffset dx="-4" dy="4"/>
<feGaussianBlur stdDeviation="10"/>
<feComposite in2="hardAlpha" operator="out"/>
<feColorMatrix type="matrix" values="0 0 0 0 0 0 0 0 0 0 0 0 0 0 0 0 0 0 0.25 0"/>
<feBlend mode="normal" in2="BackgroundImageFix" result="effect1_dropShadow_29_960"/>
<feBlend mode="normal" in="SourceGraphic" in2="effect1_dropShadow_29_960" result="shape"/>
</filter>
<filter id="filter1_d_29_960" x="0" y="212" width="127" height="287" filterUnits="userSpaceOnUse" color-interpolation-filters="sRGB">
<feFlood flood-opacity="0" result="BackgroundImageFix"/>
<feColorMatrix in="SourceAlpha" type="matrix" values="0 0 0 0 0 0 0 0 0 0 0 0 0 0 0 0 0 0 127 0" result="hardAlpha"/>
<feOffset dx="-4" dy="4"/>
<feGaussianBlur stdDeviation="10"/>
<feComposite in2="hardAlpha" operator="out"/>
<feColorMatrix type="matrix" values="0 0 0 0 0 0 0 0 0 0 0 0 0 0 0 0 0 0 0.25 0"/>
<feBlend mode="normal" in2="BackgroundImageFix" result="effect1_dropShadow_29_960"/>
<feBlend mode="normal" in="SourceGraphic" in2="effect1_dropShadow_29_960" result="shape"/>
</filter>
<linearGradient id="paint0_linear_29_960" x1="74180.3" y1="211461" x2="74180.3" y2="63661.5" gradientUnits="userSpaceOnUse">
<stop stop-color="#808080" stop-opacity="0.25"/>
<stop offset="0.54" stop-color="#808080" stop-opacity="0.12"/>
<stop offset="1" stop-color="#808080" stop-opacity="0.1"/>
</linearGradient>
<clipPath id="clip0_29_960">
<path d="M135 329C135 323.477 139.477 319 145 319H331C336.523 319 341 323.477 341 329V371C341 376.523 336.523 381 331 381H145C139.477 381 135 376.523 135 371V329Z" fill="white"/>
</clipPath>
</defs>
</svg>
