<svg width="381" height="499" viewBox="0 0 381 499" fill="none" xmlns="http://www.w3.org/2000/svg">
<g filter="url(#filter0_d_29_962)">
<rect x="24" y="16" width="341" height="425" rx="5" fill="#EEEEEE"/>
</g>
<path d="M109.913 115.88C109.913 113.627 110.526 111.827 111.753 110.48C112.979 109.133 114.666 108.46 116.813 108.46C118.506 108.46 120.059 108.753 121.473 109.34L120.873 110.84C119.686 110.347 118.353 110.1 116.873 110.1C115.246 110.1 113.999 110.62 113.133 111.66C112.266 112.687 111.833 114.113 111.833 115.94C111.833 117.58 112.266 118.933 113.133 120C114.013 121.053 115.179 121.58 116.633 121.58C118.299 121.58 119.739 121.28 120.953 120.68L121.473 122.24C119.979 122.893 118.233 123.22 116.233 123.22C114.286 123.22 112.746 122.527 111.613 121.14C110.479 119.753 109.913 118 109.913 115.88ZM134.741 117.82C134.741 119.353 134.221 120.64 133.181 121.68C132.141 122.72 130.854 123.24 129.321 123.24C127.788 123.24 126.501 122.72 125.461 121.68C124.421 120.64 123.901 119.353 123.901 117.82C123.901 116.3 124.421 115.013 125.461 113.96C126.501 112.907 127.788 112.38 129.321 112.38C130.854 112.38 132.141 112.907 133.181 113.96C134.221 115.013 134.741 116.3 134.741 117.82ZM129.321 121.64C130.361 121.64 131.208 121.273 131.861 120.54C132.528 119.807 132.861 118.9 132.861 117.82C132.861 116.74 132.528 115.833 131.861 115.1C131.208 114.367 130.361 114 129.321 114C128.281 114 127.428 114.367 126.761 115.1C126.094 115.833 125.761 116.74 125.761 117.82C125.761 118.9 126.094 119.807 126.761 120.54C127.428 121.273 128.281 121.64 129.321 121.64ZM143.244 112.48C144.631 112.48 145.724 112.907 146.524 113.76C147.324 114.613 147.724 115.76 147.724 117.2V123H145.824V117.2C145.824 115.107 144.871 114.06 142.964 114.06C142.284 114.06 141.604 114.373 140.924 115C140.244 115.627 139.904 116.26 139.904 116.9V123H138.004V115.48C138.004 114.227 137.924 113.313 137.764 112.74H139.544C139.677 113.06 139.744 113.473 139.744 113.98C140.704 112.98 141.871 112.48 143.244 112.48ZM155.519 123.28C154.572 123.28 153.839 122.96 153.319 122.32C152.799 121.667 152.539 120.82 152.539 119.78V114.34H150.499V112.78H152.539V109.98L154.439 109.16V112.78H157.719V114.34H154.439V119.76C154.439 120.973 154.825 121.58 155.599 121.58C156.119 121.58 156.679 121.473 157.279 121.26L157.499 122.84C156.805 123.133 156.145 123.28 155.519 123.28ZM163.373 123.28C162.346 123.28 161.486 123 160.793 122.44C160.099 121.88 159.753 121.133 159.753 120.2C159.753 117.667 162.033 116.367 166.593 116.3C166.393 114.793 165.566 114.04 164.113 114.04C163.006 114.04 161.813 114.287 160.533 114.78L160.333 113.08C161.693 112.68 162.986 112.48 164.213 112.48C167.053 112.48 168.473 113.94 168.473 116.86V120.26C168.473 121.02 168.613 121.9 168.893 122.9L167.133 123.28L166.833 121.94C165.793 122.833 164.639 123.28 163.373 123.28ZM166.593 119.76V117.94C163.313 118.007 161.673 118.7 161.673 120.02C161.673 121.087 162.266 121.62 163.453 121.62C164.146 121.62 164.839 121.44 165.533 121.08C166.239 120.707 166.593 120.267 166.593 119.76ZM184.568 112.48C185.808 112.48 186.794 112.947 187.528 113.88C188.261 114.8 188.628 115.947 188.628 117.32V123H186.748V117.34C186.748 116.42 186.521 115.647 186.068 115.02C185.614 114.38 184.994 114.06 184.208 114.06C183.554 114.06 182.941 114.32 182.368 114.84C181.794 115.347 181.508 115.913 181.508 116.54V123H179.608V116.84C179.608 114.987 178.834 114.06 177.288 114.06C176.621 114.06 175.974 114.367 175.348 114.98C174.721 115.593 174.408 116.233 174.408 116.9V123H172.508V115.48C172.508 114.227 172.428 113.313 172.268 112.74H174.048C174.181 113.06 174.248 113.453 174.248 113.92C174.514 113.547 174.974 113.213 175.628 112.92C176.281 112.627 176.914 112.48 177.528 112.48C178.834 112.48 179.901 113.04 180.728 114.16C181.794 113.04 183.074 112.48 184.568 112.48ZM202.749 117.82C202.749 119.353 202.229 120.64 201.189 121.68C200.149 122.72 198.862 123.24 197.329 123.24C195.796 123.24 194.509 122.72 193.469 121.68C192.429 120.64 191.909 119.353 191.909 117.82C191.909 116.3 192.429 115.013 193.469 113.96C194.509 112.907 195.796 112.38 197.329 112.38C198.862 112.38 200.149 112.907 201.189 113.96C202.229 115.013 202.749 116.3 202.749 117.82ZM197.329 121.64C198.369 121.64 199.216 121.273 199.869 120.54C200.536 119.807 200.869 118.9 200.869 117.82C200.869 116.74 200.536 115.833 199.869 115.1C199.216 114.367 198.369 114 197.329 114C196.289 114 195.436 114.367 194.769 115.1C194.102 115.833 193.769 116.74 193.769 117.82C193.769 118.9 194.102 119.807 194.769 120.54C195.436 121.273 196.289 121.64 197.329 121.64ZM209.352 113.98C208.858 113.98 208.425 114.113 208.052 114.38C207.692 114.633 207.512 114.98 207.512 115.42C207.512 115.94 208.245 116.453 209.712 116.96C211.685 117.64 212.672 118.68 212.672 120.08C212.672 121.093 212.285 121.88 211.512 122.44C210.738 123 209.772 123.28 208.612 123.28C207.585 123.28 206.478 122.947 205.292 122.28L206.052 120.78C206.865 121.34 207.745 121.62 208.692 121.62C210.092 121.62 210.792 121.14 210.792 120.18C210.792 119.42 210.112 118.833 208.752 118.42C206.752 117.793 205.752 116.84 205.752 115.56C205.752 114.627 206.105 113.887 206.812 113.34C207.532 112.78 208.418 112.5 209.472 112.5C210.618 112.5 211.605 112.793 212.432 113.38L211.732 114.76C211.025 114.24 210.232 113.98 209.352 113.98ZM224.895 117.82C224.895 118.94 225.202 119.867 225.815 120.6C226.429 121.32 227.255 121.68 228.295 121.68C229.295 121.68 230.269 121.387 231.215 120.8L231.875 122.36C230.889 122.973 229.715 123.28 228.355 123.28C226.755 123.28 225.455 122.773 224.455 121.76C223.469 120.747 222.975 119.433 222.975 117.82C222.975 116.207 223.469 114.9 224.455 113.9C225.455 112.887 226.755 112.38 228.355 112.38C229.715 112.38 230.889 112.68 231.875 113.28L231.215 114.84C230.282 114.267 229.309 113.98 228.295 113.98C227.255 113.98 226.429 114.347 225.815 115.08C225.202 115.8 224.895 116.713 224.895 117.82ZM245.245 117.82C245.245 119.353 244.725 120.64 243.685 121.68C242.645 122.72 241.358 123.24 239.825 123.24C238.292 123.24 237.005 122.72 235.965 121.68C234.925 120.64 234.405 119.353 234.405 117.82C234.405 116.3 234.925 115.013 235.965 113.96C237.005 112.907 238.292 112.38 239.825 112.38C241.358 112.38 242.645 112.907 243.685 113.96C244.725 115.013 245.245 116.3 245.245 117.82ZM239.825 121.64C240.865 121.64 241.712 121.273 242.365 120.54C243.032 119.807 243.365 118.9 243.365 117.82C243.365 116.74 243.032 115.833 242.365 115.1C241.712 114.367 240.865 114 239.825 114C238.785 114 237.932 114.367 237.265 115.1C236.598 115.833 236.265 116.74 236.265 117.82C236.265 118.9 236.598 119.807 237.265 120.54C237.932 121.273 238.785 121.64 239.825 121.64ZM253.748 112.48C255.134 112.48 256.228 112.907 257.028 113.76C257.828 114.613 258.228 115.76 258.228 117.2V123H256.328V117.2C256.328 115.107 255.374 114.06 253.468 114.06C252.788 114.06 252.108 114.373 251.428 115C250.748 115.627 250.408 116.26 250.408 116.9V123H248.508V115.48C248.508 114.227 248.428 113.313 248.268 112.74H250.048C250.181 113.06 250.248 113.473 250.248 113.98C251.208 112.98 252.374 112.48 253.748 112.48ZM275.78 114.22C276.713 114.407 277.46 114.833 278.02 115.5C278.593 116.167 278.88 117.013 278.88 118.04C278.88 119.64 278.307 120.907 277.16 121.84C276.027 122.773 274.587 123.24 272.84 123.24C271.493 123.24 270.307 122.82 269.28 121.98L270.12 120.44C271.013 121.08 272.02 121.4 273.14 121.4C274.127 121.4 275.013 121.08 275.8 120.44C276.587 119.787 276.98 119.007 276.98 118.1C276.98 117.46 276.773 116.92 276.36 116.48C275.96 116.027 275.447 115.8 274.82 115.8C274.087 115.8 273.373 116.093 272.68 116.68L271.86 115.36C272.393 115.053 272.927 114.713 273.46 114.34C273.993 113.967 274.52 113.493 275.04 112.92C275.573 112.347 275.84 111.847 275.84 111.42C275.84 110.633 275.287 110.24 274.18 110.24C273.46 110.24 272.793 110.473 272.18 110.94C271.567 111.407 271.133 111.947 270.88 112.56L269.52 111.86C269.893 110.913 270.493 110.14 271.32 109.54C272.16 108.927 273.147 108.62 274.28 108.62C275.227 108.62 276.02 108.867 276.66 109.36C277.313 109.853 277.64 110.527 277.64 111.38C277.64 112.22 277.02 113.167 275.78 114.22ZM72.1966 158.18C72.2766 159.233 72.6566 160.067 73.3366 160.68C74.03 161.28 74.9366 161.58 76.0566 161.58C77.1766 161.58 78.4566 161.32 79.8966 160.8L80.1166 162.46C78.6366 163.007 77.2433 163.28 75.9366 163.28C74.3366 163.28 73.0033 162.793 71.9366 161.82C70.87 160.847 70.3366 159.587 70.3366 158.04C70.3366 156.373 70.8366 155.013 71.8366 153.96C72.85 152.907 74.1766 152.38 75.8166 152.38C78.8966 152.38 80.47 154.313 80.5366 158.18H72.1966ZM78.6766 156.6C78.57 155.813 78.2433 155.173 77.6966 154.68C77.1633 154.187 76.4766 153.94 75.6366 153.94C74.81 153.94 74.0833 154.2 73.4566 154.72C72.8433 155.227 72.4633 155.853 72.3166 156.6H78.6766ZM89.0545 152.48C90.4411 152.48 91.5345 152.907 92.3345 153.76C93.1345 154.613 93.5345 155.76 93.5345 157.2V163H91.6345V157.2C91.6345 155.107 90.6811 154.06 88.7745 154.06C88.0945 154.06 87.4145 154.373 86.7345 155C86.0545 155.627 85.7145 156.26 85.7145 156.9V163H83.8145V155.48C83.8145 154.227 83.7345 153.313 83.5745 152.74H85.3545C85.4878 153.06 85.5545 153.473 85.5545 153.98C86.5145 152.98 87.6811 152.48 89.0545 152.48ZM100.149 163H98.2493V154.34H96.5493V152.78H98.2893C98.2893 149.34 99.6226 147.62 102.289 147.62C103.129 147.62 103.843 147.84 104.429 148.28L103.889 149.7C103.209 149.407 102.656 149.26 102.229 149.26C100.843 149.26 100.149 150.433 100.149 152.78H103.069V154.34H100.149V163ZM107.306 158.18C107.386 159.233 107.766 160.067 108.446 160.68C109.139 161.28 110.046 161.58 111.166 161.58C112.286 161.58 113.566 161.32 115.006 160.8L115.226 162.46C113.746 163.007 112.353 163.28 111.046 163.28C109.446 163.28 108.113 162.793 107.046 161.82C105.979 160.847 105.446 159.587 105.446 158.04C105.446 156.373 105.946 155.013 106.946 153.96C107.959 152.907 109.286 152.38 110.926 152.38C114.006 152.38 115.579 154.313 115.646 158.18H107.306ZM113.786 156.6C113.679 155.813 113.353 155.173 112.806 154.68C112.273 154.187 111.586 153.94 110.746 153.94C109.919 153.94 109.193 154.2 108.566 154.72C107.953 155.227 107.573 155.853 107.426 156.6H113.786ZM120.584 154.06C120.77 153.673 121.15 153.313 121.724 152.98C122.31 152.647 122.87 152.48 123.404 152.48C123.83 152.48 124.15 152.507 124.364 152.56V154.18C124.204 154.14 123.977 154.12 123.684 154.12C121.777 154.12 120.824 155.267 120.824 157.56V163H118.924V156.24C118.924 154.64 118.804 153.433 118.564 152.62H120.244C120.47 152.993 120.584 153.473 120.584 154.06ZM139.386 152.48C140.626 152.48 141.613 152.947 142.346 153.88C143.08 154.8 143.446 155.947 143.446 157.32V163H141.566V157.34C141.566 156.42 141.34 155.647 140.886 155.02C140.433 154.38 139.813 154.06 139.026 154.06C138.373 154.06 137.76 154.32 137.186 154.84C136.613 155.347 136.326 155.913 136.326 156.54V163H134.426V156.84C134.426 154.987 133.653 154.06 132.106 154.06C131.44 154.06 130.793 154.367 130.166 154.98C129.54 155.593 129.226 156.233 129.226 156.9V163H127.326V155.48C127.326 154.227 127.246 153.313 127.086 152.74H128.866C129 153.06 129.066 153.453 129.066 153.92C129.333 153.547 129.793 153.213 130.446 152.92C131.1 152.627 131.733 152.48 132.346 152.48C133.653 152.48 134.72 153.04 135.546 154.16C136.613 153.04 137.893 152.48 139.386 152.48ZM148.587 158.18C148.667 159.233 149.047 160.067 149.727 160.68C150.421 161.28 151.327 161.58 152.447 161.58C153.567 161.58 154.847 161.32 156.287 160.8L156.507 162.46C155.027 163.007 153.634 163.28 152.327 163.28C150.727 163.28 149.394 162.793 148.327 161.82C147.261 160.847 146.727 159.587 146.727 158.04C146.727 156.373 147.227 155.013 148.227 153.96C149.241 152.907 150.567 152.38 152.207 152.38C155.287 152.38 156.861 154.313 156.927 158.18H148.587ZM155.067 156.6C154.961 155.813 154.634 155.173 154.087 154.68C153.554 154.187 152.867 153.94 152.027 153.94C151.201 153.94 150.474 154.2 149.847 154.72C149.234 155.227 148.854 155.853 148.707 156.6H155.067ZM161.865 154.06C162.052 153.673 162.432 153.313 163.005 152.98C163.592 152.647 164.152 152.48 164.685 152.48C165.112 152.48 165.432 152.507 165.645 152.56V154.18C165.485 154.14 165.258 154.12 164.965 154.12C163.058 154.12 162.105 155.267 162.105 157.56V163H160.205V156.24C160.205 154.64 160.085 153.433 159.845 152.62H161.525C161.752 152.993 161.865 153.473 161.865 154.06ZM171.507 163.28C170.481 163.28 169.621 163 168.927 162.44C168.234 161.88 167.887 161.133 167.887 160.2C167.887 157.667 170.167 156.367 174.727 156.3C174.527 154.793 173.701 154.04 172.247 154.04C171.141 154.04 169.947 154.287 168.667 154.78L168.467 153.08C169.827 152.68 171.121 152.48 172.347 152.48C175.187 152.48 176.607 153.94 176.607 156.86V160.26C176.607 161.02 176.747 161.9 177.027 162.9L175.267 163.28L174.967 161.94C173.927 162.833 172.774 163.28 171.507 163.28ZM174.727 159.76V157.94C171.447 158.007 169.807 158.7 169.807 160.02C169.807 161.087 170.401 161.62 171.587 161.62C172.281 161.62 172.974 161.44 173.667 161.08C174.374 160.707 174.727 160.267 174.727 159.76ZM183.983 153.98C183.489 153.98 183.056 154.113 182.683 154.38C182.323 154.633 182.143 154.98 182.143 155.42C182.143 155.94 182.876 156.453 184.343 156.96C186.316 157.64 187.303 158.68 187.303 160.08C187.303 161.093 186.916 161.88 186.143 162.44C185.369 163 184.403 163.28 183.243 163.28C182.216 163.28 181.109 162.947 179.923 162.28L180.683 160.78C181.496 161.34 182.376 161.62 183.323 161.62C184.723 161.62 185.423 161.14 185.423 160.18C185.423 159.42 184.743 158.833 183.383 158.42C181.383 157.793 180.383 156.84 180.383 155.56C180.383 154.627 180.736 153.887 181.443 153.34C182.163 152.78 183.049 152.5 184.103 152.5C185.249 152.5 186.236 152.793 187.063 153.38L186.363 154.76C185.656 154.24 184.863 153.98 183.983 153.98ZM199.526 157.82C199.526 158.94 199.833 159.867 200.446 160.6C201.06 161.32 201.886 161.68 202.926 161.68C203.926 161.68 204.9 161.387 205.846 160.8L206.506 162.36C205.52 162.973 204.346 163.28 202.986 163.28C201.386 163.28 200.086 162.773 199.086 161.76C198.1 160.747 197.606 159.433 197.606 157.82C197.606 156.207 198.1 154.9 199.086 153.9C200.086 152.887 201.386 152.38 202.986 152.38C204.346 152.38 205.52 152.68 206.506 153.28L205.846 154.84C204.913 154.267 203.94 153.98 202.926 153.98C201.886 153.98 201.06 154.347 200.446 155.08C199.833 155.8 199.526 156.713 199.526 157.82ZM212.656 163.28C211.629 163.28 210.769 163 210.076 162.44C209.383 161.88 209.036 161.133 209.036 160.2C209.036 157.667 211.316 156.367 215.876 156.3C215.676 154.793 214.849 154.04 213.396 154.04C212.289 154.04 211.096 154.287 209.816 154.78L209.616 153.08C210.976 152.68 212.269 152.48 213.496 152.48C216.336 152.48 217.756 153.94 217.756 156.86V160.26C217.756 161.02 217.896 161.9 218.176 162.9L216.416 163.28L216.116 161.94C215.076 162.833 213.923 163.28 212.656 163.28ZM215.876 159.76V157.94C212.596 158.007 210.956 158.7 210.956 160.02C210.956 161.087 211.549 161.62 212.736 161.62C213.429 161.62 214.123 161.44 214.816 161.08C215.523 160.707 215.876 160.267 215.876 159.76ZM232.471 157.62C232.471 159.233 231.964 160.58 230.951 161.66C229.951 162.74 228.671 163.28 227.111 163.28C225.724 163.28 224.584 162.867 223.691 162.04V167.3H221.791V156.08C221.791 154.427 221.751 153.267 221.671 152.6H223.531L223.751 153.7C224.804 152.82 226.004 152.38 227.351 152.38C228.818 152.38 230.038 152.887 231.011 153.9C231.984 154.9 232.471 156.14 232.471 157.62ZM227.051 161.62C228.184 161.62 229.064 161.26 229.691 160.54C230.318 159.82 230.631 158.853 230.631 157.64C230.631 156.6 230.304 155.727 229.651 155.02C228.998 154.3 228.171 153.94 227.171 153.94C226.384 153.94 225.604 154.273 224.831 154.94C224.071 155.593 223.691 156.293 223.691 157.04V158.72C223.691 159.533 224.031 160.22 224.711 160.78C225.391 161.34 226.171 161.62 227.051 161.62ZM238.66 163.28C237.633 163.28 236.773 163 236.08 162.44C235.386 161.88 235.04 161.133 235.04 160.2C235.04 157.667 237.32 156.367 241.88 156.3C241.68 154.793 240.853 154.04 239.4 154.04C238.293 154.04 237.1 154.287 235.82 154.78L235.62 153.08C236.98 152.68 238.273 152.48 239.5 152.48C242.34 152.48 243.76 153.94 243.76 156.86V160.26C243.76 161.02 243.9 161.9 244.18 162.9L242.42 163.28L242.12 161.94C241.08 162.833 239.926 163.28 238.66 163.28ZM241.88 159.76V157.94C238.6 158.007 236.96 158.7 236.96 160.02C236.96 161.087 237.553 161.62 238.74 161.62C239.433 161.62 240.126 161.44 240.82 161.08C241.526 160.707 241.88 160.267 241.88 159.76ZM248.995 157.82C248.995 158.94 249.302 159.867 249.915 160.6C250.528 161.32 251.355 161.68 252.395 161.68C253.395 161.68 254.368 161.387 255.315 160.8L255.975 162.36C254.988 162.973 253.815 163.28 252.455 163.28C250.855 163.28 249.555 162.773 248.555 161.76C247.568 160.747 247.075 159.433 247.075 157.82C247.075 156.207 247.568 154.9 248.555 153.9C249.555 152.887 250.855 152.38 252.455 152.38C253.815 152.38 254.988 152.68 255.975 153.28L255.315 154.84C254.382 154.267 253.408 153.98 252.395 153.98C251.355 153.98 250.528 154.347 249.915 155.08C249.302 155.8 248.995 156.713 248.995 157.82ZM261.125 163H259.225V152.78H261.125V163ZM260.125 148.32C260.525 148.32 260.865 148.46 261.145 148.74C261.438 149.02 261.585 149.36 261.585 149.76C261.585 150.16 261.438 150.5 261.145 150.78C260.865 151.06 260.525 151.2 260.125 151.2C259.725 151.2 259.385 151.06 259.105 150.78C258.825 150.5 258.685 150.16 258.685 149.76C258.685 149.36 258.825 149.02 259.105 148.74C259.385 148.46 259.725 148.32 260.125 148.32ZM268.927 163.28C267.98 163.28 267.247 162.96 266.727 162.32C266.207 161.667 265.947 160.82 265.947 159.78V154.34H263.907V152.78H265.947V149.98L267.847 149.16V152.78H271.127V154.34H267.847V159.76C267.847 160.973 268.234 161.58 269.007 161.58C269.527 161.58 270.087 161.473 270.687 161.26L270.907 162.84C270.214 163.133 269.554 163.28 268.927 163.28ZM276.781 163.28C275.754 163.28 274.894 163 274.201 162.44C273.508 161.88 273.161 161.133 273.161 160.2C273.161 157.667 275.441 156.367 280.001 156.3C279.801 154.793 278.974 154.04 277.521 154.04C276.414 154.04 275.221 154.287 273.941 154.78L273.741 153.08C275.101 152.68 276.394 152.48 277.621 152.48C280.461 152.48 281.881 153.94 281.881 156.86V160.26C281.881 161.02 282.021 161.9 282.301 162.9L280.541 163.28L280.241 161.94C279.201 162.833 278.048 163.28 276.781 163.28ZM280.001 159.76V157.94C276.721 158.007 275.081 158.7 275.081 160.02C275.081 161.087 275.674 161.62 276.861 161.62C277.554 161.62 278.248 161.44 278.941 161.08C279.648 160.707 280.001 160.267 280.001 159.76ZM295.996 163H294.196C294.129 162.76 294.096 162.387 294.096 161.88C293.136 162.813 291.923 163.28 290.456 163.28C288.936 163.28 287.676 162.76 286.676 161.72C285.689 160.667 285.196 159.32 285.196 157.68C285.196 156.133 285.676 154.867 286.636 153.88C287.609 152.88 288.836 152.38 290.316 152.38C291.809 152.38 293.029 152.853 293.976 153.8V147.84H295.876V160.26C295.876 161.1 295.916 162.013 295.996 163ZM290.616 161.62C291.563 161.62 292.356 161.407 292.996 160.98C293.649 160.54 293.976 159.92 293.976 159.12V156.78C293.976 156.033 293.596 155.373 292.836 154.8C292.089 154.227 291.309 153.94 290.496 153.94C289.469 153.94 288.636 154.293 287.996 155C287.369 155.707 287.056 156.6 287.056 157.68C287.056 158.88 287.363 159.84 287.976 160.56C288.603 161.267 289.483 161.62 290.616 161.62ZM302.902 163.28C301.875 163.28 301.015 163 300.322 162.44C299.629 161.88 299.282 161.133 299.282 160.2C299.282 157.667 301.562 156.367 306.122 156.3C305.922 154.793 305.095 154.04 303.642 154.04C302.535 154.04 301.342 154.287 300.062 154.78L299.862 153.08C301.222 152.68 302.515 152.48 303.742 152.48C306.582 152.48 308.002 153.94 308.002 156.86V160.26C308.002 161.02 308.142 161.9 308.422 162.9L306.662 163.28L306.362 161.94C305.322 162.833 304.169 163.28 302.902 163.28ZM306.122 159.76V157.94C302.842 158.007 301.202 158.7 301.202 160.02C301.202 161.087 301.795 161.62 302.982 161.62C303.675 161.62 304.369 161.44 305.062 161.08C305.769 160.707 306.122 160.267 306.122 159.76ZM315.377 153.98C314.884 153.98 314.45 154.113 314.077 154.38C313.717 154.633 313.537 154.98 313.537 155.42C313.537 155.94 314.27 156.453 315.737 156.96C317.71 157.64 318.697 158.68 318.697 160.08C318.697 161.093 318.31 161.88 317.537 162.44C316.764 163 315.797 163.28 314.637 163.28C313.61 163.28 312.504 162.947 311.317 162.28L312.077 160.78C312.89 161.34 313.77 161.62 314.717 161.62C316.117 161.62 316.817 161.14 316.817 160.18C316.817 159.42 316.137 158.833 314.777 158.42C312.777 157.793 311.777 156.84 311.777 155.56C311.777 154.627 312.13 153.887 312.837 153.34C313.557 152.78 314.444 152.5 315.497 152.5C316.644 152.5 317.63 152.793 318.457 153.38L317.757 154.76C317.05 154.24 316.257 153.98 315.377 153.98ZM68.7425 197.62C68.7425 199.233 68.2358 200.58 67.2225 201.66C66.2225 202.74 64.9425 203.28 63.3825 203.28C61.9958 203.28 60.8558 202.867 59.9625 202.04V207.3H58.0625V196.08C58.0625 194.427 58.0225 193.267 57.9425 192.6H59.8025L60.0225 193.7C61.0758 192.82 62.2758 192.38 63.6225 192.38C65.0892 192.38 66.3092 192.887 67.2825 193.9C68.2558 194.9 68.7425 196.14 68.7425 197.62ZM63.3225 201.62C64.4558 201.62 65.3358 201.26 65.9625 200.54C66.5892 199.82 66.9025 198.853 66.9025 197.64C66.9025 196.6 66.5758 195.727 65.9225 195.02C65.2692 194.3 64.4425 193.94 63.4425 193.94C62.6558 193.94 61.8758 194.273 61.1025 194.94C60.3425 195.593 59.9625 196.293 59.9625 197.04V198.72C59.9625 199.533 60.3025 200.22 60.9825 200.78C61.6625 201.34 62.4425 201.62 63.3225 201.62ZM74.9313 203.28C73.9046 203.28 73.0446 203 72.3513 202.44C71.6579 201.88 71.3113 201.133 71.3113 200.2C71.3113 197.667 73.5913 196.367 78.1513 196.3C77.9513 194.793 77.1246 194.04 75.6712 194.04C74.5646 194.04 73.3713 194.287 72.0913 194.78L71.8913 193.08C73.2513 192.68 74.5446 192.48 75.7713 192.48C78.6113 192.48 80.0313 193.94 80.0313 196.86V200.26C80.0313 201.02 80.1713 201.9 80.4513 202.9L78.6913 203.28L78.3913 201.94C77.3513 202.833 76.1979 203.28 74.9313 203.28ZM78.1513 199.76V197.94C74.8713 198.007 73.2313 198.7 73.2313 200.02C73.2313 201.087 73.8246 201.62 75.0113 201.62C75.7046 201.62 76.3979 201.44 77.0913 201.08C77.7979 200.707 78.1513 200.267 78.1513 199.76ZM85.7264 194.06C85.9131 193.673 86.2931 193.313 86.8664 192.98C87.4531 192.647 88.0131 192.48 88.5464 192.48C88.9731 192.48 89.2931 192.507 89.5064 192.56V194.18C89.3464 194.14 89.1197 194.12 88.8264 194.12C86.9197 194.12 85.9664 195.267 85.9664 197.56V203H84.0664V196.24C84.0664 194.64 83.9464 193.433 83.7064 192.62H85.3864C85.6131 192.993 85.7264 193.473 85.7264 194.06ZM95.3688 203.28C94.3421 203.28 93.4821 203 92.7888 202.44C92.0954 201.88 91.7488 201.133 91.7488 200.2C91.7488 197.667 94.0288 196.367 98.5888 196.3C98.3888 194.793 97.5621 194.04 96.1087 194.04C95.0021 194.04 93.8088 194.287 92.5288 194.78L92.3288 193.08C93.6888 192.68 94.9821 192.48 96.2088 192.48C99.0488 192.48 100.469 193.94 100.469 196.86V200.26C100.469 201.02 100.609 201.9 100.889 202.9L99.1288 203.28L98.8288 201.94C97.7888 202.833 96.6354 203.28 95.3688 203.28ZM98.5888 199.76V197.94C95.3088 198.007 93.6688 198.7 93.6688 200.02C93.6688 201.087 94.2621 201.62 95.4488 201.62C96.1421 201.62 96.8354 201.44 97.5288 201.08C98.2354 200.707 98.5888 200.267 98.5888 199.76ZM116.761 203.24C113.775 203.08 112.281 201.247 112.281 197.74V187.84H114.181V197.32C114.181 198.733 114.375 199.773 114.761 200.44C115.161 201.093 115.901 201.453 116.981 201.52L116.761 203.24ZM122.588 203.28C121.561 203.28 120.701 203 120.008 202.44C119.314 201.88 118.968 201.133 118.968 200.2C118.968 197.667 121.248 196.367 125.808 196.3C125.608 194.793 124.781 194.04 123.327 194.04C122.221 194.04 121.028 194.287 119.748 194.78L119.548 193.08C120.908 192.68 122.201 192.48 123.428 192.48C126.268 192.48 127.688 193.94 127.688 196.86V200.26C127.688 201.02 127.828 201.9 128.108 202.9L126.348 203.28L126.048 201.94C125.008 202.833 123.854 203.28 122.588 203.28ZM125.808 199.76V197.94C122.528 198.007 120.888 198.7 120.888 200.02C120.888 201.087 121.481 201.62 122.668 201.62C123.361 201.62 124.054 201.44 124.748 201.08C125.454 200.707 125.808 200.267 125.808 199.76ZM142.4 203.28C141.373 203.28 140.513 203 139.82 202.44C139.127 201.88 138.78 201.133 138.78 200.2C138.78 197.667 141.06 196.367 145.62 196.3C145.42 194.793 144.593 194.04 143.14 194.04C142.033 194.04 140.84 194.287 139.56 194.78L139.36 193.08C140.72 192.68 142.013 192.48 143.24 192.48C146.08 192.48 147.5 193.94 147.5 196.86V200.26C147.5 201.02 147.64 201.9 147.92 202.9L146.16 203.28L145.86 201.94C144.82 202.833 143.667 203.28 142.4 203.28ZM145.62 199.76V197.94C142.34 198.007 140.7 198.7 140.7 200.02C140.7 201.087 141.293 201.62 142.48 201.62C143.173 201.62 143.867 201.44 144.56 201.08C145.267 200.707 145.62 200.267 145.62 199.76ZM155.335 203.28C154.388 203.28 153.655 202.96 153.135 202.32C152.615 201.667 152.355 200.82 152.355 199.78V194.34H150.315V192.78H152.355V189.98L154.255 189.16V192.78H157.535V194.34H154.255V199.76C154.255 200.973 154.642 201.58 155.415 201.58C155.935 201.58 156.495 201.473 157.095 201.26L157.315 202.84C156.622 203.133 155.962 203.28 155.335 203.28ZM161.429 198.18C161.509 199.233 161.889 200.067 162.569 200.68C163.262 201.28 164.169 201.58 165.289 201.58C166.409 201.58 167.689 201.32 169.129 200.8L169.349 202.46C167.869 203.007 166.476 203.28 165.169 203.28C163.569 203.28 162.236 202.793 161.169 201.82C160.102 200.847 159.569 199.587 159.569 198.04C159.569 196.373 160.069 195.013 161.069 193.96C162.082 192.907 163.409 192.38 165.049 192.38C168.129 192.38 169.702 194.313 169.769 198.18H161.429ZM167.909 196.6C167.802 195.813 167.476 195.173 166.929 194.68C166.396 194.187 165.709 193.94 164.869 193.94C164.042 193.94 163.316 194.2 162.689 194.72C162.076 195.227 161.696 195.853 161.549 196.6H167.909ZM178.287 192.48C179.674 192.48 180.767 192.907 181.567 193.76C182.367 194.613 182.767 195.76 182.767 197.2V203H180.867V197.2C180.867 195.107 179.914 194.06 178.007 194.06C177.327 194.06 176.647 194.373 175.967 195C175.287 195.627 174.947 196.26 174.947 196.9V203H173.047V195.48C173.047 194.227 172.967 193.313 172.807 192.74H174.587C174.72 193.06 174.787 193.473 174.787 193.98C175.747 192.98 176.914 192.48 178.287 192.48ZM187.962 197.82C187.962 198.94 188.268 199.867 188.882 200.6C189.495 201.32 190.322 201.68 191.362 201.68C192.362 201.68 193.335 201.387 194.282 200.8L194.942 202.36C193.955 202.973 192.782 203.28 191.422 203.28C189.822 203.28 188.522 202.773 187.522 201.76C186.535 200.747 186.042 199.433 186.042 197.82C186.042 196.207 186.535 194.9 187.522 193.9C188.522 192.887 189.822 192.38 191.422 192.38C192.782 192.38 193.955 192.68 194.942 193.28L194.282 194.84C193.348 194.267 192.375 193.98 191.362 193.98C190.322 193.98 189.495 194.347 188.882 195.08C188.268 195.8 187.962 196.713 187.962 197.82ZM200.091 203H198.191V192.78H200.091V203ZM199.091 188.32C199.491 188.32 199.831 188.46 200.111 188.74C200.405 189.02 200.551 189.36 200.551 189.76C200.551 190.16 200.405 190.5 200.111 190.78C199.831 191.06 199.491 191.2 199.091 191.2C198.691 191.2 198.351 191.06 198.071 190.78C197.791 190.5 197.651 190.16 197.651 189.76C197.651 189.36 197.791 189.02 198.071 188.74C198.351 188.46 198.691 188.32 199.091 188.32ZM214.214 197.82C214.214 199.353 213.694 200.64 212.654 201.68C211.614 202.72 210.327 203.24 208.794 203.24C207.26 203.24 205.974 202.72 204.934 201.68C203.894 200.64 203.374 199.353 203.374 197.82C203.374 196.3 203.894 195.013 204.934 193.96C205.974 192.907 207.26 192.38 208.794 192.38C210.327 192.38 211.614 192.907 212.654 193.96C213.694 195.013 214.214 196.3 214.214 197.82ZM208.794 201.64C209.834 201.64 210.68 201.273 211.334 200.54C212 199.807 212.334 198.9 212.334 197.82C212.334 196.74 212 195.833 211.334 195.1C210.68 194.367 209.834 194 208.794 194C207.754 194 206.9 194.367 206.234 195.1C205.567 195.833 205.234 196.74 205.234 197.82C205.234 198.9 205.567 199.807 206.234 200.54C206.9 201.273 207.754 201.64 208.794 201.64ZM222.717 192.48C224.103 192.48 225.197 192.907 225.997 193.76C226.797 194.613 227.197 195.76 227.197 197.2V203H225.297V197.2C225.297 195.107 224.343 194.06 222.437 194.06C221.757 194.06 221.077 194.373 220.397 195C219.717 195.627 219.377 196.26 219.377 196.9V203H217.477V195.48C217.477 194.227 217.397 193.313 217.237 192.74H219.017C219.15 193.06 219.217 193.473 219.217 193.98C220.177 192.98 221.343 192.48 222.717 192.48ZM251.029 192.48C252.269 192.48 253.255 192.947 253.989 193.88C254.722 194.8 255.089 195.947 255.089 197.32V203H253.209V197.34C253.209 196.42 252.982 195.647 252.529 195.02C252.075 194.38 251.455 194.06 250.669 194.06C250.015 194.06 249.402 194.32 248.829 194.84C248.255 195.347 247.969 195.913 247.969 196.54V203H246.069V196.84C246.069 194.987 245.295 194.06 243.749 194.06C243.082 194.06 242.435 194.367 241.809 194.98C241.182 195.593 240.869 196.233 240.869 196.9V203H238.969V195.48C238.969 194.227 238.889 193.313 238.729 192.74H240.509C240.642 193.06 240.709 193.453 240.709 193.92C240.975 193.547 241.435 193.213 242.089 192.92C242.742 192.627 243.375 192.48 243.989 192.48C245.295 192.48 246.362 193.04 247.189 194.16C248.255 193.04 249.535 192.48 251.029 192.48ZM260.23 198.18C260.31 199.233 260.69 200.067 261.37 200.68C262.063 201.28 262.97 201.58 264.09 201.58C265.21 201.58 266.49 201.32 267.93 200.8L268.15 202.46C266.67 203.007 265.277 203.28 263.97 203.28C262.37 203.28 261.037 202.793 259.97 201.82C258.903 200.847 258.37 199.587 258.37 198.04C258.37 196.373 258.87 195.013 259.87 193.96C260.883 192.907 262.21 192.38 263.85 192.38C266.93 192.38 268.503 194.313 268.57 198.18H260.23ZM266.71 196.6C266.603 195.813 266.277 195.173 265.73 194.68C265.197 194.187 264.51 193.94 263.67 193.94C262.843 193.94 262.117 194.2 261.49 194.72C260.877 195.227 260.497 195.853 260.35 196.6H266.71ZM281.928 203H280.128C280.061 202.76 280.028 202.387 280.028 201.88C279.068 202.813 277.854 203.28 276.388 203.28C274.868 203.28 273.608 202.76 272.608 201.72C271.621 200.667 271.128 199.32 271.128 197.68C271.128 196.133 271.608 194.867 272.568 193.88C273.541 192.88 274.768 192.38 276.248 192.38C277.741 192.38 278.961 192.853 279.908 193.8V187.84H281.808V200.26C281.808 201.1 281.848 202.013 281.928 203ZM276.548 201.62C277.494 201.62 278.288 201.407 278.928 200.98C279.581 200.54 279.908 199.92 279.908 199.12V196.78C279.908 196.033 279.528 195.373 278.768 194.8C278.021 194.227 277.241 193.94 276.428 193.94C275.401 193.94 274.568 194.293 273.928 195C273.301 195.707 272.988 196.6 272.988 197.68C272.988 198.88 273.294 199.84 273.908 200.56C274.534 201.267 275.414 201.62 276.548 201.62ZM287.834 203H285.934V192.78H287.834V203ZM286.834 188.32C287.234 188.32 287.574 188.46 287.854 188.74C288.147 189.02 288.294 189.36 288.294 189.76C288.294 190.16 288.147 190.5 287.854 190.78C287.574 191.06 287.234 191.2 286.834 191.2C286.434 191.2 286.094 191.06 285.814 190.78C285.534 190.5 285.394 190.16 285.394 189.76C285.394 189.36 285.534 189.02 285.814 188.74C286.094 188.46 286.434 188.32 286.834 188.32ZM293.036 197.82C293.036 198.94 293.343 199.867 293.956 200.6C294.569 201.32 295.396 201.68 296.436 201.68C297.436 201.68 298.409 201.387 299.356 200.8L300.016 202.36C299.029 202.973 297.856 203.28 296.496 203.28C294.896 203.28 293.596 202.773 292.596 201.76C291.609 200.747 291.116 199.433 291.116 197.82C291.116 196.207 291.609 194.9 292.596 193.9C293.596 192.887 294.896 192.38 296.496 192.38C297.856 192.38 299.029 192.68 300.016 193.28L299.356 194.84C298.423 194.267 297.449 193.98 296.436 193.98C295.396 193.98 294.569 194.347 293.956 195.08C293.343 195.8 293.036 196.713 293.036 197.82ZM306.166 203.28C305.139 203.28 304.279 203 303.586 202.44C302.892 201.88 302.546 201.133 302.546 200.2C302.546 197.667 304.826 196.367 309.386 196.3C309.186 194.793 308.359 194.04 306.906 194.04C305.799 194.04 304.606 194.287 303.326 194.78L303.126 193.08C304.486 192.68 305.779 192.48 307.006 192.48C309.846 192.48 311.266 193.94 311.266 196.86V200.26C311.266 201.02 311.406 201.9 311.686 202.9L309.926 203.28L309.626 201.94C308.586 202.833 307.432 203.28 306.166 203.28ZM309.386 199.76V197.94C306.106 198.007 304.466 198.7 304.466 200.02C304.466 201.087 305.059 201.62 306.246 201.62C306.939 201.62 307.632 201.44 308.326 201.08C309.032 200.707 309.386 200.267 309.386 199.76ZM322.538 207.54L322.058 205.98C323.845 205.58 325.158 204.333 325.998 202.24L321.458 192.78H323.538L327.078 200.36L330.458 192.78H332.538L327.838 202.78C326.571 205.447 324.805 207.033 322.538 207.54ZM111.733 237.82C111.733 238.94 112.04 239.867 112.653 240.6C113.267 241.32 114.093 241.68 115.133 241.68C116.133 241.68 117.107 241.387 118.053 240.8L118.713 242.36C117.727 242.973 116.553 243.28 115.193 243.28C113.593 243.28 112.293 242.773 111.293 241.76C110.307 240.747 109.813 239.433 109.813 237.82C109.813 236.207 110.307 234.9 111.293 233.9C112.293 232.887 113.593 232.38 115.193 232.38C116.553 232.38 117.727 232.68 118.713 233.28L118.053 234.84C117.12 234.267 116.147 233.98 115.133 233.98C114.093 233.98 113.267 234.347 112.653 235.08C112.04 235.8 111.733 236.713 111.733 237.82ZM124.863 243.28C123.836 243.28 122.976 243 122.283 242.44C121.59 241.88 121.243 241.133 121.243 240.2C121.243 237.667 123.523 236.367 128.083 236.3C127.883 234.793 127.056 234.04 125.603 234.04C124.496 234.04 123.303 234.287 122.023 234.78L121.823 233.08C123.183 232.68 124.476 232.48 125.703 232.48C128.543 232.48 129.963 233.94 129.963 236.86V240.26C129.963 241.02 130.103 241.9 130.383 242.9L128.623 243.28L128.323 241.94C127.283 242.833 126.13 243.28 124.863 243.28ZM128.083 239.76V237.94C124.803 238.007 123.163 238.7 123.163 240.02C123.163 241.087 123.756 241.62 124.943 241.62C125.636 241.62 126.33 241.44 127.023 241.08C127.73 240.707 128.083 240.267 128.083 239.76ZM135.658 234.06C135.845 233.673 136.225 233.313 136.798 232.98C137.385 232.647 137.945 232.48 138.478 232.48C138.905 232.48 139.225 232.507 139.438 232.56V234.18C139.278 234.14 139.051 234.12 138.758 234.12C136.851 234.12 135.898 235.267 135.898 237.56V243H133.998V236.24C133.998 234.64 133.878 233.433 133.638 232.62H135.318C135.545 232.993 135.658 233.473 135.658 234.06ZM144.3 243H142.4V232.78H144.3V243ZM143.3 228.32C143.7 228.32 144.04 228.46 144.32 228.74C144.614 229.02 144.76 229.36 144.76 229.76C144.76 230.16 144.614 230.5 144.32 230.78C144.04 231.06 143.7 231.2 143.3 231.2C142.9 231.2 142.56 231.06 142.28 230.78C142 230.5 141.86 230.16 141.86 229.76C141.86 229.36 142 229.02 142.28 228.74C142.56 228.46 142.9 228.32 143.3 228.32ZM153.543 232.48C154.929 232.48 156.023 232.907 156.823 233.76C157.623 234.613 158.023 235.76 158.023 237.2V243H156.123V237.2C156.123 235.107 155.169 234.06 153.263 234.06C152.583 234.06 151.903 234.373 151.223 235C150.543 235.627 150.203 236.26 150.203 236.9V243H148.303V235.48C148.303 234.227 148.223 233.313 148.063 232.74H149.843C149.976 233.06 150.043 233.473 150.043 233.98C151.003 232.98 152.169 232.48 153.543 232.48ZM150.143 231.42C150.143 230.82 150.289 230.313 150.583 229.9C150.876 229.487 151.289 229.28 151.823 229.28C152.169 229.28 152.596 229.413 153.103 229.68C153.663 229.96 154.063 230.1 154.303 230.1C154.676 230.1 154.863 229.827 154.863 229.28H156.163C156.109 230.8 155.516 231.56 154.383 231.56C154.169 231.56 153.729 231.413 153.063 231.12C152.436 230.84 152.023 230.7 151.823 230.7C151.583 230.7 151.463 230.94 151.463 231.42H150.143ZM172.138 237.82C172.138 239.353 171.618 240.64 170.578 241.68C169.538 242.72 168.251 243.24 166.718 243.24C165.184 243.24 163.898 242.72 162.858 241.68C161.818 240.64 161.298 239.353 161.298 237.82C161.298 236.3 161.818 235.013 162.858 233.96C163.898 232.907 165.184 232.38 166.718 232.38C168.251 232.38 169.538 232.907 170.578 233.96C171.618 235.013 172.138 236.3 172.138 237.82ZM166.718 241.64C167.758 241.64 168.604 241.273 169.258 240.54C169.924 239.807 170.258 238.9 170.258 237.82C170.258 236.74 169.924 235.833 169.258 235.1C168.604 234.367 167.758 234 166.718 234C165.678 234 164.824 234.367 164.158 235.1C163.491 235.833 163.158 236.74 163.158 237.82C163.158 238.9 163.491 239.807 164.158 240.54C164.824 241.273 165.678 241.64 166.718 241.64ZM188.418 232.48C189.804 232.48 190.898 232.907 191.698 233.76C192.498 234.613 192.898 235.76 192.898 237.2V243H190.998V237.2C190.998 235.107 190.044 234.06 188.138 234.06C187.458 234.06 186.778 234.373 186.098 235C185.418 235.627 185.078 236.26 185.078 236.9V243H183.178V235.48C183.178 234.227 183.098 233.313 182.938 232.74H184.718C184.851 233.06 184.918 233.473 184.918 233.98C185.878 232.98 187.044 232.48 188.418 232.48ZM198.033 238.18C198.113 239.233 198.493 240.067 199.173 240.68C199.866 241.28 200.773 241.58 201.893 241.58C203.013 241.58 204.293 241.32 205.733 240.8L205.953 242.46C204.473 243.007 203.079 243.28 201.773 243.28C200.173 243.28 198.839 242.793 197.773 241.82C196.706 240.847 196.173 239.587 196.173 238.04C196.173 236.373 196.673 235.013 197.673 233.96C198.686 232.907 200.013 232.38 201.653 232.38C204.733 232.38 206.306 234.313 206.373 238.18H198.033ZM204.513 236.6C204.406 235.813 204.079 235.173 203.533 234.68C202.999 234.187 202.313 233.94 201.473 233.94C200.646 233.94 199.919 234.2 199.293 234.72C198.679 235.227 198.299 235.853 198.153 236.6H204.513ZM210.85 237.82C210.85 238.94 211.157 239.867 211.77 240.6C212.384 241.32 213.21 241.68 214.25 241.68C215.25 241.68 216.224 241.387 217.17 240.8L217.83 242.36C216.844 242.973 215.67 243.28 214.31 243.28C212.71 243.28 211.41 242.773 210.41 241.76C209.424 240.747 208.93 239.433 208.93 237.82C208.93 236.207 209.424 234.9 210.41 233.9C211.41 232.887 212.71 232.38 214.31 232.38C215.67 232.38 216.844 232.68 217.83 233.28L217.17 234.84C216.237 234.267 215.264 233.98 214.25 233.98C213.21 233.98 212.384 234.347 211.77 235.08C211.157 235.8 210.85 236.713 210.85 237.82ZM222.22 238.18C222.3 239.233 222.68 240.067 223.36 240.68C224.053 241.28 224.96 241.58 226.08 241.58C227.2 241.58 228.48 241.32 229.92 240.8L230.14 242.46C228.66 243.007 227.267 243.28 225.96 243.28C224.36 243.28 223.027 242.793 221.96 241.82C220.893 240.847 220.36 239.587 220.36 238.04C220.36 236.373 220.86 235.013 221.86 233.96C222.873 232.907 224.2 232.38 225.84 232.38C228.92 232.38 230.493 234.313 230.56 238.18H222.22ZM228.7 236.6C228.593 235.813 228.267 235.173 227.72 234.68C227.187 234.187 226.5 233.94 225.66 233.94C224.833 233.94 224.107 234.2 223.48 234.72C222.867 235.227 222.487 235.853 222.34 236.6H228.7ZM237.178 233.98C236.685 233.98 236.251 234.113 235.878 234.38C235.518 234.633 235.338 234.98 235.338 235.42C235.338 235.94 236.071 236.453 237.538 236.96C239.511 237.64 240.498 238.68 240.498 240.08C240.498 241.093 240.111 241.88 239.338 242.44C238.565 243 237.598 243.28 236.438 243.28C235.411 243.28 234.305 242.947 233.118 242.28L233.878 240.78C234.691 241.34 235.571 241.62 236.518 241.62C237.918 241.62 238.618 241.14 238.618 240.18C238.618 239.42 237.938 238.833 236.578 238.42C234.578 237.793 233.578 236.84 233.578 235.56C233.578 234.627 233.931 233.887 234.638 233.34C235.358 232.78 236.245 232.5 237.298 232.5C238.445 232.5 239.431 232.793 240.258 233.38L239.558 234.76C238.851 234.24 238.058 233.98 237.178 233.98ZM246.644 243.28C245.617 243.28 244.757 243 244.064 242.44C243.371 241.88 243.024 241.133 243.024 240.2C243.024 237.667 245.304 236.367 249.864 236.3C249.664 234.793 248.837 234.04 247.384 234.04C246.277 234.04 245.084 234.287 243.804 234.78L243.604 233.08C244.964 232.68 246.257 232.48 247.484 232.48C250.324 232.48 251.744 233.94 251.744 236.86V240.26C251.744 241.02 251.884 241.9 252.164 242.9L250.404 243.28L250.104 241.94C249.064 242.833 247.911 243.28 246.644 243.28ZM249.864 239.76V237.94C246.584 238.007 244.944 238.7 244.944 240.02C244.944 241.087 245.537 241.62 246.724 241.62C247.417 241.62 248.111 241.44 248.804 241.08C249.511 240.707 249.864 240.267 249.864 239.76ZM257.439 234.06C257.626 233.673 258.006 233.313 258.579 232.98C259.166 232.647 259.726 232.48 260.259 232.48C260.686 232.48 261.006 232.507 261.219 232.56V234.18C261.059 234.14 260.833 234.12 260.539 234.12C258.633 234.12 257.679 235.267 257.679 237.56V243H255.779V236.24C255.779 234.64 255.659 233.433 255.419 232.62H257.099C257.326 232.993 257.439 233.473 257.439 234.06ZM266.082 243H264.182V232.78H266.082V243ZM265.082 228.32C265.482 228.32 265.822 228.46 266.102 228.74C266.395 229.02 266.542 229.36 266.542 229.76C266.542 230.16 266.395 230.5 266.102 230.78C265.822 231.06 265.482 231.2 265.082 231.2C264.682 231.2 264.342 231.06 264.062 230.78C263.782 230.5 263.642 230.16 263.642 229.76C263.642 229.36 263.782 229.02 264.062 228.74C264.342 228.46 264.682 228.32 265.082 228.32ZM280.204 237.82C280.204 239.353 279.684 240.64 278.644 241.68C277.604 242.72 276.317 243.24 274.784 243.24C273.251 243.24 271.964 242.72 270.924 241.68C269.884 240.64 269.364 239.353 269.364 237.82C269.364 236.3 269.884 235.013 270.924 233.96C271.964 232.907 273.251 232.38 274.784 232.38C276.317 232.38 277.604 232.907 278.644 233.96C279.684 235.013 280.204 236.3 280.204 237.82ZM274.784 241.64C275.824 241.64 276.671 241.273 277.324 240.54C277.991 239.807 278.324 238.9 278.324 237.82C278.324 236.74 277.991 235.833 277.324 235.1C276.671 234.367 275.824 234 274.784 234C273.744 234 272.891 234.367 272.224 235.1C271.557 235.833 271.224 236.74 271.224 237.82C271.224 238.9 271.557 239.807 272.224 240.54C272.891 241.273 273.744 241.64 274.784 241.64Z" fill="#565555"/>
<path d="M117.601 71H102.691V45.94H117.601V48.775H106.016V56.37H116.341V59.205H106.016V68.165H117.601V71ZM130.694 52.59C133.121 52.59 135.034 53.3367 136.434 54.83C137.834 56.3233 138.534 58.33 138.534 60.85V71H135.209V60.85C135.209 57.1867 133.541 55.355 130.204 55.355C129.014 55.355 127.824 55.9033 126.634 57C125.444 58.0967 124.849 59.205 124.849 60.325V71H121.524V57.84C121.524 55.6467 121.384 54.0483 121.104 53.045H124.219C124.452 53.605 124.569 54.3283 124.569 55.215C126.249 53.465 128.291 52.59 130.694 52.59ZM148.36 71H145.035V55.845H142.06V53.115H145.105C145.105 47.095 147.438 44.085 152.105 44.085C153.575 44.085 154.823 44.47 155.85 45.24L154.905 47.725C153.715 47.2117 152.747 46.955 152 46.955C149.573 46.955 148.36 49.0083 148.36 53.115H153.47V55.845H148.36V71ZM159.134 62.565C159.274 64.4083 159.939 65.8667 161.129 66.94C162.342 67.99 163.929 68.515 165.889 68.515C167.849 68.515 170.089 68.06 172.609 67.15L172.994 70.055C170.404 71.0117 167.966 71.49 165.679 71.49C162.879 71.49 160.546 70.6383 158.679 68.935C156.812 67.2317 155.879 65.0267 155.879 62.32C155.879 59.4033 156.754 57.0233 158.504 55.18C160.277 53.3367 162.599 52.415 165.469 52.415C170.859 52.415 173.612 55.7983 173.729 62.565H159.134ZM170.474 59.8C170.287 58.4233 169.716 57.3033 168.759 56.44C167.826 55.5767 166.624 55.145 165.154 55.145C163.707 55.145 162.436 55.6 161.339 56.51C160.266 57.3967 159.601 58.4933 159.344 59.8H170.474ZM180.62 55.355C180.947 54.6783 181.612 54.0483 182.615 53.465C183.642 52.8817 184.622 52.59 185.555 52.59C186.302 52.59 186.862 52.6367 187.235 52.73V55.565C186.955 55.495 186.559 55.46 186.045 55.46C182.709 55.46 181.04 57.4667 181.04 61.48V71H177.715V59.17C177.715 56.37 177.505 54.2583 177.085 52.835H180.025C180.422 53.4883 180.62 54.3283 180.62 55.355ZM211.774 52.59C213.944 52.59 215.671 53.4067 216.954 55.04C218.238 56.65 218.879 58.6567 218.879 61.06V71H215.589V61.095C215.589 59.485 215.193 58.1317 214.399 57.035C213.606 55.915 212.521 55.355 211.144 55.355C210.001 55.355 208.928 55.81 207.924 56.72C206.921 57.6067 206.419 58.5983 206.419 59.695V71H203.094V60.22C203.094 56.9767 201.741 55.355 199.034 55.355C197.868 55.355 196.736 55.8917 195.639 56.965C194.543 58.0383 193.994 59.1583 193.994 60.325V71H190.669V57.84C190.669 55.6467 190.529 54.0483 190.249 53.045H193.364C193.598 53.605 193.714 54.2933 193.714 55.11C194.181 54.4567 194.986 53.8733 196.129 53.36C197.273 52.8467 198.381 52.59 199.454 52.59C201.741 52.59 203.608 53.57 205.054 55.53C206.921 53.57 209.161 52.59 211.774 52.59ZM226.126 62.565C226.266 64.4083 226.931 65.8667 228.121 66.94C229.335 67.99 230.921 68.515 232.881 68.515C234.841 68.515 237.081 68.06 239.601 67.15L239.986 70.055C237.396 71.0117 234.958 71.49 232.671 71.49C229.871 71.49 227.538 70.6383 225.671 68.935C223.805 67.2317 222.871 65.0267 222.871 62.32C222.871 59.4033 223.746 57.0233 225.496 55.18C227.27 53.3367 229.591 52.415 232.461 52.415C237.851 52.415 240.605 55.7983 240.721 62.565H226.126ZM237.466 59.8C237.28 58.4233 236.708 57.3033 235.751 56.44C234.818 55.5767 233.616 55.145 232.146 55.145C230.7 55.145 229.428 55.6 228.331 56.51C227.258 57.3967 226.593 58.4933 226.336 59.8H237.466ZM247.613 55.355C247.939 54.6783 248.604 54.0483 249.608 53.465C250.634 52.8817 251.614 52.59 252.548 52.59C253.294 52.59 253.854 52.6367 254.228 52.73V55.565C253.948 55.495 253.551 55.46 253.038 55.46C249.701 55.46 248.033 57.4667 248.033 61.48V71H244.708V59.17C244.708 56.37 244.498 54.2583 244.078 52.835H247.018C247.414 53.4883 247.613 54.3283 247.613 55.355ZM262.737 71.49C260.94 71.49 259.435 71 258.222 70.02C257.008 69.04 256.402 67.7333 256.402 66.1C256.402 61.6667 260.392 59.3917 268.372 59.275C268.022 56.6383 266.575 55.32 264.032 55.32C262.095 55.32 260.007 55.7517 257.767 56.615L257.417 53.64C259.797 52.94 262.06 52.59 264.207 52.59C269.177 52.59 271.662 55.145 271.662 60.255V66.205C271.662 67.535 271.907 69.075 272.397 70.825L269.317 71.49L268.792 69.145C266.972 70.7083 264.953 71.49 262.737 71.49ZM268.372 65.33V62.145C262.632 62.2617 259.762 63.475 259.762 65.785C259.762 67.6517 260.8 68.585 262.877 68.585C264.09 68.585 265.303 68.27 266.517 67.64C267.753 66.9867 268.372 66.2167 268.372 65.33ZM282.818 55.215C281.955 55.215 281.196 55.4483 280.543 55.915C279.913 56.3583 279.598 56.965 279.598 57.735C279.598 58.645 280.881 59.5433 283.448 60.43C286.901 61.62 288.628 63.44 288.628 65.89C288.628 67.6633 287.951 69.04 286.598 70.02C285.245 71 283.553 71.49 281.523 71.49C279.726 71.49 277.79 70.9067 275.713 69.74L277.043 67.115C278.466 68.095 280.006 68.585 281.663 68.585C284.113 68.585 285.338 67.745 285.338 66.065C285.338 64.735 284.148 63.7083 281.768 62.985C278.268 61.8883 276.518 60.22 276.518 57.98C276.518 56.3467 277.136 55.0517 278.373 54.095C279.633 53.115 281.185 52.625 283.028 52.625C285.035 52.625 286.761 53.1383 288.208 54.165L286.983 56.58C285.746 55.67 284.358 55.215 282.818 55.215Z" fill="#27AE60"/>
<g clip-path="url(#clip0_29_962)">
<path d="M135 329C135 323.477 139.477 319 145 319H331C336.523 319 341 323.477 341 329V371C341 376.523 336.523 381 331 381H145C139.477 381 135 376.523 135 371V329Z" fill="#27AE60"/>
<path d="M168.731 348.88C168.731 346.627 169.345 344.827 170.571 343.48C171.798 342.133 173.485 341.46 175.631 341.46C177.325 341.46 178.878 341.753 180.291 342.34L179.691 343.84C178.505 343.347 177.171 343.1 175.691 343.1C174.065 343.1 172.818 343.62 171.951 344.66C171.085 345.687 170.651 347.113 170.651 348.94C170.651 350.58 171.085 351.933 171.951 353C172.831 354.053 173.998 354.58 175.451 354.58C177.118 354.58 178.558 354.28 179.771 353.68L180.291 355.24C178.798 355.893 177.051 356.22 175.051 356.22C173.105 356.22 171.565 355.527 170.431 354.14C169.298 352.753 168.731 351 168.731 348.88ZM193.559 350.82C193.559 352.353 193.039 353.64 191.999 354.68C190.959 355.72 189.673 356.24 188.139 356.24C186.606 356.24 185.319 355.72 184.279 354.68C183.239 353.64 182.719 352.353 182.719 350.82C182.719 349.3 183.239 348.013 184.279 346.96C185.319 345.907 186.606 345.38 188.139 345.38C189.673 345.38 190.959 345.907 191.999 346.96C193.039 348.013 193.559 349.3 193.559 350.82ZM188.139 354.64C189.179 354.64 190.026 354.273 190.679 353.54C191.346 352.807 191.679 351.9 191.679 350.82C191.679 349.74 191.346 348.833 190.679 348.1C190.026 347.367 189.179 347 188.139 347C187.099 347 186.246 347.367 185.579 348.1C184.913 348.833 184.579 349.74 184.579 350.82C184.579 351.9 184.913 352.807 185.579 353.54C186.246 354.273 187.099 354.64 188.139 354.64ZM202.062 345.48C203.449 345.48 204.542 345.907 205.342 346.76C206.142 347.613 206.542 348.76 206.542 350.2V356H204.642V350.2C204.642 348.107 203.689 347.06 201.782 347.06C201.102 347.06 200.422 347.373 199.742 348C199.062 348.627 198.722 349.26 198.722 349.9V356H196.822V348.48C196.822 347.227 196.742 346.313 196.582 345.74H198.362C198.496 346.06 198.562 346.473 198.562 346.98C199.522 345.98 200.689 345.48 202.062 345.48ZM220.657 350.82C220.657 352.353 220.137 353.64 219.097 354.68C218.057 355.72 216.77 356.24 215.237 356.24C213.704 356.24 212.417 355.72 211.377 354.68C210.337 353.64 209.817 352.353 209.817 350.82C209.817 349.3 210.337 348.013 211.377 346.96C212.417 345.907 213.704 345.38 215.237 345.38C216.77 345.38 218.057 345.907 219.097 346.96C220.137 348.013 220.657 349.3 220.657 350.82ZM215.237 354.64C216.277 354.64 217.124 354.273 217.777 353.54C218.444 352.807 218.777 351.9 218.777 350.82C218.777 349.74 218.444 348.833 217.777 348.1C217.124 347.367 216.277 347 215.237 347C214.197 347 213.344 347.367 212.677 348.1C212.01 348.833 211.677 349.74 211.677 350.82C211.677 351.9 212.01 352.807 212.677 353.54C213.344 354.273 214.197 354.64 215.237 354.64ZM225.12 350.82C225.12 351.94 225.427 352.867 226.04 353.6C226.653 354.32 227.48 354.68 228.52 354.68C229.52 354.68 230.493 354.387 231.44 353.8L232.1 355.36C231.113 355.973 229.94 356.28 228.58 356.28C226.98 356.28 225.68 355.773 224.68 354.76C223.693 353.747 223.2 352.433 223.2 350.82C223.2 349.207 223.693 347.9 224.68 346.9C225.68 345.887 226.98 345.38 228.58 345.38C229.94 345.38 231.113 345.68 232.1 346.28L231.44 347.84C230.507 347.267 229.533 346.98 228.52 346.98C227.48 346.98 226.653 347.347 226.04 348.08C225.427 348.8 225.12 349.713 225.12 350.82ZM236.49 351.18C236.57 352.233 236.95 353.067 237.63 353.68C238.323 354.28 239.23 354.58 240.35 354.58C241.47 354.58 242.75 354.32 244.19 353.8L244.41 355.46C242.93 356.007 241.536 356.28 240.23 356.28C238.63 356.28 237.296 355.793 236.23 354.82C235.163 353.847 234.63 352.587 234.63 351.04C234.63 349.373 235.13 348.013 236.13 346.96C237.143 345.907 238.47 345.38 240.11 345.38C243.19 345.38 244.763 347.313 244.83 351.18H236.49ZM242.97 349.6C242.863 348.813 242.536 348.173 241.99 347.68C241.456 347.187 240.77 346.94 239.93 346.94C239.103 346.94 238.376 347.2 237.75 347.72C237.136 348.227 236.756 348.853 236.61 349.6H242.97ZM252.587 356.24C249.601 356.08 248.107 354.247 248.107 350.74V340.84H250.007V350.32C250.007 351.733 250.201 352.773 250.587 353.44C250.987 354.093 251.727 354.453 252.807 354.52L252.587 356.24ZM258.414 356.28C257.387 356.28 256.527 356 255.834 355.44C255.14 354.88 254.794 354.133 254.794 353.2C254.794 350.667 257.074 349.367 261.634 349.3C261.434 347.793 260.607 347.04 259.154 347.04C258.047 347.04 256.854 347.287 255.574 347.78L255.374 346.08C256.734 345.68 258.027 345.48 259.254 345.48C262.094 345.48 263.514 346.94 263.514 349.86V353.26C263.514 354.02 263.654 354.9 263.934 355.9L262.174 356.28L261.874 354.94C260.834 355.833 259.68 356.28 258.414 356.28ZM261.634 352.76V350.94C258.354 351.007 256.714 351.7 256.714 353.02C256.714 354.087 257.307 354.62 258.494 354.62C259.187 354.62 259.88 354.44 260.574 354.08C261.28 353.707 261.634 353.267 261.634 352.76Z" fill="white"/>
<path d="M304.865 359.365L307.5 362L320 349.5L307.5 337L304.865 339.635L312.866 347.636H295V351.364H312.866L304.865 359.365Z" fill="#3F3D56"/>
</g>
<g filter="url(#filter1_d_29_962)">
<path d="M92.3351 273.619L68.4624 277.616C67.8726 277.715 67.2665 277.595 66.7614 277.278C66.2562 276.961 65.8879 276.47 65.7277 275.901C64.003 269.747 60.3969 261.72 63.898 257.69C64.0764 255.995 64.9093 254.433 66.2234 253.329C67.5375 252.226 69.2316 251.666 70.9529 251.766C75.2176 245.167 82.321 246.158 87.122 250.279C91.9538 251.927 93.7755 254.855 93.1385 258.828C95.2258 260.634 96.3202 262.668 96.5509 264.901C96.6603 266.144 96.5004 267.395 96.0818 268.572C95.6632 269.748 94.9955 270.823 94.1233 271.725L92.3351 273.619Z" fill="#2F2E41"/>
<path d="M88.6236 292.198L70.1168 291.121C71.9305 287.006 72.655 283.044 71.9312 279.284H85.7206C85.6893 282.171 87.1426 287.165 88.6236 292.198Z" fill="#9F616A"/>
<path d="M66.3465 461.239L65.5875 471.496C65.5531 471.961 65.6196 472.427 65.7824 472.864C65.9453 473.301 66.2007 473.698 66.5317 474.029C66.8626 474.36 67.2614 474.618 67.7012 474.784C68.1411 474.951 68.6118 475.022 69.0819 474.994L74.4121 474.675C74.659 474.66 74.8997 474.592 75.1169 474.475C75.3341 474.357 75.5225 474.194 75.6688 473.997C75.8151 473.8 75.9156 473.573 75.9633 473.333C76.0109 473.093 76.0045 472.846 75.9445 472.609L72.9859 460.91L66.3465 461.239Z" fill="#FFFBFB"/>
<path d="M83.6026 460.91L80.6439 472.609C80.5839 472.846 80.5775 473.093 80.6252 473.333C80.6728 473.573 80.7734 473.8 80.9197 473.997C81.066 474.194 81.2544 474.357 81.4716 474.475C81.6888 474.592 81.9294 474.66 82.1764 474.675L87.5065 474.994C87.9766 475.022 88.4474 474.951 88.8872 474.784C89.3271 474.618 89.7259 474.36 90.0568 474.029C90.3877 473.698 90.6432 473.301 90.806 472.864C90.9689 472.427 91.0354 471.961 91.001 471.496L90.2419 461.239L83.6026 460.91Z" fill="#FFFAFA"/>
<path d="M90.5859 462.663L83.3932 461.949L76.232 386.283L73.5256 461.705L66.4589 461.455L54.5481 357H100.054L90.5859 462.663Z" fill="#27AE60"/>
<path d="M79.1897 283.639C86.7799 283.639 92.933 277.556 92.933 270.053C92.933 262.551 86.7799 256.468 79.1897 256.468C71.5995 256.468 65.4464 262.551 65.4464 270.053C65.4464 277.556 71.5995 283.639 79.1897 283.639Z" fill="#9F616A"/>
<path d="M94.6791 263.564C89.1011 262.603 83.6169 262.471 78.2858 263.689C74.8899 264.788 70.8117 264.687 66.2762 263.782V254.62L90.7614 255.057L94.6791 263.564Z" fill="#2F2E41"/>
<path d="M88.336 280.954C82.3237 283.426 76.0195 283.326 69.4575 280.954C71.3669 277.732 68.5128 275.209 67.0475 271.957L91.5493 271.237C89.6756 274.062 86.9109 277.4 88.336 280.954Z" fill="white"/>
<path d="M65.3605 270.102L65.1196 270.387L67.5295 272.373L67.7704 272.087L65.3605 270.102Z" fill="white"/>
<path d="M91.9933 274.115L87.7748 280.666L88.0922 280.866L92.3107 274.315L91.9933 274.115Z" fill="white"/>
<path d="M65.7998 274.115L65.4824 274.315L69.6999 280.866L70.0173 280.666L65.7998 274.115Z" fill="white"/>
<path d="M53.0616 332.014L42.5381 325.557L51.5128 299.574C52.5138 296.893 54.431 294.642 56.933 293.21L59.9563 291.48L60.2191 317.692L53.0616 332.014Z" fill="#27AE60"/>
<path d="M98.5486 344.633L96.9917 331.451C96.9086 324.493 98.106 317.766 100.961 311.568L102.413 292.198L86.4463 285.741C86.3974 286.063 86.3557 286.384 86.309 286.706L78.8259 290.404L71.5279 288.765L71.5684 286.458L57.0533 292.915C61.8534 314.975 59.2353 337.883 50.9808 364.941L70.1031 370.109L70.2621 361.033L87.3042 359.83C87.4797 362.774 87.6208 365.667 87.7027 368.495C97.319 371.995 97.6493 371.937 106.411 366.926C102.922 359.674 100.159 352.128 98.5486 344.633Z" fill="#27AE60"/>
<path d="M123.097 328.785L113.299 325.557L97.6273 307.522L102.413 292.198L124.185 322.329L123.097 328.785Z" fill="#27AE60"/>
<path d="M92.3911 342.747C92.5514 343.443 92.9842 344.047 93.5945 344.427C94.2048 344.808 94.9428 344.934 95.6467 344.777L103.964 342.915L102.762 337.668L94.4445 339.529C93.7406 339.687 93.1288 340.114 92.7437 340.718C92.3586 341.321 92.2318 342.051 92.3911 342.747V342.747Z" fill="#E6E6E6"/>
<path d="M99.8728 336.677L104.59 345.286C112.525 343.098 119.401 336.202 126 328.068L124.186 322.329L112.936 325.198L99.8728 336.677Z" fill="#27AE60"/>
<path d="M38.365 309.673L47.4212 311.271L68.1211 340.365L57.1243 337.808L38.365 309.673Z" fill="#E6E6E6"/>
<path d="M36.7587 309.317C36.6207 309.319 36.4858 309.357 36.3681 309.429C36.2504 309.5 36.1542 309.601 36.0896 309.722C36.025 309.842 35.9943 309.978 36.0009 310.114C36.0074 310.25 36.0508 310.382 36.1267 310.496L55.4756 339.516C55.5835 339.678 55.7503 339.793 55.9416 339.837L64.9441 341.931C65.0958 341.967 65.2549 341.955 65.4001 341.899C65.5454 341.843 65.6699 341.745 65.7573 341.617C65.8446 341.489 65.8906 341.338 65.8892 341.184C65.8877 341.03 65.8389 340.88 65.7492 340.754L44.5053 310.895C44.4476 310.814 44.3744 310.745 44.2897 310.691C44.2049 310.638 44.1104 310.602 44.0114 310.584L36.9038 309.33C36.8559 309.321 36.8073 309.317 36.7587 309.317Z" fill="#3F3D56"/>
<path d="M48.8286 330.065L49.3664 335.42L57.8522 334.587C58.5705 334.516 59.231 334.167 59.6885 333.615C60.146 333.063 60.363 332.354 60.2917 331.644C60.2204 330.934 59.8667 330.281 59.3084 329.829C58.7501 329.377 58.0329 329.162 57.3146 329.233L48.8286 330.065Z" fill="#E6E6E6"/>
<path d="M41.4497 329.445C41.462 331.271 42.2038 333.018 43.5134 334.305C44.823 335.592 46.5943 336.316 48.4413 336.318H49.8366L50.8525 327.95L42.4416 324.957L41.4497 329.445Z" fill="#27AE60"/>
<path d="M90.8789 272.163L90.6129 271.9L91.0146 271.503L93.4149 268.734L93.7004 268.976L91.2904 271.755L90.8789 272.163Z" fill="white"/>
</g>
<defs>
<filter id="filter0_d_29_962" x="0" y="0" width="381" height="465" filterUnits="userSpaceOnUse" color-interpolation-filters="sRGB">
<feFlood flood-opacity="0" result="BackgroundImageFix"/>
<feColorMatrix in="SourceAlpha" type="matrix" values="0 0 0 0 0 0 0 0 0 0 0 0 0 0 0 0 0 0 127 0" result="hardAlpha"/>
<feOffset dx="-4" dy="4"/>
<feGaussianBlur stdDeviation="10"/>
<feComposite in2="hardAlpha" operator="out"/>
<feColorMatrix type="matrix" values="0 0 0 0 0 0 0 0 0 0 0 0 0 0 0 0 0 0 0.25 0"/>
<feBlend mode="normal" in2="BackgroundImageFix" result="effect1_dropShadow_29_962"/>
<feBlend mode="normal" in="SourceGraphic" in2="effect1_dropShadow_29_962" result="shape"/>
</filter>
<filter id="filter1_d_29_962" x="12" y="231" width="130" height="268" filterUnits="userSpaceOnUse" color-interpolation-filters="sRGB">
<feFlood flood-opacity="0" result="BackgroundImageFix"/>
<feColorMatrix in="SourceAlpha" type="matrix" values="0 0 0 0 0 0 0 0 0 0 0 0 0 0 0 0 0 0 127 0" result="hardAlpha"/>
<feOffset dx="-4" dy="4"/>
<feGaussianBlur stdDeviation="10"/>
<feComposite in2="hardAlpha" operator="out"/>
<feColorMatrix type="matrix" values="0 0 0 0 0 0 0 0 0 0 0 0 0 0 0 0 0 0 0.25 0"/>
<feBlend mode="normal" in2="BackgroundImageFix" result="effect1_dropShadow_29_962"/>
<feBlend mode="normal" in="SourceGraphic" in2="effect1_dropShadow_29_962" result="shape"/>
</filter>
<clipPath id="clip0_29_962">
<path d="M135 329C135 323.477 139.477 319 145 319H331C336.523 319 341 323.477 341 329V371C341 376.523 336.523 381 331 381H145C139.477 381 135 376.523 135 371V329Z" fill="white"/>
</clipPath>
</defs>
</svg>
