<svg width="380" height="342" viewBox="0 0 380 342" fill="none" xmlns="http://www.w3.org/2000/svg">
<g filter="url(#filter0_d_21_457)">
<path opacity="0.1" d="M315.149 90.8293H302.665V103.299H315.149V90.8293Z" fill="#27AE60"/>
<path opacity="0.1" d="M315.149 122.275H302.665V134.745H315.149V122.275Z" fill="#27AE60"/>
<path opacity="0.1" d="M315.149 153.179H302.665V165.649H315.149V153.179Z" fill="#27AE60"/>
<path opacity="0.1" d="M315.149 184.083H302.665V197.095H315.149V184.083Z" fill="#27AE60"/>
<path opacity="0.1" d="M315.149 215.529H302.665V227.999H315.149V215.529Z" fill="#27AE60"/>
<path opacity="0.1" d="M302.665 254.566V246.433H315.149V253.408L302.665 254.566Z" fill="#27AE60"/>
<path opacity="0.1" d="M265.85 213.903H266.294H265.85ZM237.283 147.291C237.367 147.575 237.443 147.859 237.518 148.138C237.452 147.859 237.372 147.575 237.283 147.291ZM24.76 16.5605V18.4501H44.6153V16.5516L24.76 16.5605ZM265.854 213.903H266.299H265.854ZM237.283 147.291C237.367 147.575 237.443 147.859 237.518 148.138C237.452 147.859 237.372 147.575 237.283 147.291ZM265.85 213.903H266.294H265.85ZM237.283 147.291C237.367 147.575 237.443 147.859 237.518 148.138C237.452 147.859 237.372 147.575 237.283 147.291Z" fill="#6C63FF"/>
<path opacity="0.1" d="M320.849 318C344.681 318 364 314.844 364 310.952C364 307.059 344.681 303.903 320.849 303.903C297.017 303.903 277.697 307.059 277.697 310.952C277.697 314.844 297.017 318 320.849 318Z" fill="#27AE60"/>
<path d="M360.099 141.387C360.099 141.387 358.345 141.142 358.345 138.598C358.345 136.053 357.089 131.288 357.089 131.288C357.089 131.288 356.003 122.997 354.502 121.682C353.002 120.368 351.074 112.649 351.074 112.649C351.074 112.649 350.745 108.461 350.072 107.56C349.4 106.658 348.492 104.451 347.151 101.303C345.811 98.1539 340.237 95.9955 340.237 95.9955C340.237 95.9955 330.134 90.1512 327.271 88.246C327.01 88.0882 326.765 87.9036 326.541 87.6954C326.042 87.047 323.87 87.0337 323.87 87.0337C323.643 85.5992 323.424 83.9561 323.353 82.4684C323.353 82.3085 323.353 82.1486 323.353 81.9887C326.546 80.1066 328.95 77.139 330.125 73.6308C330.179 73.4621 330.223 73.2889 330.272 73.1157C330.468 73.0555 330.648 72.9548 330.802 72.8201C330.955 72.6853 331.078 72.5197 331.163 72.3341C331.417 71.7612 331.425 71.095 331.746 70.5577C332.12 69.927 332.832 69.5895 333.393 69.1188C334.809 67.9153 335.174 65.8946 335.108 64.0605C335.063 62.5684 334.823 61.0673 334.916 59.5885C334.916 59.4641 334.916 59.3398 334.943 59.2154C334.97 58.9978 335.001 58.7713 335.041 58.5582C335.259 57.4568 335.735 56.4176 336.003 55.3251C336.27 54.2327 336.296 53.0025 335.673 52.061C334.76 50.6799 332.859 50.4045 331.189 50.2846C329.297 50.1248 327.628 50.329 326.394 48.7614C325.828 47.9426 325.191 47.1757 324.489 46.4698C324.239 46.2389 321.817 44.7601 321.817 44.6668C319.447 43.5678 316.759 43.3611 314.248 44.085C312.988 44.4492 311.808 45.0443 310.53 45.3418C307.788 45.9902 304.626 45.2885 302.293 46.8562C300.993 47.7444 300.214 49.1611 299.484 50.5333C298.89 51.6643 298.288 52.7967 297.676 53.9307C296.688 55.7914 295.69 57.6833 295.276 59.7439C295.19 60.194 295.135 60.6496 295.111 61.1073V61.1073C295.111 61.2716 295.111 61.4359 295.111 61.6002C295.111 61.6713 295.111 61.7423 295.111 61.8134C295.111 61.9644 295.111 62.1154 295.138 62.2575C295.165 62.3996 295.138 62.4396 295.169 62.5328C295.201 62.6261 295.209 62.8348 295.236 62.9769C295.263 63.119 295.316 63.3722 295.37 63.5631C295.37 63.6475 295.423 63.7275 295.45 63.8118C295.477 63.8962 295.548 64.1094 295.606 64.2559C295.664 64.4025 295.668 64.4114 295.704 64.4869C295.77 64.6423 295.851 64.7933 295.931 64.9309C295.966 64.9887 295.993 65.0464 296.029 65.1042C296.151 65.312 296.288 65.5109 296.438 65.6992C297.387 66.885 298.794 67.6399 299.831 68.7502C299.831 68.7946 299.831 68.839 299.831 68.8834C299.831 69.0033 299.831 69.1232 299.831 69.2476C299.895 71.7239 300.564 74.1472 301.781 76.3067C302.997 78.4661 304.725 80.2963 306.812 81.6379C306.812 81.8067 306.835 81.9798 306.844 82.153C306.93 83.4698 306.914 84.7913 306.795 86.1055C306.613 85.893 306.386 85.7237 306.13 85.61C305.874 85.4963 305.596 85.441 305.316 85.4482C305.125 85.4388 304.933 85.4552 304.747 85.4971L304.706 85.466V85.506C303.727 85.7458 302.52 86.7628 301.367 89.6538C301.367 89.6538 297.859 93.5974 295.187 93.4331C292.516 93.2688 285.752 97.541 285.752 97.541C285.752 97.541 279.154 101.809 277.738 106.161C276.947 108.629 275.996 111.044 274.893 113.391L266.714 130.142L265.213 143.465C265.213 143.465 266.046 149.376 265.881 150.282C265.717 151.188 269.305 159.315 269.305 159.315C269.305 159.315 281.162 180.09 286.006 181.156L286.354 180.916C286.562 181.021 286.781 181.101 287.008 181.156L288.005 180.458C288.067 181.239 288.04 182.024 287.925 182.799C287.262 184.855 288.179 198.24 289.346 200.865C290.512 203.489 290.098 237.907 290.098 237.907L289.933 240.94C289.933 240.94 289.933 241.038 289.973 241.206L289.933 241.926L290.053 241.988C290.178 242.953 290.138 243.932 289.933 244.884C289.515 246.216 289.346 249.977 289.346 249.977C289.346 249.977 286.006 271.241 287.591 275.513C289.176 279.785 290.517 284.466 290.517 284.466C290.517 284.466 292.186 289.795 290.597 290.683C289.007 291.571 284.506 293.148 285.423 295.364C286.269 297.416 289.479 302.914 289.956 303.718L289.915 304.162L289.261 311.236C289.367 312.17 289.621 313.082 290.013 313.936C290.73 315.482 292.119 317.076 294.773 316.903C295.218 316.872 295.73 316.823 296.233 316.756C301.082 316.103 307.048 313.945 307.048 313.945C306.739 313.75 306.456 313.515 306.207 313.248V313.248C305.969 313.018 305.78 312.741 305.652 312.436C305.524 312.131 305.46 311.802 305.463 311.471C305.535 310.179 303.117 304.046 302.511 302.532L302.373 302.194C302.373 302.194 307.885 296.443 306.968 291.354C306.968 291.354 300.868 287.801 302.877 285.847C304.885 283.893 308.473 278.297 308.473 278.297C308.473 278.297 308.638 257.358 308.473 254.236C308.301 252.065 308.405 249.88 308.78 247.735C308.847 247.415 308.927 247.1 309.012 246.784C311.791 247.203 314.598 247.415 317.409 247.419C318.436 247.419 319.475 247.399 320.526 247.357C320.526 247.653 320.539 247.973 320.566 248.316C320.798 253.503 321.229 262.603 321.581 265.983C322.08 270.823 324.836 283.884 324.836 283.884C324.836 283.884 319.578 287.246 325.753 295.546C325.753 295.546 325.753 298.548 325.343 298.988C324.906 300.412 324.553 301.861 324.288 303.327C324.03 304.886 323.923 306.471 324.342 307.288C325.343 309.251 331.354 309.091 331.354 309.091C331.403 309.08 331.452 309.072 331.501 309.069C332.636 308.949 333.783 309.057 334.875 309.384C335.968 309.712 336.984 310.254 337.864 310.979C340.148 312.808 348.812 312.009 353.51 311.423C355.348 311.187 356.577 310.979 356.577 310.979C356.636 310.771 356.657 310.554 356.64 310.339V310.339C356.591 309.189 355.687 306.666 349.56 304.415C349.56 304.415 343.799 300.551 343.879 297.185H343.75H343.086C343.505 297.172 343.799 297.172 343.799 297.172C343.799 297.172 341.541 288.96 342.463 288.29C343.385 287.619 340.624 278.519 340.624 278.519C340.624 278.519 339.044 263.243 338.955 262.177C338.96 261.258 339.101 260.345 339.373 259.468L338.955 251.088C338.955 251.088 338.874 248.303 338.955 247.397C338.946 246.611 338.883 245.826 338.768 245.048C338.727 244.737 338.687 244.413 338.643 244.093C340.802 243.547 342.205 243.045 342.205 243.045L341.955 213.89C343.79 210.337 344.128 202.539 344.119 197.014C344.119 193.462 343.959 190.832 343.959 190.832L346.466 186.751C346.466 186.751 347.045 181.866 346.127 180.796C345.722 180.312 345.905 179.81 346.239 179.397C346.414 179.253 346.6 179.123 346.795 179.006C346.773 178.975 346.754 178.943 346.737 178.908C346.912 178.763 347.098 178.63 347.294 178.513C347.294 178.513 346.403 177.137 347.2 176.555C347.948 177.061 348.616 177.465 349.124 177.754C349.088 178.078 349.053 178.265 349.053 178.265L349.266 177.82C349.756 178.096 350.054 178.265 350.054 178.265C350.054 178.265 353.981 170.462 353.897 169.316C353.812 168.17 356.568 163.321 356.568 163.321C356.568 163.321 356.902 160.772 358.407 159.706C359.912 158.64 359.574 150.917 359.574 150.917C359.574 150.917 359.992 146.894 360.994 145.255C361.996 143.616 360.099 141.387 360.099 141.387ZM284.96 137.963L285.036 139.823C284.59 139.108 284.27 138.598 284.27 138.598L284.96 137.963Z" fill="url(#paint0_linear_21_457)"/>
<path d="M350.43 175.131L349.473 179.204C349.473 179.204 341.805 175.286 340.426 170.328C339.048 165.371 342.735 163.48 342.735 163.48L349.885 166.499L350.43 175.131Z" fill="white"/>
<path opacity="0.1" d="M350.43 175.131L349.473 179.204C349.473 179.204 341.805 175.286 340.426 170.328C339.048 165.371 342.735 163.48 342.735 163.48L349.885 166.499L350.43 175.131Z" fill="black"/>
<path d="M307.008 313.983C307.008 313.983 299.909 316.577 295.029 316.903C292.438 317.075 291.076 315.496 290.375 313.975C289.994 313.135 289.746 312.243 289.639 311.329L290.282 304.339L290.619 300.621L300.987 297.94L302.456 302.407L302.593 302.742C303.179 304.237 305.548 310.297 305.477 311.562C305.471 311.89 305.532 312.215 305.657 312.518C305.781 312.821 305.966 313.096 306.2 313.326C306.44 313.578 306.712 313.799 307.008 313.983V313.983Z" fill="white"/>
<path d="M355.852 310.294C355.87 310.507 355.849 310.721 355.789 310.926C355.789 310.926 340.526 313.424 337.404 310.926C336.527 310.196 335.504 309.654 334.401 309.334C333.298 309.015 332.139 308.926 330.999 309.071C330.999 309.071 325.094 309.229 324.108 307.318C323.698 306.516 323.805 304.959 324.059 303.429C324.319 301.99 324.664 300.568 325.094 299.168L325.33 298.984L326.735 297.875L343.185 297.397H343.31C343.229 300.703 348.889 304.495 348.889 304.495C354.915 306.687 355.803 309.163 355.852 310.294Z" fill="white"/>
<path opacity="0.1" d="M355.853 310.281C355.869 310.496 355.847 310.711 355.786 310.917C355.786 310.917 340.526 313.435 337.409 310.917C336.531 310.181 335.507 309.635 334.404 309.313C333.301 308.992 332.141 308.902 331.001 309.049C331.001 309.049 325.092 309.208 324.106 307.283C323.701 306.475 323.803 304.907 324.057 303.361C326.332 303.587 329.922 304.147 331.331 305.49C333.462 307.521 337.075 309.553 339.286 309.716C341.035 309.822 351.43 310.149 355.853 310.281Z" fill="black"/>
<path opacity="0.1" d="M307.008 313.831C307.008 313.831 300.058 316.559 295.28 316.902C292.744 317.083 291.41 315.422 290.724 313.821C292.496 314.457 294.95 315.12 296.24 314.513C297.769 313.784 303.19 313.32 306.23 313.121C306.459 313.392 306.721 313.631 307.008 313.831V313.831Z" fill="black"/>
<path d="M317.751 103.851C311.882 101.533 304.331 93.8734 306.217 90.2943C306.634 89.3904 306.882 88.4161 306.951 87.4203C307.072 86.068 307.09 84.7083 307.004 83.3532C306.872 81.1325 306.609 78.9218 306.217 76.7329C306.217 76.7329 324.541 77.1532 323.474 79.8962C323.163 80.7051 323.109 82.1015 323.198 83.6605C323.287 85.2195 323.505 86.9955 323.736 88.4913C324.052 90.5384 324.377 92.1065 324.377 92.1065C324.377 92.1065 323.252 93.7017 322.598 93.7875C321.944 93.8734 326.173 107.173 317.751 103.851Z" fill="#CF6F80"/>
<path opacity="0.1" d="M302.665 302.692L302.526 302.84C296.984 296.338 290.28 304.446 290.28 304.446L290.181 304.271L290.523 300.593L301.037 297.94L302.526 302.36L302.665 302.692Z" fill="black"/>
<path opacity="0.1" d="M343.374 297.886C343.374 297.886 339.306 297.806 337.137 299.707C334.968 301.609 324.482 300.115 324.934 299.707C325.066 299.5 325.146 299.265 325.169 299.021L326.592 297.886L343.261 297.397C343.324 297.711 343.374 297.886 343.374 297.886Z" fill="black"/>
<path d="M309.675 245.964C309.376 246.698 309.148 247.459 308.995 248.236C308.622 250.365 308.518 252.531 308.687 254.685C308.852 257.786 308.687 278.563 308.687 278.563C308.687 278.563 305.147 284.105 303.169 286.058C301.191 288.011 307.196 291.519 307.196 291.519C308.091 296.573 302.668 302.278 302.668 302.278C297.155 295.678 290.488 303.903 290.488 303.903C290.488 303.903 286.863 297.702 285.959 295.488C285.055 293.273 289.499 291.745 291.06 290.841C292.622 289.938 290.98 284.64 290.98 284.64C290.98 284.64 289.664 279.994 288.098 275.755C286.532 271.516 289.825 250.42 289.825 250.42C289.825 250.42 289.995 246.668 290.403 245.362C290.606 244.418 290.647 243.448 290.523 242.491C290.497 242.168 290.465 241.902 290.443 241.716C290.421 241.53 290.403 241.45 290.403 241.45L290.465 241.344L292.703 237.216C292.703 237.216 310.749 243.364 309.675 245.964Z" fill="#27AE60"/>
<path d="M343.374 297.408C343.374 297.408 339.307 297.323 337.137 299.183C334.968 301.043 324.482 299.592 324.934 299.183C325.386 298.775 325.345 295.757 325.345 295.757C319.194 287.505 324.441 284.158 324.441 284.158C324.441 284.158 321.698 271.174 321.201 266.358C320.853 262.998 320.423 253.929 320.193 248.793C320.093 246.574 320.035 245.043 320.035 245.043L325.015 244.071L325.662 243.946L337.783 241.554C337.783 241.554 338.118 243.773 338.344 245.589C338.458 246.363 338.52 247.145 338.529 247.928C338.452 248.816 338.529 251.599 338.529 251.599L338.945 259.926C338.677 260.8 338.537 261.708 338.529 262.62C338.615 263.686 340.192 278.871 340.192 278.871C340.192 278.871 342.936 287.935 342 288.588C341.065 289.24 343.374 297.408 343.374 297.408Z" fill="#27AE60"/>
<path opacity="0.1" d="M323.248 79.9207C322.945 80.7359 322.893 82.1431 322.979 83.7142C320.592 85.228 317.848 86.0019 315.062 85.9471C312.277 85.8924 309.562 85.0111 307.23 83.4046C307.101 81.1666 306.846 78.9388 306.465 76.7329C306.465 76.7329 324.285 77.1564 323.248 79.9207Z" fill="black"/>
<path d="M330.339 70.138C330.387 74.1395 328.832 77.9962 326.017 80.8596C323.202 83.723 319.357 85.3586 315.327 85.4065C311.298 85.4545 307.414 83.9109 304.53 81.1153C301.647 78.3197 300 74.5012 299.952 70.4997C299.952 70.3762 299.952 70.2615 299.952 70.138C299.952 66.1353 301.553 62.2966 304.403 59.4663C307.253 56.636 311.119 55.0459 315.149 55.0459C319.18 55.0459 323.046 56.636 325.896 59.4663C328.746 62.2966 330.347 66.1353 330.347 70.138H330.339Z" fill="#CF6F80"/>
<path opacity="0.1" d="M317.751 103.856C311.882 101.559 304.331 93.9699 306.217 90.424C306.634 89.5284 306.882 88.563 306.951 87.5764L314.986 94.2296L319.957 98.3353L323.736 88.651C324.052 90.6792 324.377 92.2328 324.377 92.2328C324.377 92.2328 323.252 93.8132 322.598 93.8983C321.944 93.9834 326.173 107.147 317.751 103.856Z" fill="black"/>
<path d="M338.489 132.949L331.802 245.319L323.081 245.891L300.494 180.734L304.199 103.378L304.983 87.0342L315.025 95.2835L319.979 99.3484L323.857 89.4766L331.067 95.7623L338.489 132.949Z" fill="#27AE60"/>
<path opacity="0.1" d="M309.675 245.817C309.372 246.541 309.142 247.292 308.987 248.06C302.503 247.095 296.205 245.195 290.304 242.424L290.181 242.362L290.222 241.658V241.291L292.484 237.216C292.484 237.216 310.761 243.25 309.675 245.817Z" fill="black"/>
<path opacity="0.1" d="M325.462 248.022C323.721 248.308 321.965 248.501 320.201 248.602C320.096 246.319 320.035 244.745 320.035 244.745L325.305 243.722L325.462 248.022Z" fill="black"/>
<path opacity="0.1" d="M338.489 245.618C335.326 246.445 330.436 247.375 326.067 246.794L326.005 243.964L337.937 241.554C337.937 241.554 338.253 243.771 338.489 245.618Z" fill="black"/>
<path opacity="0.1" d="M326.005 247.402C307.644 250.508 290.829 241.602 290.829 241.602L290.99 238.585C290.99 238.585 291.407 204.376 290.251 201.754C289.096 199.131 288.196 185.85 288.849 183.822C289.503 181.794 286.463 151.175 286.463 151.175L285.97 138.75L267.927 131.486L275.988 114.832C277.077 112.498 278.013 110.096 278.791 107.643C280.193 103.317 286.7 99.0701 286.7 99.0701C286.7 99.0701 293.372 94.8278 296.01 94.9876C298.648 95.1473 302.105 91.2335 302.105 91.2335C304.658 84.7858 306.968 87.6835 306.968 87.6835C306.968 87.9941 306.968 87.6835 306.843 88.6375C305.947 95.7153 321.325 118.08 321.545 118.48L323.027 153.829L324.509 198.563L326.005 247.402Z" fill="black"/>
<path d="M323.834 246.318C305.649 249.424 288.99 240.518 288.99 240.518L289.154 237.5C289.154 237.5 289.562 203.292 288.418 200.669C287.274 198.047 286.382 184.752 287.034 182.706C287.686 180.66 284.657 150.073 284.657 150.073L284.164 137.648L266.299 130.384L274.283 113.73C275.358 111.396 276.285 108.996 277.059 106.545C278.447 102.232 284.914 97.9811 284.914 97.9811C284.914 97.9811 291.523 93.7389 294.131 93.8987C296.739 94.0584 300.18 90.149 300.18 90.149C302.713 83.7013 305.503 86.599 305.503 86.599C305.503 86.9096 305.237 87.0427 305.379 87.553C307.33 94.4178 319.235 116.996 319.452 117.395L320.92 152.744L322.357 197.501L323.834 246.318Z" fill="white"/>
<path opacity="0.1" d="M320.577 119.022C318.613 118.206 308.206 106.365 308.206 106.365V103.67C307.827 102.782 305.573 103.324 303.751 103.945L304.535 87.5764L305.426 88.3134C307.373 95.1771 320.363 118.627 320.577 119.022Z" fill="black"/>
<path d="M321.12 118.48C319.151 117.659 308.747 105.817 308.747 105.817V103.117C308.369 102.229 306.12 102.771 304.294 103.392L305.064 87.0342L305.955 87.767C307.919 94.6248 320.902 118.08 321.12 118.48Z" fill="white"/>
<path opacity="0.1" d="M291.177 177.251C291.42 177.251 303.787 175.951 303.787 175.951C303.787 175.951 311.275 190.678 310.784 194.257C310.293 197.835 309.404 201.01 306.392 200.448C303.38 199.887 290.181 200.891 290.181 200.891L291.177 177.251Z" fill="black"/>
<path d="M290.634 176.167C290.881 176.167 303.246 174.866 303.246 174.866C303.246 174.866 310.728 189.627 310.242 193.167C309.755 196.708 308.857 199.926 305.85 199.364C302.843 198.802 289.639 199.806 289.639 199.806L290.634 176.167Z" fill="white"/>
<path d="M299.692 169.445C299.692 169.445 311.098 175.592 311.343 177.463C311.587 179.334 305.537 176.643 304.23 176.314C303.37 176.109 302.494 175.972 301.612 175.904L292.895 176.14L299.692 169.445Z" fill="#CF6F80"/>
<path opacity="0.1" d="M317.321 120.107C317.92 120.107 318.406 119.5 318.406 118.751C318.406 118.003 317.92 117.396 317.321 117.396C316.721 117.396 316.235 118.003 316.235 118.751C316.235 119.5 316.721 120.107 317.321 120.107Z" fill="black"/>
<path d="M317.321 119.565C317.92 119.565 318.406 118.958 318.406 118.209C318.406 117.461 317.92 116.854 317.321 116.854C316.721 116.854 316.235 117.461 316.235 118.209C316.235 118.958 316.721 119.565 317.321 119.565Z" fill="#3F3D56"/>
<path opacity="0.1" d="M319.492 171.613C320.091 171.613 320.577 171.128 320.577 170.529C320.577 169.93 320.091 169.445 319.492 169.445C318.892 169.445 318.406 169.93 318.406 170.529C318.406 171.128 318.892 171.613 319.492 171.613Z" fill="black"/>
<path d="M319.492 171.613C320.091 171.613 320.577 171.006 320.577 170.258C320.577 169.509 320.091 168.902 319.492 168.902C318.892 168.902 318.406 169.509 318.406 170.258C318.406 171.006 318.892 171.613 319.492 171.613Z" fill="#3F3D56"/>
<path opacity="0.1" d="M318.406 146.131C319.006 146.131 319.492 145.524 319.492 144.776C319.492 144.027 319.006 143.42 318.406 143.42C317.807 143.42 317.321 144.027 317.321 144.776C317.321 145.524 317.807 146.131 318.406 146.131Z" fill="black"/>
<path d="M318.406 145.589C319.006 145.589 319.492 144.982 319.492 144.233C319.492 143.485 319.006 142.878 318.406 142.878C317.807 142.878 317.321 143.485 317.321 144.233C317.321 144.982 317.807 145.589 318.406 145.589Z" fill="#3F3D56"/>
<path d="M346.229 175.651C346.229 175.651 347.047 176.875 346.229 177.425C345.412 177.975 346.309 179.385 346.309 179.385C346.309 179.385 344.27 180.574 345.167 181.651C346.065 182.729 345.496 187.567 345.496 187.567L343.043 191.643C343.043 191.643 343.19 194.255 343.199 197.785C343.199 203.294 342.874 211.037 341.079 214.567L341.319 243.531C341.319 243.531 332.73 246.667 325.54 245.709L324.474 199.231C324.474 199.231 326.029 172.875 326.602 167.819C326.938 165.194 327.074 162.548 327.011 159.903C327.011 159.903 326.767 151.991 325.945 148.323C325.945 148.323 325.056 132.411 324.967 128.007C324.927 125.9 325.038 119.753 325.163 113.908C325.3 107.518 325.456 101.49 325.456 101.49L323.834 88.6781C323.834 88.6781 325.456 88.5184 325.945 89.1659C326.164 89.37 326.402 89.5527 326.656 89.7114C329.459 91.6007 339.351 97.4104 339.351 97.4104C339.351 97.4104 344.825 99.5835 346.136 102.697C347.447 105.81 348.358 108.019 348.993 108.906C349.628 109.793 349.975 113.961 349.975 113.961C349.975 113.961 351.859 121.634 353.33 122.933C354.801 124.233 355.858 132.482 355.858 132.482L342.861 142.682C342.861 142.682 341.719 159.65 341.475 160.306C341.23 160.962 346.229 175.651 346.229 175.651Z" fill="white"/>
<path d="M346.742 175.478C346.742 175.478 347.556 176.705 346.742 177.257C345.929 177.808 346.818 179.222 346.818 179.222C346.818 179.222 344.778 180.413 345.676 181.493C346.574 182.574 346.005 187.424 346.005 187.424L343.56 191.51C343.56 191.51 343.707 194.128 343.72 197.667C343.72 203.189 343.396 210.951 341.6 214.49L341.844 243.526C341.844 243.526 333.253 246.669 326.061 245.708L324.999 199.116C324.999 199.116 326.55 172.695 327.128 167.627C327.464 164.996 327.599 162.343 327.532 159.691C327.532 159.691 327.288 151.76 326.47 148.083C326.47 148.083 325.581 132.132 325.487 127.717C325.447 125.605 325.559 119.443 325.683 113.584C325.821 107.178 325.976 101.136 325.976 101.136L323.834 88.1184C323.834 88.1184 325.976 88.1184 326.47 88.7808C326.687 88.9879 326.925 89.1712 327.181 89.3277V89.3277C329.981 91.2216 339.875 97.0456 339.875 97.0456C339.875 97.0456 345.338 99.224 346.671 102.345C348.005 105.466 348.894 107.68 349.529 108.569C350.165 109.458 350.512 113.637 350.512 113.637C350.512 113.637 352.396 121.328 353.867 122.631C355.339 123.934 356.401 132.203 356.401 132.203L343.4 142.428C343.4 142.428 342.258 159.438 342.009 160.096C341.76 160.754 346.742 175.478 346.742 175.478Z" fill="white"/>
<path opacity="0.1" d="M330.865 105.03L331.98 108.456L326.127 114.685C326.258 108.273 326.405 102.226 326.405 102.226L324.377 89.2029C324.377 89.2029 326.405 89.2029 326.872 89.8658C327.077 90.0731 327.303 90.2565 327.545 90.4131V90.4131L332.518 105.581L330.865 105.03Z" fill="black"/>
<path d="M330.73 103.951L331.915 107.372L325.699 113.601C325.833 107.19 325.994 101.144 325.994 101.144L323.834 88.1184C323.834 88.1184 325.994 88.1184 326.486 88.7813C326.705 88.9872 326.945 89.1705 327.201 89.3285V89.3285L332.519 104.507L330.73 103.951Z" fill="white"/>
<path opacity="0.1" d="M330.339 70.2044C330.34 71.8005 330.088 73.3868 329.592 74.9043C329.509 74.9182 329.423 74.9152 329.341 74.8954C329.258 74.8756 329.181 74.8395 329.113 74.7891C328.993 70.8024 327.03 67.0548 324.609 63.8699C323.929 62.9092 323.105 62.0578 322.167 61.3449C321.217 60.634 320.036 60.3008 318.853 60.4103C317.521 60.5919 316.344 61.4956 314.998 61.6107C313.222 61.7569 311.632 60.5299 309.869 60.4723C309.152 60.4782 308.445 60.637 307.794 60.9381C307.144 61.2391 306.566 61.6753 306.098 62.2176C305.171 63.3083 304.483 64.5802 304.077 65.9518C303.379 68.0331 302.999 70.2073 302.949 72.4015C302.927 73.6418 302.807 75.1967 301.653 75.6485C301.74 74.737 301.636 73.8173 301.348 72.9479C301.06 72.0785 300.593 71.2785 299.978 70.5986L299.952 70.5676C299.952 70.4436 299.952 70.3284 299.952 70.2044C299.952 66.1841 301.553 62.3285 304.403 59.4857C307.253 56.6429 311.119 55.0459 315.149 55.0459C319.18 55.0459 323.046 56.6429 325.896 59.4857C328.746 62.3285 330.347 66.1841 330.347 70.2044H330.339Z" fill="black"/>
<path d="M321.731 46.273C319.423 45.1973 316.799 44.9939 314.351 45.7009C313.121 46.0618 311.962 46.6471 310.715 46.9419C308.051 47.58 304.943 46.8891 302.656 48.4338C301.386 49.3139 300.623 50.7045 299.912 52.0599L298.136 55.4089C297.168 57.244 296.192 59.1099 295.788 61.1298C295.383 63.1497 295.628 65.4117 296.92 67.0399C297.857 68.2193 299.251 68.963 300.272 70.0764C300.885 70.7552 301.351 71.5525 301.638 72.4182C301.925 73.2839 302.028 74.1992 301.941 75.1064C303.096 74.6663 303.211 73.1129 303.238 71.8807C303.288 69.7009 303.668 67.541 304.366 65.4733C304.771 64.1106 305.459 62.847 306.386 61.7635C306.853 61.2242 307.431 60.7901 308.081 60.4903C308.731 60.1905 309.438 60.0319 310.155 60.0252C311.931 60.0868 313.525 61.3058 315.284 61.1562C316.616 61.0462 317.797 60.1484 319.138 59.968C320.32 59.8571 321.501 60.1883 322.45 60.8965C323.389 61.6025 324.211 62.4487 324.887 63.4049C327.312 66.5734 329.279 70.2788 329.394 74.2527C329.896 74.6135 330.619 74.1382 330.868 73.5749C331.117 73.0117 331.126 72.3516 331.441 71.8147C331.805 71.1942 332.502 70.8597 333.048 70.3933C334.433 69.2095 334.78 67.2159 334.726 65.4073C334.673 63.5986 334.318 61.7635 334.664 59.9856C334.873 58.8986 335.344 57.8733 335.601 56.7951C335.859 55.7169 335.89 54.5067 335.281 53.5782C334.393 52.2184 332.524 51.9455 330.895 51.8179C329.043 51.6595 327.387 51.8619 326.206 50.3173C325.65 49.5122 325.026 48.7555 324.341 48.0553C324.097 47.8221 321.731 46.3698 321.731 46.273Z" fill="#512E4E"/>
<path opacity="0.1" d="M273.497 140.015L268.856 131.492L267.384 144.645C267.384 144.645 268.202 150.489 268.038 151.385C267.873 152.281 271.39 160.314 271.39 160.314C271.39 160.314 283.005 180.86 287.748 181.915L303.751 170.545L299.501 165.187C299.501 165.187 298.03 164.617 297.661 165.187C297.661 165.187 289.766 151.707 288.953 150.736C288.139 149.765 288.295 147.81 288.295 147.81C288.295 147.81 287.068 146.512 287.477 145.294C287.886 144.076 285.13 139.856 285.13 139.856L287.664 137.504L273.497 140.015Z" fill="black"/>
<path d="M268.995 130.408L267.769 131.385L266.299 144.566C266.299 144.566 267.116 150.422 266.952 151.32C266.788 152.218 270.306 160.268 270.306 160.268C270.306 160.268 281.908 180.857 286.648 181.914L302.665 170.521L298.414 165.151C298.414 165.151 296.944 164.58 296.575 165.151C296.575 165.151 288.691 151.643 287.874 150.67C287.056 149.697 287.221 147.737 287.221 147.737C287.221 147.737 285.995 146.437 286.403 145.216C286.812 143.996 284.031 139.767 284.031 139.767L286.563 137.41L268.995 130.408Z" fill="white"/>
<path opacity="0.1" d="M344.958 182.242C345.837 183.322 345.283 188.179 345.283 188.179L342.855 192.24C342.855 192.24 343 194.865 343.009 198.405L338.926 199.695C338.557 199.812 338.165 199.837 337.784 199.769C337.402 199.702 337.043 199.543 336.735 199.306C336.426 199.069 336.179 198.761 336.012 198.408C335.845 198.055 335.764 197.667 335.776 197.275L336.485 174.324L346.009 178.003C345.2 178.572 346.088 179.969 346.088 179.969C346.088 179.969 344.069 181.161 344.958 182.242Z" fill="black"/>
<path d="M345.499 181.697C346.38 182.773 345.825 187.626 345.825 187.626L343.404 191.688C343.404 191.688 343.549 194.306 343.562 197.843L339.401 199.154C339.04 199.269 338.657 199.294 338.284 199.229C337.911 199.163 337.559 199.008 337.257 198.777C336.955 198.546 336.713 198.246 336.55 197.901C336.386 197.556 336.307 197.176 336.319 196.794L337.028 173.782L346.556 177.466C345.741 178.035 346.631 179.431 346.631 179.431C346.631 179.431 344.61 180.617 345.499 181.697Z" fill="white"/>
<path d="M348.802 170.749C348.802 170.749 348.157 174.798 346.543 175.036C344.929 175.273 344.205 181.587 342.595 181.367C340.985 181.147 342.051 175.493 342.108 174.397C342.165 173.302 340.354 168.765 341.705 167.734C343.056 166.703 347.355 167.734 347.355 167.734L348.802 170.749Z" fill="#CF6F80"/>
<path opacity="0.1" d="M351.907 138.78L354.989 132.577C354.989 132.577 356.221 137.304 356.221 139.83C356.221 142.356 357.937 142.604 357.937 142.604C357.937 142.604 359.818 144.819 358.826 146.437C357.835 148.054 357.439 152.06 357.439 152.06C357.439 152.06 357.764 159.721 356.292 160.78C354.82 161.839 354.491 164.369 354.491 164.369C354.491 164.369 351.792 169.176 351.876 170.32C351.961 171.463 348.114 179.204 348.114 179.204C348.114 179.204 349.995 169.584 339.034 165.428C339.034 165.428 338.95 162.167 339.768 161.272C340.586 160.376 341.862 159.942 341.062 155.44C340.262 150.939 340.831 145.511 340.831 144.425C340.831 143.339 343.285 136.573 343.285 136.573L351.907 138.78Z" fill="black"/>
<path d="M353.374 131.492L356.071 132.382C356.071 132.382 357.304 137.13 357.304 139.666C357.304 142.202 359.021 142.451 359.021 142.451C359.021 142.451 360.904 144.676 359.912 146.3C358.919 147.924 358.519 151.946 358.519 151.946C358.519 151.946 358.848 159.64 357.375 160.703C355.902 161.766 355.594 164.307 355.594 164.307C355.594 164.307 352.893 169.135 352.978 170.283C353.062 171.431 349.208 179.204 349.208 179.204C349.208 179.204 351.09 169.544 340.12 165.37C340.12 165.37 340.04 162.096 340.858 161.197C341.677 160.298 342.955 159.862 342.154 155.341C341.353 150.821 341.922 145.37 341.922 144.28C341.922 143.19 344.379 136.396 344.379 136.396L353.374 131.492Z" fill="white"/>
<path opacity="0.1" d="M293.981 292.613C293.981 292.613 298.265 289.413 301.077 291.738C303.889 294.063 293.981 292.613 293.981 292.613Z" fill="black"/>
<path opacity="0.1" d="M327.633 284.408C327.633 284.408 331.428 283.943 334.614 287.214C337.801 290.484 327.633 284.408 327.633 284.408Z" fill="black"/>
<g opacity="0.1">
<path opacity="0.1" d="M332.959 69.542C332.412 70.017 331.71 70.35 331.346 70.9759C331.035 71.513 331.026 72.1789 330.777 72.7516C330.528 73.3242 329.804 73.7992 329.297 73.4352C329.181 69.4399 327.213 65.6888 324.791 62.4926C324.113 61.5294 323.29 60.6772 322.351 59.9667C321.4 59.2508 320.216 58.9152 319.031 59.0256C317.698 59.2076 316.524 60.1132 315.178 60.2286C313.4 60.3751 311.805 59.1455 310.04 59.0878C309.324 59.0932 308.616 59.2521 307.966 59.5539C307.316 59.8556 306.738 60.2931 306.272 60.8368C305.344 61.9298 304.655 63.2045 304.25 64.579C303.551 66.6649 303.171 68.8437 303.121 71.0425C303.094 72.281 302.979 73.8258 301.832 74.2875C301.859 74.6169 301.859 74.948 301.832 75.2774C302.992 74.8335 303.108 73.2665 303.134 72.0235C303.184 69.8247 303.565 67.6459 304.263 65.5601C304.669 64.1856 305.357 62.9109 306.285 61.8179C306.752 61.2742 307.33 60.8365 307.98 60.5341C308.63 60.2317 309.337 60.0715 310.054 60.0644C311.831 60.1265 313.431 61.3562 315.191 61.2053C316.524 61.0943 317.707 60.1887 319.044 60.0067C320.229 59.895 321.413 60.229 322.364 60.9434C323.304 61.6555 324.127 62.5091 324.804 63.4737C327.226 66.6699 329.195 70.4077 329.31 74.4162C329.817 74.7803 330.541 74.3008 330.79 73.7326C331.039 73.1644 331.048 72.4985 331.359 71.9569C331.724 71.331 332.426 70.9936 332.972 70.5231C334.359 69.3289 334.706 67.318 334.652 65.4935C334.652 65.4358 334.652 65.3825 334.652 65.3248C334.563 66.914 334.141 68.5255 332.959 69.542Z" fill="black"/>
<path opacity="0.1" d="M300.148 69.2313C299.13 68.1082 297.734 67.3535 296.797 66.1638C296.005 65.1136 295.553 63.8465 295.504 62.5326C295.364 64.1755 295.823 65.8134 296.797 67.1449C297.734 68.3346 299.13 69.0848 300.148 70.2079C301.131 71.3059 301.721 72.6985 301.828 74.1677C301.894 73.2743 301.78 72.3766 301.491 71.5284C301.203 70.6802 300.746 69.8989 300.148 69.2313Z" fill="black"/>
<path opacity="0.1" d="M335.514 55.825C335.252 56.9126 334.786 57.9469 334.572 59.0434C334.444 59.7849 334.398 60.5381 334.434 61.2896C334.449 60.8651 334.495 60.4422 334.572 60.0245C334.786 58.928 335.252 57.8937 335.514 56.8061C335.665 56.2058 335.715 55.5848 335.661 54.9683C335.632 55.2569 335.583 55.5432 335.514 55.825V55.825Z" fill="black"/>
</g>
</g>
<defs>
<filter id="filter0_d_21_457" x="0.76001" y="0.551636" width="379.24" height="341.448" filterUnits="userSpaceOnUse" color-interpolation-filters="sRGB">
<feFlood flood-opacity="0" result="BackgroundImageFix"/>
<feColorMatrix in="SourceAlpha" type="matrix" values="0 0 0 0 0 0 0 0 0 0 0 0 0 0 0 0 0 0 127 0" result="hardAlpha"/>
<feOffset dx="-4" dy="4"/>
<feGaussianBlur stdDeviation="10"/>
<feComposite in2="hardAlpha" operator="out"/>
<feColorMatrix type="matrix" values="0 0 0 0 0 0 0 0 0 0 0 0 0 0 0 0 0 0 0.25 0"/>
<feBlend mode="normal" in2="BackgroundImageFix" result="effect1_dropShadow_21_457"/>
<feBlend mode="normal" in="SourceGraphic" in2="effect1_dropShadow_21_457" result="shape"/>
</filter>
<linearGradient id="paint0_linear_21_457" x1="84649.8" y1="240347" x2="84649.8" y2="72202.2" gradientUnits="userSpaceOnUse">
<stop stop-color="#808080" stop-opacity="0.25"/>
<stop offset="0.54" stop-color="#808080" stop-opacity="0.12"/>
<stop offset="1" stop-color="#808080" stop-opacity="0.1"/>
</linearGradient>
</defs>
</svg>
