<svg width="214" height="238" viewBox="0 0 214 238" fill="none" xmlns="http://www.w3.org/2000/svg">
<g clip-path="url(#clip0_21_435)" filter="url(#filter0_i_21_435)">
<path d="M130.533 67.414C124.196 63.9134 116.309 64.6159 109.481 67.0093C102.653 69.4027 96.4654 73.3238 89.8347 76.224C69.5725 85.0865 45.1513 83.6574 26.0494 72.4915C24.2428 76.715 26.1809 81.546 28.3098 85.6149C30.4387 89.6839 32.8651 94.0941 31.9887 98.6061C30.8673 104.38 24.844 107.842 22.4035 113.189C20.0867 118.265 21.3302 124.226 23.1075 129.517C24.8849 134.808 27.1913 140.139 26.8893 145.715C26.5873 151.291 22.5564 157.187 17 157.192C25.2344 158.478 33.6309 159.765 41.8603 158.447C50.0897 157.129 58.2758 152.755 62.0968 145.312C64.0066 141.591 64.7428 137.314 66.9362 133.755C70.6721 127.693 77.8419 124.843 84.6067 122.695C91.3716 120.546 98.611 118.477 103.374 113.192C107.912 108.157 109.35 101.143 111.754 94.7933C115.804 84.164 122.837 74.9454 132 68.2571" fill="#27AE60"/>
<path d="M132.654 27.6161C136.483 25.8305 141.185 25.2452 145.081 26.9044C148.978 28.5636 151.634 32.8165 150.374 36.5804C149.803 38.2868 148.502 39.9651 149.009 41.6886C149.399 43.0151 150.76 43.891 152.097 44.5137C153.433 45.1365 154.895 45.66 155.862 46.7104C156.829 47.7607 157.03 49.5688 155.823 50.3834C155.425 50.6517 154.928 50.779 154.542 51.0618C154.213 51.3295 153.976 51.6934 153.863 52.1028C153.751 52.5121 153.768 52.9465 153.914 53.3453C154.235 54.1478 154.767 54.8485 155.452 55.3738C156.823 56.5587 158.634 57.9149 158.209 59.597C158.051 60.0466 157.787 60.4513 157.44 60.7769C157.093 61.1024 156.672 61.3392 156.214 61.4672C155.263 61.7422 154.276 61.8727 153.286 61.8545L112.835 63.1317C111.5 63.2323 110.157 63.1571 108.841 62.9081C108.202 62.7912 107.593 62.5433 107.053 62.1799C106.514 61.8165 106.055 61.3455 105.705 60.7962C104.93 59.359 105.439 57.5887 106.395 56.2467C107.352 54.9048 108.706 53.8462 109.825 52.6139C110.943 51.3816 111.859 49.8434 111.661 48.2508C111.503 46.9758 110.665 45.8739 110.062 44.7155C109.46 43.5571 109.11 42.1095 109.89 41.0438C110.989 39.5421 113.628 39.678 114.878 38.2786C115.821 37.2226 115.639 35.7024 115.732 34.3406C115.958 31.065 118.22 27.9715 121.441 26.535C123.079 25.8303 124.861 25.5261 126.639 25.6475C128.417 25.7689 130.141 26.3124 131.668 27.2331L132.654 27.6161Z" fill="#2F2E41"/>
<path d="M157.136 228.89L163.471 226.982L159.144 201.581L149.794 204.397L157.136 228.89Z" fill="#A0616A"/>
<path d="M157.365 235.532L177.793 229.38L177.715 229.121C177.402 228.075 176.886 227.1 176.196 226.254C175.507 225.407 174.658 224.705 173.698 224.187C172.737 223.669 171.685 223.346 170.6 223.236C169.516 223.126 168.42 223.232 167.376 223.546L167.375 223.546L154.899 227.303L157.365 235.532Z" fill="#2F2E41"/>
<path d="M97.3517 229.105L103.967 229.104L107.114 203.529L97.3507 203.53L97.3517 229.105Z" fill="#A0616A"/>
<path d="M95.6649 235.532L116.995 235.531V235.261C116.995 234.168 116.78 233.086 116.363 232.076C115.946 231.067 115.334 230.149 114.563 229.377C113.792 228.604 112.877 227.991 111.87 227.573C110.862 227.155 109.783 226.939 108.693 226.939H108.692L95.6645 226.94L95.6649 235.532Z" fill="#2F2E41"/>
<path d="M105.443 212.909C106.02 212.909 106.578 212.702 107.018 212.327C107.457 211.952 107.748 211.432 107.84 210.86L117.662 149.446C117.727 149.039 117.923 148.665 118.219 148.38C118.516 148.094 118.897 147.914 119.305 147.866C119.714 147.817 120.126 147.904 120.481 148.112C120.836 148.32 121.113 148.639 121.271 149.019L146.718 210.424C146.955 210.99 147.397 211.447 147.955 211.702C148.512 211.957 149.146 211.992 149.728 211.799L158.92 208.728C159.492 208.539 159.973 208.142 160.269 207.616C160.565 207.09 160.655 206.472 160.52 205.883L139.666 113.389C139.564 112.943 139.339 112.535 139.018 112.211C138.696 111.887 138.29 111.659 137.846 111.554L109.879 105.047C109.535 104.969 109.178 104.965 108.833 105.037C108.488 105.109 108.162 105.254 107.878 105.463C89.4618 118.875 91.0176 162.695 94.4498 210.276C94.4927 210.871 94.7524 211.43 95.1796 211.847C95.6069 212.263 96.1718 212.507 96.767 212.533L105.337 212.907C105.372 212.908 105.408 212.909 105.443 212.909Z" fill="#2F2E41"/>
<path d="M131.157 62.8174C123.838 62.8174 117.904 56.8702 117.904 49.5339C117.904 42.1977 123.838 36.2505 131.157 36.2505C138.476 36.2505 144.41 42.1977 144.41 49.5339C144.41 56.8702 138.476 62.8174 131.157 62.8174Z" fill="#A0616A"/>
<path d="M129.506 114.054C132.687 114.034 135.824 113.307 138.691 111.926L138.79 111.88L138.829 111.778L150.716 80.9095L150.942 75.546C151.018 73.7524 150.718 71.9628 150.062 70.2924C149.406 68.622 148.408 67.1078 147.132 65.8473C145.857 64.5869 144.333 63.6081 142.657 62.974C140.981 62.3399 139.192 62.0646 137.404 62.1657L124.784 62.8782C121.524 63.0639 118.457 64.4879 116.208 66.8602C113.959 69.2325 112.696 72.3749 112.677 75.6475C112.35 76.2786 110.022 81.2137 114.584 85.8504C114.754 86.9062 116.35 97.8824 110.328 103.918L110.159 104.088L110.307 104.276C110.403 104.399 118.136 114.053 129.506 114.054Z" fill="#3F3D56"/>
<path d="M111.785 116.383C111.039 116.112 110.362 115.68 109.8 115.118C109.239 114.557 108.807 113.878 108.536 113.131C108.264 112.384 108.16 111.587 108.229 110.795C108.298 110.002 108.54 109.235 108.937 108.547L96.3333 93.9211L106.269 92.6248L116.715 106.713C117.824 107.458 118.622 108.585 118.958 109.881C119.293 111.177 119.143 112.551 118.535 113.743C117.927 114.935 116.905 115.862 115.66 116.348C114.416 116.835 113.037 116.847 111.785 116.383V116.383Z" fill="#A0616A"/>
<path d="M103.904 105.094C104.378 105.094 104.841 104.955 105.236 104.694L111.47 100.596C111.994 100.253 112.366 99.7194 112.506 99.108C112.647 98.4966 112.546 97.8544 112.225 97.3158L107.712 89.7161C107.468 89.305 107.313 88.8467 107.258 88.3714C107.203 87.8961 107.249 87.4146 107.393 86.9584C107.537 86.5022 107.776 86.0816 108.093 85.7244C108.411 85.3672 108.8 85.0813 109.236 84.8856L122.201 79.0594C123.795 78.3339 125.097 77.0872 125.892 75.5234C126.687 73.9596 126.929 72.1716 126.578 70.452V70.452C126.336 69.2924 125.83 68.2045 125.099 67.2729C124.369 66.3413 123.434 65.5911 122.368 65.0807C121.301 64.5703 120.131 64.3134 118.949 64.3301C117.767 64.3468 116.605 64.6365 115.553 65.1768L95.8841 75.2789C94.5572 75.9604 93.3929 76.9213 92.471 78.0958C91.549 79.2702 90.8912 80.6305 90.5425 82.0835C90.1938 83.5365 90.1624 85.0478 90.4506 86.5141C90.7388 87.9803 91.3398 89.3668 92.2123 90.5786L101.936 104.083C102.16 104.396 102.456 104.651 102.798 104.827C103.14 105.003 103.52 105.094 103.904 105.094Z" fill="#3F3D56"/>
<path d="M144.715 47.6454C140.53 47.3086 137.055 43.1179 137.49 38.9321C137.539 40.6574 136.954 42.3406 135.845 43.6615C134.737 44.9824 133.183 45.8488 131.478 46.0959C129.559 46.3079 127.454 45.7257 125.783 46.6965C123.932 47.7716 123.34 50.3827 121.412 51.3113C119.549 52.2086 117.183 50.9848 116.262 49.13C115.342 47.2751 115.568 45.0465 116.178 43.0672C117.048 40.2444 118.632 37.6953 120.776 35.6678C122.919 33.6403 125.55 32.2035 128.412 31.4971C131.274 30.7906 134.27 30.8387 137.108 31.6364C139.946 32.4342 142.53 33.9546 144.608 36.0498C146.368 37.824 147.765 40.0852 147.992 42.5767C148.219 45.0682 147.065 47.7716 144.833 48.8908L144.715 47.6454Z" fill="#2F2E41"/>
<path d="M174.468 6.52336C173.77 6.90062 173.162 7.42675 172.689 8.06469C172.216 8.70262 171.887 9.43686 171.728 10.2157C171.568 10.9944 171.581 11.7989 171.765 12.5722C171.949 13.3456 172.3 14.0692 172.793 14.6919L162.455 31.0061L172.473 30.834L180.754 15.3682C181.743 14.4684 182.368 13.2364 182.511 11.9054C182.655 10.5745 182.306 9.23727 181.531 8.14703C180.756 7.05679 179.609 6.28933 178.307 5.99008C177.005 5.69083 175.639 5.88058 174.468 6.52337V6.52336Z" fill="#A0616A"/>
<path d="M166.135 18.1404L152.822 49.6719L138.864 73.3952C138.274 74.3967 137.92 75.5193 137.827 76.6782C137.734 77.8371 137.905 79.002 138.327 80.0849C138.749 81.1679 139.411 82.1406 140.263 82.9295C141.115 83.7185 142.135 84.3031 143.245 84.6392C145.006 85.1631 146.896 85.0384 148.573 84.2876C150.251 83.5369 151.605 82.2096 152.391 80.5456L179.294 22.9292C179.44 22.6162 179.518 22.2755 179.522 21.93C179.527 21.5844 179.458 21.2418 179.32 20.925C179.182 20.6082 178.979 20.3245 178.723 20.0927C178.467 19.8609 178.165 19.6863 177.837 19.5806L169.114 16.772C168.949 16.7187 168.778 16.683 168.606 16.6653C168.09 16.6132 167.572 16.7284 167.127 16.994C166.683 17.2596 166.335 17.6615 166.135 18.1404Z" fill="#3F3D56"/>
<path d="M41.3334 235.982H449.258C449.401 235.982 449.539 235.925 449.64 235.824C449.741 235.723 449.798 235.585 449.798 235.442C449.798 235.298 449.741 235.161 449.64 235.059C449.539 234.958 449.401 234.901 449.258 234.901H41.3334C41.1903 234.901 41.0531 234.958 40.9519 235.059C40.8507 235.161 40.7938 235.298 40.7938 235.442C40.7938 235.585 40.8507 235.723 40.9519 235.824C41.0531 235.925 41.1903 235.982 41.3334 235.982Z" fill="#CCCCCC"/>
</g>
<defs>
<filter id="filter0_i_21_435" x="-4" y="0" width="218" height="242" filterUnits="userSpaceOnUse" color-interpolation-filters="sRGB">
<feFlood flood-opacity="0" result="BackgroundImageFix"/>
<feBlend mode="normal" in="SourceGraphic" in2="BackgroundImageFix" result="shape"/>
<feColorMatrix in="SourceAlpha" type="matrix" values="0 0 0 0 0 0 0 0 0 0 0 0 0 0 0 0 0 0 127 0" result="hardAlpha"/>
<feOffset dx="-4" dy="4"/>
<feGaussianBlur stdDeviation="10"/>
<feComposite in2="hardAlpha" operator="arithmetic" k2="-1" k3="1"/>
<feColorMatrix type="matrix" values="0 0 0 0 0 0 0 0 0 0 0 0 0 0 0 0 0 0 0.25 0"/>
<feBlend mode="normal" in2="shape" result="effect1_innerShadow_21_435"/>
</filter>
<clipPath id="clip0_21_435">
<rect width="214" height="238" fill="white" transform="matrix(-1 0 0 1 214 0)"/>
</clipPath>
</defs>
</svg>
