<svg width="148" height="315" viewBox="0 0 148 315" fill="none" xmlns="http://www.w3.org/2000/svg">
<g filter="url(#filter0_d_21_413)">
<path d="M91.6022 48.1067L62.9549 52.9267C62.2472 53.0467 61.5199 52.9015 60.9137 52.5194C60.3075 52.1373 59.8655 51.5453 59.6733 50.8581C57.6036 43.4361 53.2763 33.7539 57.4776 28.8934C57.6917 26.8487 58.6912 24.9647 60.2681 23.6337C61.8451 22.3027 63.8779 21.6273 65.9435 21.748C71.0611 13.7888 79.5852 14.9839 85.3465 19.9547C91.1446 21.9425 93.3306 25.4739 92.5662 30.2662C95.071 32.4446 96.3842 34.8983 96.6611 37.5915C96.7924 39.0902 96.6005 40.5995 96.0982 42.0186C95.5958 43.4378 94.7946 44.7342 93.748 45.8213L91.6022 48.1067Z" fill="#2F2E41"/>
<path d="M87.1483 70.5145L64.9402 69.2166C67.1166 64.2534 67.986 59.4741 67.1175 54.9392H83.6647C83.6272 58.4211 85.3711 64.4441 87.1483 70.5145Z" fill="#9F616A"/>
<path d="M60.4158 274.402L59.505 286.774C59.4637 287.334 59.5435 287.896 59.7389 288.423C59.9343 288.95 60.2409 289.429 60.638 289.829C61.0351 290.228 61.5136 290.539 62.0414 290.74C62.5693 290.94 63.1342 291.027 63.6983 290.993L70.0944 290.608C70.3908 290.59 70.6796 290.507 70.9402 290.366C71.2009 290.225 71.427 290.028 71.6025 289.79C71.7781 289.553 71.8987 289.279 71.9559 288.99C72.0131 288.7 72.0054 288.402 71.9334 288.116L68.383 274.006L60.4158 274.402Z" fill="#FFFBFB"/>
<path d="M81.1231 274.006L77.5727 288.115C77.5007 288.402 77.493 288.7 77.5502 288.99C77.6074 289.279 77.728 289.552 77.9036 289.79C78.0791 290.028 78.3052 290.225 78.5659 290.366C78.8265 290.507 79.1153 290.59 79.4117 290.608L85.8078 290.993C86.3719 291.027 86.9369 290.94 87.4647 290.74C87.9925 290.539 88.471 290.228 88.8681 289.829C89.2653 289.429 89.5718 288.95 89.7672 288.423C89.9626 287.896 90.0424 287.334 90.0012 286.774L89.0903 274.402L81.1231 274.006Z" fill="#FFFAFA"/>
<path d="M89.5031 276.12L80.8718 275.259L72.2784 183.995L69.0307 274.965L60.5506 274.663L46.2577 148.675H100.864L89.5031 276.12Z" fill="#27AE60"/>
<path d="M75.8277 60.1914C84.9359 60.1914 92.3196 52.8553 92.3196 43.8057C92.3196 34.7562 84.9359 27.42 75.8277 27.42C66.7194 27.42 59.3357 34.7562 59.3357 43.8057C59.3357 52.8553 66.7194 60.1914 75.8277 60.1914Z" fill="#9F616A"/>
<path d="M94.4149 35.978C87.7213 34.8198 81.1404 34.6608 74.743 36.1299C70.6679 37.4553 65.774 37.3332 60.3315 36.2411V25.1913L89.7138 25.7175L94.4149 35.978Z" fill="#2F2E41"/>
<path d="M86.8032 56.9532C79.5884 59.9349 72.0234 59.8138 64.1491 56.9532C66.4404 53.0674 63.0154 50.0241 61.2571 46.1015L90.6592 45.2334C88.4108 48.641 85.0931 52.6671 86.8032 56.9532Z" fill="white"/>
<path d="M59.2326 43.8638L58.9435 44.2085L61.8354 46.6028L62.1245 46.2581L59.2326 43.8638Z" fill="white"/>
<path d="M91.1919 48.7051L86.1296 56.6062L86.5105 56.8471L91.5728 48.946L91.1919 48.7051Z" fill="white"/>
<path d="M59.7598 48.7045L59.3789 48.9453L64.4399 56.8472L64.8208 56.6064L59.7598 48.7045Z" fill="white"/>
<path d="M44.474 118.539L31.8458 110.751L42.6154 79.4122C43.8166 76.1784 46.1172 73.4633 49.1197 71.7362L52.7476 69.6494L53.063 101.264L44.474 118.539Z" fill="#27AE60"/>
<path d="M99.0584 133.759L97.19 117.86C97.0903 109.467 98.5272 101.354 101.954 93.8777L103.696 70.5147L84.5356 62.7271C84.4768 63.115 84.4269 63.5027 84.3709 63.8905L75.3911 68.3515L66.6335 66.374L66.682 63.5924L49.2639 71.38C55.0241 97.987 51.8824 125.617 41.9769 158.253L64.9237 164.487L65.1145 153.54L85.565 152.088C85.7757 155.64 85.9449 159.129 86.0432 162.54C97.5828 166.761 97.9792 166.691 108.493 160.648C104.306 151.901 100.991 142.799 99.0584 133.759Z" fill="#27AE60"/>
<path d="M128.516 114.645L116.759 110.751L97.9529 88.9987L103.695 70.5149L129.823 106.857L128.516 114.645Z" fill="#27AE60"/>
<path d="M91.6693 131.485C91.8617 132.323 92.381 133.052 93.1133 133.511C93.8457 133.97 94.7313 134.122 95.5761 133.933L105.556 131.687L104.114 125.358L94.1334 127.603C93.2886 127.793 92.5545 128.309 92.0924 129.037C91.6303 129.765 91.4781 130.645 91.6693 131.485V131.485Z" fill="#E6E6E6"/>
<path d="M100.647 124.163L106.308 134.546C115.83 131.908 124.082 123.59 132 113.779L129.823 106.857L116.324 110.318L100.647 124.163Z" fill="#27AE60"/>
<path d="M26.838 91.592L37.7054 93.52L62.5453 128.612L49.3492 125.527L26.838 91.592Z" fill="#E6E6E6"/>
<path d="M24.9104 91.1626C24.7448 91.1651 24.5829 91.2117 24.4417 91.2976C24.3004 91.3836 24.185 91.5056 24.1075 91.651C24.03 91.7965 23.9932 91.9599 24.001 92.1243C24.0089 92.2886 24.061 92.4479 24.152 92.5854L47.3707 127.587C47.5002 127.783 47.7004 127.921 47.9299 127.975L58.7329 130.5C58.915 130.543 59.1059 130.53 59.2802 130.462C59.4544 130.394 59.6039 130.275 59.7087 130.121C59.8135 129.967 59.8687 129.785 59.867 129.599C59.8653 129.414 59.8067 129.233 59.699 129.08L34.2063 93.0666C34.1372 92.9685 34.0493 92.8849 33.9476 92.8205C33.8459 92.7562 33.7325 92.7124 33.6137 92.6917L25.0845 91.1782C25.0271 91.168 24.9688 91.1628 24.9104 91.1626Z" fill="#3F3D56"/>
<path d="M39.3944 116.188L40.0397 122.646L50.2227 121.642C51.0846 121.557 51.8773 121.135 52.4263 120.47C52.9753 119.804 53.2356 118.949 53.1501 118.093C53.0646 117.236 52.6401 116.449 51.9701 115.903C51.3002 115.358 50.4395 115.099 49.5776 115.184L39.3944 116.188Z" fill="#E6E6E6"/>
<path d="M30.5397 115.44C30.5545 117.642 31.4446 119.749 33.0161 121.302C34.5877 122.855 36.7132 123.728 38.9296 123.73H40.604L41.823 113.637L31.7299 110.027L30.5397 115.44Z" fill="#27AE60"/>
<path d="M89.8546 46.3498L89.5355 46.0327L90.0176 45.5538L92.8979 42.214L93.2404 42.5055L90.3485 45.8578L89.8546 46.3498Z" fill="white"/>
</g>
<defs>
<filter id="filter0_d_21_413" x="0" y="0" width="148" height="315" filterUnits="userSpaceOnUse" color-interpolation-filters="sRGB">
<feFlood flood-opacity="0" result="BackgroundImageFix"/>
<feColorMatrix in="SourceAlpha" type="matrix" values="0 0 0 0 0 0 0 0 0 0 0 0 0 0 0 0 0 0 127 0" result="hardAlpha"/>
<feOffset dx="-4" dy="4"/>
<feGaussianBlur stdDeviation="10"/>
<feComposite in2="hardAlpha" operator="out"/>
<feColorMatrix type="matrix" values="0 0 0 0 0 0 0 0 0 0 0 0 0 0 0 0 0 0 0.25 0"/>
<feBlend mode="normal" in2="BackgroundImageFix" result="effect1_dropShadow_21_413"/>
<feBlend mode="normal" in="SourceGraphic" in2="effect1_dropShadow_21_413" result="shape"/>
</filter>
</defs>
</svg>
