<svg width="40" height="40" viewBox="0 0 40 40" fill="none" xmlns="http://www.w3.org/2000/svg">
<path fill-rule="evenodd" clip-rule="evenodd" d="M34.1719 5.8137C32.3268 3.96536 30.1316 2.49976 27.7134 1.50182C25.2952 0.503886 22.7021 -0.00655824 20.0843 6.36102e-05C9.10703 6.36102e-05 0.170826 8.89164 0.166389 19.8212C0.166389 23.3142 1.08264 26.7234 2.82418 29.7306L0 40L10.5579 37.2422C13.4784 38.8245 16.7503 39.6541 20.0754 39.6556H20.0843C31.0593 39.6556 39.9955 30.764 39.9999 19.8344C40.0075 17.2301 39.4963 14.6501 38.4959 12.2435C37.4956 9.83694 36.0259 7.65157 34.1719 5.8137ZM20.0843 36.3104H20.0776C17.1126 36.3108 14.2022 35.5168 11.6517 34.0119L11.0482 33.6542L4.78313 35.2904L6.45367 29.2118L6.061 28.5891C4.40329 25.9625 3.52575 22.9229 3.52967 19.8212C3.5341 10.7375 10.9595 3.34738 20.0909 3.34738C22.2656 3.34257 24.4197 3.76707 26.4285 4.59633C28.4372 5.42558 30.2608 6.64311 31.7936 8.17846C33.3346 9.70648 34.5561 11.5233 35.3874 13.524C36.2186 15.5247 36.6432 17.6695 36.6366 19.8344C36.6322 28.9181 29.2068 36.3104 20.0843 36.3104ZM29.1647 23.97C28.6655 23.7205 26.2207 22.5238 25.7637 22.3582C25.3089 22.1926 24.9783 22.1109 24.6455 22.6055C24.3128 23.1 23.3588 24.2151 23.0682 24.5463C22.7775 24.8775 22.4869 24.9172 21.99 24.6699C21.493 24.4226 19.889 23.8993 17.9878 22.2124C16.508 20.8987 15.5097 19.278 15.219 18.7812C14.9284 18.2844 15.188 18.0173 15.4387 17.77C15.6628 17.5492 15.9356 17.1915 16.1841 16.9022C16.4326 16.613 16.5147 16.4076 16.6811 16.0764C16.8474 15.7452 16.7654 15.456 16.6389 15.2087C16.5147 14.9592 15.5185 12.5216 15.1037 11.5302C14.7021 10.5697 14.2917 10.6978 13.9856 10.6845C13.6685 10.6716 13.3511 10.6657 13.0338 10.6669C12.7815 10.6733 12.5332 10.7315 12.3045 10.8379C12.0758 10.9443 11.8717 11.0965 11.7049 11.2851C11.2479 11.7819 9.96337 12.9786 9.96337 15.4162C9.96337 17.8539 11.7471 20.2098 11.9955 20.541C12.244 20.8722 15.5052 25.8733 20.4969 28.0194C21.686 28.5295 22.6134 28.8342 23.3344 29.0638C24.5257 29.4414 25.6106 29.3862 26.4692 29.2603C27.4253 29.119 29.4131 28.0636 29.828 26.9066C30.2429 25.7496 30.2429 24.7582 30.1186 24.5507C29.9944 24.3431 29.6594 24.2173 29.1647 23.97Z" fill="white"/>
</svg>
